<svg version="1.1" viewBox="0.0 0.0 128.0 128.0" fill="none" stroke="none" stroke-linecap="square" stroke-miterlimit="10" xmlns:xlink="http://www.w3.org/1999/xlink" xmlns="http://www.w3.org/2000/svg"><clipPath id="p.0"><path d="m0 0l128.0 0l0 128.0l-128.0 0l0 -128.0z" clip-rule="nonzero"/></clipPath><g clip-path="url(#p.0)"><path fill="#000000" fill-opacity="0.0" d="m0 0l128.0 0l0 128.0l-128.0 0z" fill-rule="evenodd"/><defs><radialGradient id="p.1" gradientUnits="userSpaceOnUse" gradientTransform="matrix(9.513655854602701 0.0 0.0 9.513655854602701 0.0 0.0)" spreadMethod="pad" cx="6.727172075394846" cy="6.727171891799448" fx="6.727172075394846" fy="6.727171891799448" r="9.513655662536621"><stop offset="0.0" stop-color="#fdfdfd"/><stop offset="0.52" stop-color="#fdfdfd"/><stop offset="1.0" stop-color="#080808"/></radialGradient></defs><path fill="url(#p.1)" d="m0 64.0l32.0 -63.99997l64.0 0l32.0 63.99997l-32.0 63.99997l-64.0 0z" fill-rule="evenodd"/><path fill="#000000" fill-opacity="0.0" d="m55.53736 88.334435l-22.931149 -10.417381l5.0635567 -5.611847z" fill-rule="evenodd"/><path stroke="#4a7882" stroke-width="1.0" stroke-linejoin="round" stroke-linecap="butt" d="m55.53736 88.334435l-22.931149 -10.417381l5.0635567 -5.611847z" fill-rule="evenodd"/><path fill="#000000" fill-opacity="0.0" d="m31.502056 30.420645l22.463497 18.077227l-16.045353 23.94709z" fill-rule="evenodd"/><path stroke="#4a7882" stroke-width="1.0" stroke-linejoin="round" stroke-linecap="butt" d="m31.502056 30.420645l22.463497 18.077227l-16.045353 23.94709z" fill-rule="evenodd"/><path fill="#000000" fill-opacity="0.0" d="m53.55009 48.476368l10.53027 -1.8061104l10.530266 1.8061104z" fill-rule="evenodd"/><path stroke="#4a7882" stroke-width="1.0" stroke-linejoin="round" stroke-linecap="butt" d="m53.55009 48.476368l10.53027 -1.8061104l10.530266 1.8061104z" fill-rule="evenodd"/><path fill="#000000" fill-opacity="0.0" d="m64.27663 46.35309l-10.383923 2.2173538l-22.287321 -18.311085z" fill-rule="evenodd"/><path stroke="#4a7882" stroke-width="1.0" stroke-linejoin="round" stroke-linecap="butt" d="m64.27663 46.35309l-10.383923 2.2173538l-22.287321 -18.311085z" fill-rule="evenodd"/><path fill="#d4e0fc" d="m96.51128 30.420645l-22.463501 18.077227l16.045357 23.94709z" fill-rule="evenodd"/><path stroke="#4a7882" stroke-width="1.0" stroke-linejoin="round" stroke-linecap="butt" d="m96.51128 30.420645l-22.463501 18.077227l16.045357 23.94709z" fill-rule="evenodd"/><path fill="#8daef6" d="m72.11394 88.44193l23.124664 -10.127121l-5.289322 -5.869858z" fill-rule="evenodd"/><path stroke="#4a7882" stroke-width="1.0" stroke-linejoin="round" stroke-linecap="butt" d="m72.11394 88.44193l23.124664 -10.127121l-5.289322 -5.869858z" fill-rule="evenodd"/><path fill="#8daef6" d="m63.981712 46.353104l10.324333 2.2471466l22.088898 -18.211872z" fill-rule="evenodd"/><path stroke="#4a7882" stroke-width="1.0" stroke-linejoin="round" stroke-linecap="butt" d="m63.981712 46.353104l10.324333 2.2471466l22.088898 -18.211872z" fill-rule="evenodd"/><path fill="#000000" fill-opacity="0.0" d="m64.10637 96.01576l-26.032944 -23.669983l15.518799 -23.86942z" fill-rule="evenodd"/><path stroke="#4a7882" stroke-width="1.0" stroke-linejoin="round" stroke-linecap="butt" d="m64.10637 96.01576l-26.032944 -23.669983l15.518799 -23.86942z" fill-rule="evenodd"/><path fill="#8de2f6" d="m64.34572 96.19048l25.826195 -23.797302l-15.2798 -23.903358z" fill-rule="evenodd"/><path stroke="#4a7882" stroke-width="1.0" stroke-linejoin="round" stroke-linecap="butt" d="m64.34572 96.19048l25.826195 -23.797302l-15.2798 -23.903358z" fill-rule="evenodd"/><path fill="#d4f4fc" d="m64.16637 48.460243l10.481888 0l-10.481888 47.410393z" fill-rule="evenodd"/><path stroke="#4a7882" stroke-width="1.0" stroke-linejoin="round" stroke-linecap="butt" d="m64.16637 48.460243l10.481888 0l-10.481888 47.410393z" fill-rule="evenodd"/><path fill="#000000" fill-opacity="0.0" d="m64.17712 48.460243l-10.481892 0l10.481892 47.410393z" fill-rule="evenodd"/><path stroke="#4a7882" stroke-width="1.0" stroke-linejoin="round" stroke-linecap="butt" d="m64.17712 48.460243l-10.481892 0l10.481892 47.410393z" fill-rule="evenodd"/><path fill="#000000" fill-opacity="0.0" d="m37.89167 72.44412l26.285355 5.09581" fill-rule="evenodd"/><path stroke="#4a7882" stroke-width="1.0" stroke-linejoin="round" stroke-linecap="butt" d="m37.89167 72.44412l26.285355 5.09581" fill-rule="evenodd"/><path fill="#000000" fill-opacity="0.0" d="m90.36831 72.44412l-26.285355 5.09581" fill-rule="evenodd"/><path stroke="#4a7882" stroke-width="1.0" stroke-linejoin="round" stroke-linecap="butt" d="m90.36831 72.44412l-26.285355 5.09581" fill-rule="evenodd"/></g></svg>