<svg version="1.1" viewBox="0.0 0.0 32.0 32.0" fill="none" stroke="none" stroke-linecap="square" stroke-miterlimit="10" xmlns:xlink="http://www.w3.org/1999/xlink" xmlns="http://www.w3.org/2000/svg"><clipPath id="p.0"><path d="m0 0l32.0 0l0 32.0l-32.0 0l0 -32.0z" clip-rule="nonzero"/></clipPath><g clip-path="url(#p.0)"><path fill="#000000" fill-opacity="0.0" d="m0 0l32.0 0l0 32.0l-32.0 0z" fill-rule="evenodd"/><defs><radialGradient id="p.1" gradientUnits="userSpaceOnUse" gradientTransform="matrix(4.756827927301351 0.0 0.0 4.756827927301351 0.0 0.0)" spreadMethod="pad" cx="3.363586037697423" cy="3.363585945899724" fx="3.363586037697423" fy="3.363585945899724" r="4.7568278312683105"><stop offset="0.0" stop-color="#fdfdfd"/><stop offset="0.52" stop-color="#fdfdfd"/><stop offset="1.0" stop-color="#080808"/></radialGradient></defs><path fill="url(#p.1)" d="m0 16.0l8.0 -15.999992l16.0 0l8.0 15.999992l-8.0 15.999992l-16.0 0z" fill-rule="evenodd"/><path fill="#000000" fill-opacity="0.0" d="m13.88434 22.083609l-5.732787 -2.6043453l1.2658892 -1.4029617z" fill-rule="evenodd"/><path stroke="#4a7882" stroke-width="1.0" stroke-linejoin="round" stroke-linecap="butt" d="m13.88434 22.083609l-5.732787 -2.6043453l1.2658892 -1.4029617z" fill-rule="evenodd"/><path fill="#000000" fill-opacity="0.0" d="m7.875514 7.605161l5.6158743 4.5193067l-4.011339 5.9867725z" fill-rule="evenodd"/><path stroke="#4a7882" stroke-width="1.0" stroke-linejoin="round" stroke-linecap="butt" d="m7.875514 7.605161l5.6158743 4.5193067l-4.011339 5.9867725z" fill-rule="evenodd"/><path fill="#000000" fill-opacity="0.0" d="m13.387523 12.119092l2.6325674 -0.4515276l2.6325665 0.4515276z" fill-rule="evenodd"/><path stroke="#4a7882" stroke-width="1.0" stroke-linejoin="round" stroke-linecap="butt" d="m13.387523 12.119092l2.6325674 -0.4515276l2.6325665 0.4515276z" fill-rule="evenodd"/><path fill="#000000" fill-opacity="0.0" d="m16.069157 11.588272l-2.5959806 0.55433846l-5.5718303 -4.577771z" fill-rule="evenodd"/><path stroke="#4a7882" stroke-width="1.0" stroke-linejoin="round" stroke-linecap="butt" d="m16.069157 11.588272l-2.5959806 0.55433846l-5.5718303 -4.577771z" fill-rule="evenodd"/><path fill="#d4e0fc" d="m24.12782 7.605161l-5.6158752 4.5193067l4.011339 5.9867725z" fill-rule="evenodd"/><path stroke="#4a7882" stroke-width="1.0" stroke-linejoin="round" stroke-linecap="butt" d="m24.12782 7.605161l-5.6158752 4.5193067l4.011339 5.9867725z" fill-rule="evenodd"/><path fill="#8daef6" d="m18.028484 22.110483l5.781166 -2.5317802l-1.3223305 -1.4674644z" fill-rule="evenodd"/><path stroke="#4a7882" stroke-width="1.0" stroke-linejoin="round" stroke-linecap="butt" d="m18.028484 22.110483l5.781166 -2.5317802l-1.3223305 -1.4674644z" fill-rule="evenodd"/><path fill="#8daef6" d="m15.995428 11.588276l2.5810833 0.56178665l5.5222225 -4.552968z" fill-rule="evenodd"/><path stroke="#4a7882" stroke-width="1.0" stroke-linejoin="round" stroke-linecap="butt" d="m15.995428 11.588276l2.5810833 0.56178665l5.5222225 -4.552968z" fill-rule="evenodd"/><path fill="#000000" fill-opacity="0.0" d="m16.02659 24.00394l-6.508235 -5.9174957l3.8797007 -5.967354z" fill-rule="evenodd"/><path stroke="#4a7882" stroke-width="1.0" stroke-linejoin="round" stroke-linecap="butt" d="m16.02659 24.00394l-6.508235 -5.9174957l3.8797007 -5.967354z" fill-rule="evenodd"/><path fill="#8de2f6" d="m16.08643 24.04762l6.4565487 -5.9493256l-3.81995 -5.9758396z" fill-rule="evenodd"/><path stroke="#4a7882" stroke-width="1.0" stroke-linejoin="round" stroke-linecap="butt" d="m16.08643 24.04762l6.4565487 -5.9493256l-3.81995 -5.9758396z" fill-rule="evenodd"/><path fill="#d4f4fc" d="m16.04159 12.115061l2.6204739 0l-2.6204739 11.852598z" fill-rule="evenodd"/><path stroke="#4a7882" stroke-width="1.0" stroke-linejoin="round" stroke-linecap="butt" d="m16.04159 12.115061l2.6204739 0l-2.6204739 11.852598z" fill-rule="evenodd"/><path fill="#000000" fill-opacity="0.0" d="m16.04428 12.115061l-2.620473 0l2.620473 11.852598z" fill-rule="evenodd"/><path stroke="#4a7882" stroke-width="1.0" stroke-linejoin="round" stroke-linecap="butt" d="m16.04428 12.115061l-2.620473 0l2.620473 11.852598z" fill-rule="evenodd"/><path fill="#000000" fill-opacity="0.0" d="m9.472918 18.11103l6.5713387 1.2739525" fill-rule="evenodd"/><path stroke="#4a7882" stroke-width="1.0" stroke-linejoin="round" stroke-linecap="butt" d="m9.472918 18.11103l6.5713387 1.2739525" fill-rule="evenodd"/><path fill="#000000" fill-opacity="0.0" d="m22.592077 18.11103l-6.5713387 1.2739525" fill-rule="evenodd"/><path stroke="#4a7882" stroke-width="1.0" stroke-linejoin="round" stroke-linecap="butt" d="m22.592077 18.11103l-6.5713387 1.2739525" fill-rule="evenodd"/></g></svg>