<svg version="1.1" viewBox="0.0 0.0 64.0 64.0" fill="none" stroke="none" stroke-linecap="square" stroke-miterlimit="10" xmlns:xlink="http://www.w3.org/1999/xlink" xmlns="http://www.w3.org/2000/svg"><clipPath id="p.0"><path d="m0 0l64.0 0l0 64.0l-64.0 0l0 -64.0z" clip-rule="nonzero"/></clipPath><g clip-path="url(#p.0)"><path fill="#000000" fill-opacity="0.0" d="m0 0l64.0 0l0 64.0l-64.0 0z" fill-rule="evenodd"/><defs><radialGradient id="p.1" gradientUnits="userSpaceOnUse" gradientTransform="matrix(6.72717056866467 0.0 0.0 6.72717056866467 0.0 0.0)" spreadMethod="pad" cx="4.756828992720477" cy="4.756828862898925" fx="4.756828992720477" fy="4.756828862898925" r="6.727170467376709"><stop offset="0.0" stop-color="#fdfdfd"/><stop offset="0.52" stop-color="#fdfdfd"/><stop offset="1.0" stop-color="#080808"/></radialGradient></defs><path fill="url(#p.1)" d="m0 32.0l16.0 -31.999985l32.0 0l16.0 31.999985l-16.0 31.999985l-32.0 0z" fill-rule="evenodd"/><path fill="#000000" fill-opacity="0.0" d="m27.76868 44.167217l-11.465574 -5.2086906l2.5317783 -2.8059235z" fill-rule="evenodd"/><path stroke="#4a7882" stroke-width="1.0" stroke-linejoin="round" stroke-linecap="butt" d="m27.76868 44.167217l-11.465574 -5.2086906l2.5317783 -2.8059235z" fill-rule="evenodd"/><path fill="#000000" fill-opacity="0.0" d="m15.751028 15.210322l11.231749 9.038613l-8.022678 11.973545z" fill-rule="evenodd"/><path stroke="#4a7882" stroke-width="1.0" stroke-linejoin="round" stroke-linecap="butt" d="m15.751028 15.210322l11.231749 9.038613l-8.022678 11.973545z" fill-rule="evenodd"/><path fill="#000000" fill-opacity="0.0" d="m26.775045 24.238184l5.265135 -0.9030552l5.265133 0.9030552z" fill-rule="evenodd"/><path stroke="#4a7882" stroke-width="1.0" stroke-linejoin="round" stroke-linecap="butt" d="m26.775045 24.238184l5.265135 -0.9030552l5.265133 0.9030552z" fill-rule="evenodd"/><path fill="#000000" fill-opacity="0.0" d="m32.138313 23.176544l-5.1919613 1.1086769l-11.143661 -9.155542z" fill-rule="evenodd"/><path stroke="#4a7882" stroke-width="1.0" stroke-linejoin="round" stroke-linecap="butt" d="m32.138313 23.176544l-5.1919613 1.1086769l-11.143661 -9.155542z" fill-rule="evenodd"/><path fill="#d4e0fc" d="m48.25564 15.210322l-11.2317505 9.038613l8.022678 11.973545z" fill-rule="evenodd"/><path stroke="#4a7882" stroke-width="1.0" stroke-linejoin="round" stroke-linecap="butt" d="m48.25564 15.210322l-11.2317505 9.038613l8.022678 11.973545z" fill-rule="evenodd"/><path fill="#8daef6" d="m36.05697 44.220966l11.562332 -5.0635605l-2.644661 -2.934929z" fill-rule="evenodd"/><path stroke="#4a7882" stroke-width="1.0" stroke-linejoin="round" stroke-linecap="butt" d="m36.05697 44.220966l11.562332 -5.0635605l-2.644661 -2.934929z" fill-rule="evenodd"/><path fill="#8daef6" d="m31.990856 23.176552l5.1621666 1.1235733l11.044445 -9.105936z" fill-rule="evenodd"/><path stroke="#4a7882" stroke-width="1.0" stroke-linejoin="round" stroke-linecap="butt" d="m31.990856 23.176552l5.1621666 1.1235733l11.044445 -9.105936z" fill-rule="evenodd"/><path fill="#000000" fill-opacity="0.0" d="m32.05318 48.00788l-13.01647 -11.834991l7.7594013 -11.93471z" fill-rule="evenodd"/><path stroke="#4a7882" stroke-width="1.0" stroke-linejoin="round" stroke-linecap="butt" d="m32.05318 48.00788l-13.01647 -11.834991l7.7594013 -11.93471z" fill-rule="evenodd"/><path fill="#8de2f6" d="m32.17286 48.09524l12.913097 -11.898651l-7.6399 -11.951679z" fill-rule="evenodd"/><path stroke="#4a7882" stroke-width="1.0" stroke-linejoin="round" stroke-linecap="butt" d="m32.17286 48.09524l12.913097 -11.898651l-7.6399 -11.951679z" fill-rule="evenodd"/><path fill="#d4f4fc" d="m32.08318 24.230122l5.2409477 0l-5.2409477 23.705196z" fill-rule="evenodd"/><path stroke="#4a7882" stroke-width="1.0" stroke-linejoin="round" stroke-linecap="butt" d="m32.08318 24.230122l5.2409477 0l-5.2409477 23.705196z" fill-rule="evenodd"/><path fill="#000000" fill-opacity="0.0" d="m32.08856 24.230122l-5.240946 0l5.240946 23.705196z" fill-rule="evenodd"/><path stroke="#4a7882" stroke-width="1.0" stroke-linejoin="round" stroke-linecap="butt" d="m32.08856 24.230122l-5.240946 0l5.240946 23.705196z" fill-rule="evenodd"/><path fill="#000000" fill-opacity="0.0" d="m18.945835 36.22206l13.142677 2.547905" fill-rule="evenodd"/><path stroke="#4a7882" stroke-width="1.0" stroke-linejoin="round" stroke-linecap="butt" d="m18.945835 36.22206l13.142677 2.547905" fill-rule="evenodd"/><path fill="#000000" fill-opacity="0.0" d="m45.184155 36.22206l-13.142677 2.547905" fill-rule="evenodd"/><path stroke="#4a7882" stroke-width="1.0" stroke-linejoin="round" stroke-linecap="butt" d="m45.184155 36.22206l-13.142677 2.547905" fill-rule="evenodd"/></g></svg>