<svg version="1.1" viewBox="0.0 0.0 1434.5013123359581 256.0" fill="none" stroke="none" stroke-linecap="square" stroke-miterlimit="10" xmlns:xlink="http://www.w3.org/1999/xlink" xmlns="http://www.w3.org/2000/svg"><clipPath id="p.0"><path d="m0 0l1434.5013 0l0 256.0l-1434.5013 0l0 -256.0z" clip-rule="nonzero"/></clipPath><g clip-path="url(#p.0)"><path fill="#000000" fill-opacity="0.0" d="m0 0l1434.5013 0l0 256.0l-1434.5013 0z" fill-rule="evenodd"/><defs><linearGradient id="p.1" gradientUnits="userSpaceOnUse" gradientTransform="matrix(37.86840038913046 0.0 0.0 37.86840038913046 0.0 0.0)" spreadMethod="pad" x1="0.0" y1="6.75359844493784" x2="37.868400389130464" y2="6.75359844493784"><stop offset="0.0" stop-color="#080808"/><stop offset="1.0" stop-color="#828282"/></linearGradient></defs><path fill="url(#p.1)" d="m0 127.874016l63.937008 -127.873955l1306.1417 0l63.93701 127.873955l-63.93701 127.873955l-1306.1417 0z" fill-rule="evenodd"/><path fill="#000000" fill-opacity="0.0" d="m111.074745 176.49574l-45.862297 -20.814423l10.127121 -11.212723z" fill-rule="evenodd"/><path stroke="#4a7882" stroke-width="2.0" stroke-linejoin="round" stroke-linecap="butt" d="m111.074745 176.49574l-45.862297 -20.814423l10.127121 -11.212723z" fill-rule="evenodd"/><path fill="#000000" fill-opacity="0.0" d="m63.004135 60.781277l44.926994 36.119152l-32.090706 47.847404z" fill-rule="evenodd"/><path stroke="#4a7882" stroke-width="2.0" stroke-linejoin="round" stroke-linecap="butt" d="m63.004135 60.781277l44.926994 36.119152l-32.090706 47.847404z" fill-rule="evenodd"/><path fill="#000000" fill-opacity="0.0" d="m107.100204 96.85746l21.060532 -3.608696l21.060532 3.608696z" fill-rule="evenodd"/><path stroke="#4a7882" stroke-width="2.0" stroke-linejoin="round" stroke-linecap="butt" d="m107.100204 96.85746l21.060532 -3.608696l21.060532 3.608696z" fill-rule="evenodd"/><path fill="#000000" fill-opacity="0.0" d="m128.55328 92.61504l-20.767853 4.430382l-44.574642 -36.58641z" fill-rule="evenodd"/><path stroke="#4a7882" stroke-width="2.0" stroke-linejoin="round" stroke-linecap="butt" d="m128.55328 92.61504l-20.767853 4.430382l-44.574642 -36.58641z" fill-rule="evenodd"/><path fill="#d4e0fc" d="m193.02257 60.781277l-44.926987 36.119152l32.090714 47.847404z" fill-rule="evenodd"/><path stroke="#4a7882" stroke-width="2.0" stroke-linejoin="round" stroke-linecap="butt" d="m193.02257 60.781277l-44.926987 36.119152l32.090714 47.847404z" fill-rule="evenodd"/><path fill="#8daef6" d="m144.2279 176.71053l46.24933 -20.234451l-10.578659 -11.728256z" fill-rule="evenodd"/><path stroke="#4a7882" stroke-width="2.0" stroke-linejoin="round" stroke-linecap="butt" d="m144.2279 176.71053l46.24933 -20.234451l-10.578659 -11.728256z" fill-rule="evenodd"/><path fill="#8daef6" d="m127.96345 92.615074l20.648659 4.4899063l44.177795 -36.388176z" fill-rule="evenodd"/><path stroke="#4a7882" stroke-width="2.0" stroke-linejoin="round" stroke-linecap="butt" d="m127.96345 92.615074l20.648659 4.4899063l44.177795 -36.388176z" fill-rule="evenodd"/><path fill="#000000" fill-opacity="0.0" d="m128.21275 191.8434l-52.06588 -47.293747l31.037598 -47.692207z" fill-rule="evenodd"/><path stroke="#4a7882" stroke-width="2.0" stroke-linejoin="round" stroke-linecap="butt" d="m128.21275 191.8434l-52.06588 -47.293747l31.037598 -47.692207z" fill-rule="evenodd"/><path fill="#8de2f6" d="m128.69147 192.19249l51.652374 -47.54811l-30.559586 -47.76004z" fill-rule="evenodd"/><path stroke="#4a7882" stroke-width="2.0" stroke-linejoin="round" stroke-linecap="butt" d="m128.69147 192.19249l51.652374 -47.54811l-30.559586 -47.76004z" fill-rule="evenodd"/><path fill="#d4f4fc" d="m128.33275 96.82524l20.963776 0l-20.963776 94.72818z" fill-rule="evenodd"/><path stroke="#4a7882" stroke-width="2.0" stroke-linejoin="round" stroke-linecap="butt" d="m128.33275 96.82524l20.963776 0l-20.963776 94.72818z" fill-rule="evenodd"/><path fill="#000000" fill-opacity="0.0" d="m128.35425 96.82524l-20.963776 0l20.963776 94.72818z" fill-rule="evenodd"/><path stroke="#4a7882" stroke-width="2.0" stroke-linejoin="round" stroke-linecap="butt" d="m128.35425 96.82524l-20.963776 0l20.963776 94.72818z" fill-rule="evenodd"/><path fill="#000000" fill-opacity="0.0" d="m75.78337 144.74615l52.57071 10.181671" fill-rule="evenodd"/><path stroke="#4a7882" stroke-width="2.0" stroke-linejoin="round" stroke-linecap="butt" d="m75.78337 144.74615l52.57071 10.181671" fill-rule="evenodd"/><path fill="#000000" fill-opacity="0.0" d="m180.73665 144.74615l-52.57071 10.181671" fill-rule="evenodd"/><path stroke="#4a7882" stroke-width="2.0" stroke-linejoin="round" stroke-linecap="butt" d="m180.73665 144.74615l-52.57071 10.181671" fill-rule="evenodd"/><path fill="#000000" fill-opacity="0.0" d="m223.6277 53.927647l1173.9843 0l0 147.87402l-1173.9843 0z" fill-rule="evenodd"/><path fill="#fdfdfd" d="m297.9871 131.11964q1.28125 2.4375 2.46875 5.0625q1.1875 2.625 2.265625 5.375q1.09375 -2.828125 2.296875 -5.46875q1.21875 -2.65625 2.5 -5.15625l23.9375 -47.109375q0.640625 -1.21875 1.3125 -1.890625q0.671875 -0.671875 1.5 -0.984375q0.84375 -0.328125 1.890625 -0.390625q1.0625 -0.0625 2.46875 -0.0625l16.515625 0l0 93.25l-19.078125 0l0 -53.625q0 -3.90625 0.390625 -8.453125l-24.703125 47.9375q-1.15625 2.234375 -3.109375 3.390625q-1.953125 1.15625 -4.453125 1.15625l-2.9375 0q-2.5 0 -4.453125 -1.15625q-1.953125 -1.15625 -3.09375 -3.390625l-24.84375 -48.0q0.265625 2.234375 0.390625 4.453125q0.125 2.203125 0.125 4.0625l0 53.625l-19.062515 0l0 -93.25l16.500015 0q1.40625 0 2.46875 0.0625q1.0625 0.0625 1.890625 0.390625q0.828125 0.3125 1.5 0.984375q0.671875 0.671875 1.3125 1.890625l24.0 47.296875l0 0zm118.33243 42.625q-2.8125 0 -4.25 -0.765625q-1.4375 -0.765625 -2.40625 -3.203125l-1.40625 -3.640625q-2.5 2.109375 -4.8125 3.71875q-2.296875 1.59375 -4.765625 2.71875q-2.453125 1.109375 -5.234375 1.65625q-2.78125 0.546875 -6.171875 0.546875q-4.546875 0 -8.265625 -1.1875q-3.703125 -1.1875 -6.296875 -3.484375q-2.59375 -2.3125 -4.0 -5.734375q-1.40625 -3.421875 -1.40625 -7.90625q0 -3.515625 1.78125 -7.21875q1.796875 -3.71875 6.203125 -6.75q4.421875 -3.046875 11.90625 -5.09375q7.5 -2.0625 18.890625 -2.3125l0 -2.8125q0 -5.828125 -2.40625 -8.421875q-2.390625 -2.59375 -6.8125 -2.59375q-3.515625 0 -5.765625 0.78125q-2.234375 0.765625 -4.0 1.71875q-1.75 0.953125 -3.421875 1.734375q-1.65625 0.765625 -3.96875 0.765625q-2.046875 0 -3.484375 -0.984375q-1.4375 -1.0 -2.265625 -2.46875l-3.59375 -6.21875q6.015625 -5.3125 13.34375 -7.890625q7.328125 -2.59375 15.71875 -2.59375q6.015625 0 10.84375 1.953125q4.828125 1.9375 8.1875 5.4375q3.375 3.484375 5.15625 8.28125q1.796875 4.796875 1.796875 10.5l0 41.46875l-9.09375 0zm-22.78125 -12.09375q3.84375 0 6.71875 -1.34375q2.875 -1.34375 5.828125 -4.359375l0 -9.21875q-5.953125 0.265625 -9.796875 1.03125q-3.84375 0.765625 -6.078125 1.921875q-2.234375 1.15625 -3.109375 2.625q-0.859375 1.46875 -0.859375 3.203125q0 3.390625 1.859375 4.765625q1.859375 1.375 5.4375 1.375zm45.960632 12.09375l0 -66.375l11.765625 0q1.46875 0 2.453125 0.265625q1.0 0.25 1.671875 0.796875q0.671875 0.546875 1.015625 1.453125q0.359375 0.890625 0.625 2.15625l1.078125 6.21875q3.65625 -5.640625 8.203125 -8.890625q4.546875 -3.265625 9.921875 -3.265625q4.53125 0 7.296875 2.171875l-2.5625 14.59375q-0.265625 1.34375 -1.03125 1.890625q-0.765625 0.53125 -2.046875 0.53125q-1.09375 0 -2.5625 -0.28125q-1.46875 -0.296875 -3.703125 -0.296875q-7.8125 0 -12.296875 8.328125l0 40.703125l-19.828125 0zm52.863922 0l0 -95.8125l19.828094 0l0 36.484375q3.71875 -3.640625 8.421875 -5.84375q4.703125 -2.21875 11.03125 -2.21875q5.1875 0 9.59375 2.25q4.421875 2.234375 7.625 6.5625q3.203125 4.3125 5.03125 10.578125q1.828125 6.265625 1.828125 14.265625q0 7.5 -2.09375 13.84375q-2.078125 6.328125 -5.828125 11.0q-3.734375 4.671875 -8.953125 7.296875q-5.21875 2.625 -11.546875 2.625q-2.9375 0 -5.28125 -0.578125q-2.328125 -0.578125 -4.28125 -1.625q-1.953125 -1.0625 -3.59375 -2.53125q-1.625 -1.484375 -3.1718445 -3.203125l-0.703125 3.328125q-0.4375 2.046875 -1.625 2.8125q-1.1875 0.765625 -3.109375 0.765625l-13.171875 0zm32.37497 -52.484375q-2.171875 0 -3.9375 0.421875q-1.75 0.421875 -3.265625 1.1875q-1.5 0.765625 -2.78125 1.953125q-1.28125 1.171875 -2.5625 2.71875l0 28.15625q2.25 2.5 4.875 3.5q2.625 0.984375 5.5 0.984375q2.75 0 5.046875 -1.09375q2.3125 -1.09375 4.0 -3.484375q1.703125 -2.40625 2.65625 -6.234375q0.96875 -3.84375 0.96875 -9.359375q0 -5.234375 -0.765625 -8.8125q-0.765625 -3.59375 -2.15625 -5.796875q-1.375 -2.21875 -3.296875 -3.171875q-1.90625 -0.96875 -4.28125 -0.96875zm62.33362 -43.328125l0 95.8125l-19.84375 0l0 -95.8125l19.84375 0zm44.41742 28.421875q6.59375 0 12.0625 2.046875q5.46875 2.046875 9.40625 5.953125q3.9375 3.90625 6.140625 9.578125q2.21875 5.65625 2.21875 12.828125q0 2.234375 -0.203125 3.640625q-0.1875 1.40625 -0.703125 2.25q-0.5 0.828125 -1.375 1.15625q-0.859375 0.3125 -2.203125 0.3125l-38.265625 0q0.953125 8.3125 5.046875 12.0625q4.09375 3.734375 10.5625 3.734375q3.453125 0 5.953125 -0.828125q2.5 -0.828125 4.453125 -1.84375q1.953125 -1.03125 3.578125 -1.859375q1.640625 -0.84375 3.421875 -0.84375q2.375 0 3.59375 1.734375l5.75 7.09375q-3.0625 3.53125 -6.625 5.734375q-3.546875 2.203125 -7.296875 3.453125q-3.734375 1.25 -7.484375 1.734375q-3.734375 0.484375 -7.140625 0.484375q-6.96875 0 -13.078125 -2.265625q-6.109375 -2.28125 -10.6875 -6.765625q-4.578125 -4.484375 -7.234375 -11.140625q-2.65625 -6.65625 -2.65625 -15.484375q0 -6.65625 2.265625 -12.609375q2.28125 -5.953125 6.53125 -10.421875q4.265625 -4.484375 10.3125 -7.109375q6.046875 -2.625 13.65625 -2.625zm0.390625 13.6875q-5.703125 0 -8.90625 3.234375q-3.1875 3.234375 -4.21875 9.3125l24.765625 0q0 -2.359375 -0.609375 -4.59375q-0.609375 -2.25 -1.984375 -4.0q-1.375 -1.765625 -3.609375 -2.859375q-2.234375 -1.09375 -5.4375 -1.09375zm125.57025 -39.546875l0 16.640625l-38.28125 0l0 23.625l31.875 0l0 16.703125l-31.875 0l0 36.28125l-21.75 0l0 -93.25l60.03125 0zm36.98712 25.859375q7.546875 0 13.75 2.375q6.21875 2.359375 10.65625 6.78125q4.453125 4.40625 6.921875 10.71875q2.46875 6.296875 2.46875 14.171875q0 7.9375 -2.46875 14.3125q-2.46875 6.359375 -6.921875 10.8125q-4.4375 4.4375 -10.65625 6.84375q-6.203125 2.40625 -13.75 2.40625q-7.625 0 -13.859375 -2.40625q-6.234375 -2.40625 -10.75 -6.84375q-4.515625 -4.453125 -6.984375 -10.8125q-2.453125 -6.375 -2.453125 -14.3125q0 -7.875 2.453125 -14.171875q2.46875 -6.3125 6.984375 -10.71875q4.515625 -4.421875 10.75 -6.78125q6.234375 -2.375 13.859375 -2.375zm0 53.6875q6.84375 0 10.078125 -4.828125q3.234375 -4.828125 3.234375 -14.6875q0 -9.859375 -3.234375 -14.65625q-3.234375 -4.796875 -10.078125 -4.796875q-7.046875 0 -10.3125 4.796875q-3.25 4.796875 -3.25 14.65625q0 9.859375 3.25 14.6875q3.265625 4.828125 10.3125 4.828125zm56.696716 -20.59375l-21.375 -32.078125l19.078125 0q2.109375 0 3.09375 0.546875q1.0 0.546875 1.765625 1.828125l11.84375 19.640625q0.375 -1.140625 0.953125 -2.234375q0.578125 -1.09375 1.28125 -2.296875l8.453125 -14.796875q0.828125 -1.46875 1.84375 -2.078125q1.03125 -0.609375 2.5 -0.609375l18.1875 0l-21.375 31.171875l22.265625 35.203125l-19.078125 0q-2.109375 0 -3.390625 -1.015625q-1.28125 -1.03125 -2.109375 -2.4375l-11.84375 -20.359375q-0.3125 1.09375 -0.765625 2.0625q-0.4375 0.953125 -0.953125 1.78125l-9.734375 16.515625q-0.765625 1.34375 -2.046875 2.40625q-1.28125 1.046875 -3.203125 1.046875l-17.65625 0l22.265625 -34.296875zm134.1416 -40.0q-0.953125 1.53125 -2.015625 2.296875q-1.046875 0.765625 -2.71875 0.765625q-1.46875 0 -3.171875 -0.921875q-1.6875 -0.9375 -3.828125 -2.078125q-2.140625 -1.15625 -4.90625 -2.078125q-2.75 -0.9375 -6.265625 -0.9375q-6.078125 0 -9.0625 2.59375q-2.96875 2.59375 -2.96875 7.015625q0 2.8125 1.78125 4.671875q1.796875 1.84375 4.703125 3.1875q2.921875 1.34375 6.65625 2.46875q3.75 1.125 7.65625 2.5q3.90625 1.375 7.640625 3.234375q3.75 1.84375 6.65625 4.734375q2.921875 2.875 4.703125 7.0q1.796875 4.125 1.796875 9.953125q0 6.46875 -2.234375 12.109375q-2.234375 5.625 -6.5 9.8125q-4.25 4.1875 -10.5 6.59375q-6.234375 2.40625 -14.171875 2.40625q-4.34375 0 -8.859375 -0.90625q-4.515625 -0.890625 -8.734375 -2.515625q-4.21875 -1.640625 -7.9375 -3.875q-3.71875 -2.25 -6.46875 -5.0l6.40625 -10.109375q0.703125 -1.15625 1.984375 -1.859375q1.28125 -0.703125 2.75 -0.703125q1.921875 0 3.875 1.21875q1.953125 1.21875 4.40625 2.6875q2.46875 1.46875 5.671875 2.6875q3.203125 1.21875 7.546875 1.21875q5.890625 0 9.15625 -2.59375q3.265625 -2.59375 3.265625 -8.21875q0 -3.265625 -1.796875 -5.3125q-1.78125 -2.046875 -4.703125 -3.390625q-2.90625 -1.34375 -6.625 -2.375q-3.703125 -1.03125 -7.609375 -2.265625q-3.90625 -1.25 -7.625 -3.078125q-3.703125 -1.828125 -6.625 -4.796875q-2.90625 -2.984375 -4.703125 -7.421875q-1.78125 -4.453125 -1.78125 -10.984375q0 -5.25 2.109375 -10.234375q2.109375 -5.0 6.203125 -8.890625q4.09375 -3.90625 10.046875 -6.234375q5.953125 -2.34375 13.640625 -2.34375q4.28125 0 8.34375 0.671875q4.0625 0.671875 7.703125 1.984375q3.65625 1.3125 6.828125 3.140625q3.171875 1.8125 5.671875 4.109375l-5.390625 10.0625zm40.70398 75.328125q-4.734375 0 -8.34375 -1.375q-3.609375 -1.390625 -6.078125 -3.90625q-2.46875 -2.53125 -3.75 -6.109375q-1.28125 -3.59375 -1.28125 -8.015625l0 -34.296875l-5.625 0q-1.53125 0 -2.625 -0.984375q-1.09375 -1.0 -1.09375 -2.921875l0 -7.734375l10.5625 -2.0625l3.90625 -16.1875q0.765625 -3.0625 4.34375 -3.0625l10.375 0l0 19.390625l16.125 0l0 13.5625l-16.125 0l0 32.953125q0 2.3125 1.109375 3.8125q1.125 1.5 3.25 1.5q1.078125 0 1.8125 -0.21875q0.734375 -0.21875 1.28125 -0.5q0.546875 -0.296875 1.015625 -0.515625q0.484375 -0.234375 1.125 -0.234375q0.90625 0 1.4375 0.421875q0.546875 0.40625 1.125 1.3125l6.015625 9.40625q-3.828125 2.875 -8.640625 4.328125q-4.796875 1.4375 -9.921875 1.4375zm46.465576 -67.40625l0 42.125q0 4.921875 2.234375 7.609375q2.25 2.6875 6.609375 2.6875q3.25 0 6.09375 -1.34375q2.859375 -1.34375 5.546875 -3.78125l0 -47.296875l19.84375 0l0 66.375l-12.296875 0q-3.703125 0 -4.859375 -3.328125l-1.21875 -3.84375q-1.921875 1.859375 -3.96875 3.375q-2.046875 1.5 -4.390625 2.5625q-2.328125 1.046875 -5.015625 1.65625q-2.6875 0.609375 -5.890625 0.609375q-5.4375 0 -9.625 -1.890625q-4.1875 -1.890625 -7.078125 -5.28125q-2.875 -3.390625 -4.34375 -8.0q-1.46875 -4.609375 -1.46875 -10.109375l0 -42.125l19.828125 0zm102.27112 66.375q-1.84375 0 -3.09375 -0.828125q-1.25 -0.828125 -1.765625 -2.5l-1.53125 -5.0625q-1.984375 2.125 -4.171875 3.859375q-2.171875 1.71875 -4.703125 2.96875q-2.515625 1.25 -5.4375 1.921875q-2.90625 0.671875 -6.296875 0.671875q-5.1875 0 -9.609375 -2.296875q-4.40625 -2.3125 -7.609375 -6.65625q-3.203125 -4.359375 -5.03125 -10.65625q-1.8125 -6.3125 -1.8125 -14.375q0 -7.4375 2.046875 -13.796875q2.046875 -6.375 5.78125 -11.015625q3.75 -4.640625 9.0 -7.25q5.25 -2.625 11.578125 -2.625q5.125 0 8.671875 1.5q3.5625 1.5 6.4375 3.9375l0 -33.609375l19.84375 0l0 95.8125l-12.296875 0zm-20.09375 -14.203125q2.1875 0 3.9375 -0.421875q1.765625 -0.421875 3.234375 -1.1875q1.46875 -0.765625 2.78125 -1.90625q1.3125 -1.15625 2.59375 -2.703125l0 -28.15625q-2.296875 -2.5 -4.890625 -3.484375q-2.59375 -1.0 -5.46875 -1.0q-2.765625 0 -5.078125 1.09375q-2.296875 1.09375 -4.0 3.5q-1.6875 2.390625 -2.640625 6.234375q-0.953125 3.828125 -0.953125 9.28125q0 5.234375 0.765625 8.828125q0.765625 3.578125 2.140625 5.796875q1.375 2.203125 3.296875 3.171875q1.921875 0.953125 4.28125 0.953125zm68.22424 -52.171875l0 66.375l-19.84375 0l0 -66.375l19.84375 0zm2.3125 -18.171875q0 2.375 -0.96875 4.453125q-0.953125 2.078125 -2.625 3.65625q-1.65625 1.5625 -3.875 2.484375q-2.203125 0.921875 -4.703125 0.921875q-2.421875 0 -4.546875 -0.921875q-2.109375 -0.921875 -3.734375 -2.484375q-1.625 -1.578125 -2.5625 -3.65625q-0.921875 -2.078125 -0.921875 -4.453125q0 -2.421875 0.921875 -4.53125q0.9375 -2.125 2.5625 -3.71875q1.625 -1.609375 3.734375 -2.5q2.125 -0.890625 4.546875 -0.890625q2.5 0 4.703125 0.890625q2.21875 0.890625 3.875 2.5q1.671875 1.59375 2.625 3.71875q0.96875 2.109375 0.96875 4.53125zm43.26111 17.15625q7.546875 0 13.75 2.375q6.21875 2.359375 10.65625 6.78125q4.453125 4.40625 6.921875 10.71875q2.46875 6.296875 2.46875 14.171875q0 7.9375 -2.46875 14.3125q-2.46875 6.359375 -6.921875 10.8125q-4.4375 4.4375 -10.65625 6.84375q-6.203125 2.40625 -13.75 2.40625q-7.625 0 -13.859375 -2.40625q-6.234375 -2.40625 -10.749878 -6.84375q-4.515625 -4.453125 -6.984375 -10.8125q-2.453125 -6.375 -2.453125 -14.3125q0 -7.875 2.453125 -14.171875q2.46875 -6.3125 6.984375 -10.71875q4.515503 -4.421875 10.749878 -6.78125q6.234375 -2.375 13.859375 -2.375zm0 53.6875q6.84375 0 10.078125 -4.828125q3.234375 -4.828125 3.234375 -14.6875q0 -9.859375 -3.234375 -14.65625q-3.234375 -4.796875 -10.078125 -4.796875q-7.046875 0 -10.3125 4.796875q-3.25 4.796875 -3.25 14.65625q0 9.859375 3.25 14.6875q3.265625 4.828125 10.3125 4.828125zm85.23999 -38.140625q-0.765625 1.21875 -1.625 1.734375q-0.859375 0.515625 -2.203125 0.515625q-1.40625 0 -2.828125 -0.609375q-1.40625 -0.609375 -3.046875 -1.3125q-1.625 -0.703125 -3.671875 -1.3125q-2.046875 -0.609375 -4.671875 -0.609375q-3.765625 0 -5.78125 1.4375q-2.015625 1.4375 -2.015625 4.0q0 1.859375 1.3125 3.078125q1.3125 1.203125 3.484375 2.140625q2.171875 0.921875 4.921875 1.765625q2.75 0.828125 5.625 1.859375q2.890625 1.015625 5.640625 2.390625q2.75 1.375 4.921875 3.390625q2.1875 2.015625 3.5 4.90625q1.3125 2.875 1.3125 6.90625q0 4.921875 -1.796875 9.09375q-1.796875 4.15625 -5.34375 7.171875q-3.546875 3.0 -8.765625 4.671875q-5.21875 1.65625 -12.0 1.65625q-3.390625 0 -6.78125 -0.640625q-3.390625 -0.640625 -6.5625 -1.734375q-3.171875 -1.09375 -5.859375 -2.59375q-2.6875 -1.5 -4.609375 -3.234375l4.609375 -7.296875q0.828125 -1.28125 1.984375 -2.015625q1.15625 -0.734375 3.015625 -0.734375q1.71875 0 3.09375 0.765625q1.375 0.765625 2.96875 1.671875q1.609375 0.890625 3.75 1.65625q2.140625 0.765625 5.40625 0.765625q2.3125 0 3.90625 -0.46875q1.609375 -0.484375 2.5625 -1.3125q0.953125 -0.828125 1.40625 -1.859375q0.453125 -1.03125 0.453125 -2.109375q0 -1.984375 -1.34375 -3.265625q-1.34375 -1.28125 -3.53125 -2.203125q-2.171875 -0.9375 -4.953125 -1.734375q-2.78125 -0.796875 -5.671875 -1.8125q-2.875 -1.03125 -5.65625 -2.46875q-2.78125 -1.453125 -4.96875 -3.65625q-2.171875 -2.203125 -3.515625 -5.40625q-1.34375 -3.203125 -1.34375 -7.75q0 -4.21875 1.625 -8.015625q1.640625 -3.8125 4.90625 -6.6875q3.265625 -2.890625 8.1875 -4.578125q4.9375 -1.703125 11.53125 -1.703125q3.578125 0 6.9375 0.640625q3.359375 0.640625 6.296875 1.796875q2.953125 1.140625 5.375 2.71875q2.4375 1.5625 4.296875 3.421875l-4.484375 6.96875z" fill-rule="nonzero"/></g></svg>