<svg version="1.1" viewBox="0.0 0.0 16.0 16.0" fill="none" stroke="none" stroke-linecap="square" stroke-miterlimit="10" xmlns:xlink="http://www.w3.org/1999/xlink" xmlns="http://www.w3.org/2000/svg"><clipPath id="p.0"><path d="m0 0l16.0 0l0 16.0l-16.0 0l0 -16.0z" clip-rule="nonzero"/></clipPath><g clip-path="url(#p.0)"><path fill="#000000" fill-opacity="0.0" d="m0 0l16.0 0l0 16.0l-16.0 0z" fill-rule="evenodd"/><defs><radialGradient id="p.1" gradientUnits="userSpaceOnUse" gradientTransform="matrix(3.363585284332335 0.0 0.0 3.363585284332335 0.0 0.0)" spreadMethod="pad" cx="2.3784144963602385" cy="2.3784144314494626" fx="2.3784144963602385" fy="2.3784144314494626" r="3.3635852336883545"><stop offset="0.0" stop-color="#080808"/><stop offset="0.52" stop-color="#080808"/><stop offset="1.0" stop-color="#fdfdfd"/></radialGradient></defs><path fill="url(#p.1)" d="m0 8.0l4.0 -7.999996l8.0 0l4.0 7.999996l-4.0 7.999996l-8.0 0z" fill-rule="evenodd"/><path fill="#000000" fill-opacity="0.0" d="m6.94217 11.041804l-2.8663936 -1.3021727l0.6329446 -0.70148087z" fill-rule="evenodd"/><path stroke="#828282" stroke-width="1.0" stroke-linejoin="round" stroke-linecap="butt" d="m6.94217 11.041804l-2.8663936 -1.3021727l0.6329446 -0.70148087z" fill-rule="evenodd"/><path fill="#000000" fill-opacity="0.0" d="m3.937757 3.8025804l2.8079371 2.2596536l-2.0056696 2.9933863z" fill-rule="evenodd"/><path stroke="#828282" stroke-width="1.0" stroke-linejoin="round" stroke-linecap="butt" d="m3.937757 3.8025804l2.8079371 2.2596536l-2.0056696 2.9933863z" fill-rule="evenodd"/><path fill="#000000" fill-opacity="0.0" d="m6.6937613 6.059546l1.3162837 -0.2257638l1.3162832 0.2257638z" fill-rule="evenodd"/><path stroke="#828282" stroke-width="1.0" stroke-linejoin="round" stroke-linecap="butt" d="m6.6937613 6.059546l1.3162837 -0.2257638l1.3162832 0.2257638z" fill-rule="evenodd"/><path fill="#000000" fill-opacity="0.0" d="m8.034578 5.794136l-1.2979903 0.27716923l-2.7859151 -2.2888858z" fill-rule="evenodd"/><path stroke="#828282" stroke-width="1.0" stroke-linejoin="round" stroke-linecap="butt" d="m8.034578 5.794136l-1.2979903 0.27716923l-2.7859151 -2.2888858z" fill-rule="evenodd"/><path fill="#e0e0e0" d="m12.06391 3.8025804l-2.8079376 2.2596536l2.0056696 2.9933863z" fill-rule="evenodd"/><path stroke="#828282" stroke-width="1.0" stroke-linejoin="round" stroke-linecap="butt" d="m12.06391 3.8025804l-2.8079376 2.2596536l2.0056696 2.9933863z" fill-rule="evenodd"/><path fill="#acacac" d="m9.014242 11.055242l2.890583 -1.2658901l-0.66116524 -0.7337322z" fill-rule="evenodd"/><path stroke="#828282" stroke-width="1.0" stroke-linejoin="round" stroke-linecap="butt" d="m9.014242 11.055242l2.890583 -1.2658901l-0.66116524 -0.7337322z" fill-rule="evenodd"/><path fill="#acacac" d="m7.997714 5.7941375l1.2905416 0.2808938l2.7611113 -2.2764843z" fill-rule="evenodd"/><path stroke="#828282" stroke-width="1.0" stroke-linejoin="round" stroke-linecap="butt" d="m7.997714 5.7941375l1.2905416 0.2808938l2.7611113 -2.2764843z" fill-rule="evenodd"/><path fill="#000000" fill-opacity="0.0" d="m8.013295 12.00197l-3.2541175 -2.9587479l1.9398503 -2.9836774z" fill-rule="evenodd"/><path stroke="#828282" stroke-width="1.0" stroke-linejoin="round" stroke-linecap="butt" d="m8.013295 12.00197l-3.2541175 -2.9587479l1.9398503 -2.9836774z" fill-rule="evenodd"/><path fill="#cbcbcb" d="m8.043215 12.02381l3.2282743 -2.9746628l-1.909975 -2.9879203z" fill-rule="evenodd"/><path stroke="#828282" stroke-width="1.0" stroke-linejoin="round" stroke-linecap="butt" d="m8.043215 12.02381l3.2282743 -2.9746628l-1.909975 -2.9879203z" fill-rule="evenodd"/><path fill="#ebebeb" d="m8.020795 6.0575304l1.3102369 0l-1.3102369 5.926299z" fill-rule="evenodd"/><path stroke="#828282" stroke-width="1.0" stroke-linejoin="round" stroke-linecap="butt" d="m8.020795 6.0575304l1.3102369 0l-1.3102369 5.926299z" fill-rule="evenodd"/><path fill="#000000" fill-opacity="0.0" d="m8.02214 6.0575304l-1.3102365 0l1.3102365 5.926299z" fill-rule="evenodd"/><path stroke="#828282" stroke-width="1.0" stroke-linejoin="round" stroke-linecap="butt" d="m8.02214 6.0575304l-1.3102365 0l1.3102365 5.926299z" fill-rule="evenodd"/><path fill="#000000" fill-opacity="0.0" d="m4.736459 9.055515l3.2856693 0.63697624" fill-rule="evenodd"/><path stroke="#828282" stroke-width="1.0" stroke-linejoin="round" stroke-linecap="butt" d="m4.736459 9.055515l3.2856693 0.63697624" fill-rule="evenodd"/><path fill="#000000" fill-opacity="0.0" d="m11.296039 9.055515l-3.2856693 0.63697624" fill-rule="evenodd"/><path stroke="#828282" stroke-width="1.0" stroke-linejoin="round" stroke-linecap="butt" d="m11.296039 9.055515l-3.2856693 0.63697624" fill-rule="evenodd"/></g></svg>