<svg version="1.1" viewBox="0.0 0.0 512.0 512.0" fill="none" stroke="none" stroke-linecap="square" stroke-miterlimit="10" xmlns:xlink="http://www.w3.org/1999/xlink" xmlns="http://www.w3.org/2000/svg"><clipPath id="p.0"><path d="m0 0l512.0 0l0 512.0l-512.0 0l0 -512.0z" clip-rule="nonzero"/></clipPath><g clip-path="url(#p.0)"><path fill="#000000" fill-opacity="0.0" d="m0 0l512.0 0l0 512.0l-512.0 0z" fill-rule="evenodd"/><defs><radialGradient id="p.1" gradientUnits="userSpaceOnUse" gradientTransform="matrix(19.027311709205403 0.0 0.0 19.027311709205403 0.0 0.0)" spreadMethod="pad" cx="13.454344150789693" cy="13.454343783598896" fx="13.454344150789693" fy="13.454343783598896" r="19.027311325073242"><stop offset="0.0" stop-color="#080808"/><stop offset="0.52" stop-color="#080808"/><stop offset="1.0" stop-color="#fdfdfd"/></radialGradient></defs><path fill="url(#p.1)" d="m0 256.0l128.0 -255.99988l256.0 0l128.0 255.99988l-128.0 255.99988l-256.0 0z" fill-rule="evenodd"/><path fill="#000000" fill-opacity="0.0" d="m222.14944 353.33774l-91.724594 -41.669525l20.254227 -22.447388z" fill-rule="evenodd"/><path stroke="#828282" stroke-width="3.0" stroke-linejoin="round" stroke-linecap="butt" d="m222.14944 353.33774l-91.724594 -41.669525l20.254227 -22.447388z" fill-rule="evenodd"/><path fill="#000000" fill-opacity="0.0" d="m126.008224 121.68258l89.85399 72.30891l-64.18141 95.78836z" fill-rule="evenodd"/><path stroke="#828282" stroke-width="3.0" stroke-linejoin="round" stroke-linecap="butt" d="m126.008224 121.68258l89.85399 72.30891l-64.18141 95.78836z" fill-rule="evenodd"/><path fill="#000000" fill-opacity="0.0" d="m214.20036 193.90547l42.12108 -7.2244415l42.121063 7.2244415z" fill-rule="evenodd"/><path stroke="#828282" stroke-width="3.0" stroke-linejoin="round" stroke-linecap="butt" d="m214.20036 193.90547l42.12108 -7.2244415l42.121063 7.2244415z" fill-rule="evenodd"/><path fill="#000000" fill-opacity="0.0" d="m257.1065 185.41235l-41.53569 8.869415l-89.149284 -73.24434z" fill-rule="evenodd"/><path stroke="#828282" stroke-width="3.0" stroke-linejoin="round" stroke-linecap="butt" d="m257.1065 185.41235l-41.53569 8.869415l-89.149284 -73.24434z" fill-rule="evenodd"/><path fill="#e0e0e0" d="m386.0451 121.68258l-89.854004 72.30891l64.18143 95.78836z" fill-rule="evenodd"/><path stroke="#828282" stroke-width="3.0" stroke-linejoin="round" stroke-linecap="butt" d="m386.0451 121.68258l-89.854004 72.30891l64.18143 95.78836z" fill-rule="evenodd"/><path fill="#acacac" d="m288.45575 353.76773l92.49866 -40.508484l-21.157288 -23.479431z" fill-rule="evenodd"/><path stroke="#828282" stroke-width="3.0" stroke-linejoin="round" stroke-linecap="butt" d="m288.45575 353.76773l92.49866 -40.508484l-21.157288 -23.479431z" fill-rule="evenodd"/><path fill="#acacac" d="m255.92685 185.41241l41.297333 8.988586l88.35559 -72.84749z" fill-rule="evenodd"/><path stroke="#828282" stroke-width="3.0" stroke-linejoin="round" stroke-linecap="butt" d="m255.92685 185.41241l41.297333 8.988586l88.35559 -72.84749z" fill-rule="evenodd"/><path fill="#000000" fill-opacity="0.0" d="m256.42548 384.06305l-104.131775 -94.67993l62.075195 -95.47768z" fill-rule="evenodd"/><path stroke="#828282" stroke-width="3.0" stroke-linejoin="round" stroke-linecap="butt" d="m256.42548 384.06305l-104.131775 -94.67993l62.075195 -95.47768z" fill-rule="evenodd"/><path fill="#cbcbcb" d="m257.38287 384.76193l103.30478 -95.18921l-61.1192 -95.613434z" fill-rule="evenodd"/><path stroke="#828282" stroke-width="3.0" stroke-linejoin="round" stroke-linecap="butt" d="m257.38287 384.76193l103.30478 -95.18921l-61.1192 -95.613434z" fill-rule="evenodd"/><path fill="#ebebeb" d="m256.66547 193.84097l41.92755 0l-41.92755 189.64157z" fill-rule="evenodd"/><path stroke="#828282" stroke-width="3.0" stroke-linejoin="round" stroke-linecap="butt" d="m256.66547 193.84097l41.92755 0l-41.92755 189.64157z" fill-rule="evenodd"/><path fill="#000000" fill-opacity="0.0" d="m256.70847 193.84097l-41.927567 0l41.927567 189.64157z" fill-rule="evenodd"/><path stroke="#828282" stroke-width="3.0" stroke-linejoin="round" stroke-linecap="butt" d="m256.70847 193.84097l-41.927567 0l41.927567 189.64157z" fill-rule="evenodd"/><path fill="#000000" fill-opacity="0.0" d="m151.56668 289.7765l105.14142 20.38324" fill-rule="evenodd"/><path stroke="#828282" stroke-width="3.0" stroke-linejoin="round" stroke-linecap="butt" d="m151.56668 289.7765l105.14142 20.38324" fill-rule="evenodd"/><path fill="#000000" fill-opacity="0.0" d="m361.47324 289.7765l-105.14142 20.38324" fill-rule="evenodd"/><path stroke="#828282" stroke-width="3.0" stroke-linejoin="round" stroke-linecap="butt" d="m361.47324 289.7765l-105.14142 20.38324" fill-rule="evenodd"/></g></svg>