<svg version="1.1" viewBox="0.0 0.0 2869.0 512.0" fill="none" stroke="none" stroke-linecap="square" stroke-miterlimit="10" xmlns:xlink="http://www.w3.org/1999/xlink" xmlns="http://www.w3.org/2000/svg"><clipPath id="p.0"><path d="m0 0l2869.0 0l0 512.0l-2869.0 0l0 -512.0z" clip-rule="nonzero"/></clipPath><g clip-path="url(#p.0)"><path fill="#000000" fill-opacity="0.0" d="m0 0l2869.0 0l0 512.0l-2869.0 0z" fill-rule="evenodd"/><path fill="#000000" fill-opacity="0.0" d="m222.14943 352.9915l-91.72461 -41.628845l20.254242 -22.425446z" fill-rule="evenodd"/><path stroke="#4a7882" stroke-width="3.0" stroke-linejoin="round" stroke-linecap="butt" d="m222.14943 352.9915l-91.72461 -41.628845l20.254242 -22.425446z" fill-rule="evenodd"/><path fill="#000000" fill-opacity="0.0" d="m126.0082 121.56255l89.85398 72.238304l-64.18141 95.69481z" fill-rule="evenodd"/><path stroke="#4a7882" stroke-width="3.0" stroke-linejoin="round" stroke-linecap="butt" d="m126.0082 121.56255l89.85398 72.238304l-64.18141 95.69481z" fill-rule="evenodd"/><path fill="#000000" fill-opacity="0.0" d="m214.20033 193.71492l42.12108 -7.217392l42.121063 7.217392z" fill-rule="evenodd"/><path stroke="#4a7882" stroke-width="3.0" stroke-linejoin="round" stroke-linecap="butt" d="m214.20033 193.71492l42.12108 -7.217392l42.121063 7.217392z" fill-rule="evenodd"/><path fill="#000000" fill-opacity="0.0" d="m257.10648 185.2301l-41.53569 8.860748l-89.14928 -73.17282z" fill-rule="evenodd"/><path stroke="#4a7882" stroke-width="3.0" stroke-linejoin="round" stroke-linecap="butt" d="m257.10648 185.2301l-41.53569 8.860748l-89.14928 -73.17282z" fill-rule="evenodd"/><path fill="#d4e0fc" d="m386.04507 121.56255l-89.85397 72.238304l64.1814 95.69481z" fill-rule="evenodd"/><path stroke="#4a7882" stroke-width="3.0" stroke-linejoin="round" stroke-linecap="butt" d="m386.04507 121.56255l-89.85397 72.238304l64.1814 95.69481z" fill-rule="evenodd"/><path fill="#8daef6" d="m288.45575 353.42105l92.49863 -40.468903l-21.157288 -23.456512z" fill-rule="evenodd"/><path stroke="#4a7882" stroke-width="3.0" stroke-linejoin="round" stroke-linecap="butt" d="m288.45575 353.42105l92.49863 -40.468903l-21.157288 -23.456512z" fill-rule="evenodd"/><path fill="#8daef6" d="m255.92682 185.23015l41.297333 8.979813l88.35559 -72.77635z" fill-rule="evenodd"/><path stroke="#4a7882" stroke-width="3.0" stroke-linejoin="round" stroke-linecap="butt" d="m255.92682 185.23015l41.297333 8.979813l88.35559 -72.77635z" fill-rule="evenodd"/><path fill="#000000" fill-opacity="0.0" d="m256.42545 383.6868l-104.131775 -94.587494l62.075195 -95.384415z" fill-rule="evenodd"/><path stroke="#4a7882" stroke-width="3.0" stroke-linejoin="round" stroke-linecap="butt" d="m256.42545 383.6868l-104.131775 -94.587494l62.075195 -95.384415z" fill-rule="evenodd"/><path fill="#8de2f6" d="m257.38284 384.38498l103.30478 -95.09622l-61.1192 -95.52008z" fill-rule="evenodd"/><path stroke="#4a7882" stroke-width="3.0" stroke-linejoin="round" stroke-linecap="butt" d="m257.38284 384.38498l103.30478 -95.09622l-61.1192 -95.52008z" fill-rule="evenodd"/><path fill="#d4f4fc" d="m256.66544 193.65048l41.92755 0l-41.92755 189.45636z" fill-rule="evenodd"/><path stroke="#4a7882" stroke-width="3.0" stroke-linejoin="round" stroke-linecap="butt" d="m256.66544 193.65048l41.92755 0l-41.92755 189.45636z" fill-rule="evenodd"/><path fill="#000000" fill-opacity="0.0" d="m256.70844 193.65048l-41.927567 0l41.927567 189.45636z" fill-rule="evenodd"/><path stroke="#4a7882" stroke-width="3.0" stroke-linejoin="round" stroke-linecap="butt" d="m256.70844 193.65048l-41.927567 0l41.927567 189.45636z" fill-rule="evenodd"/><path fill="#000000" fill-opacity="0.0" d="m151.56667 289.4923l105.1414 20.363342" fill-rule="evenodd"/><path stroke="#4a7882" stroke-width="3.0" stroke-linejoin="round" stroke-linecap="butt" d="m151.56667 289.4923l105.1414 20.363342" fill-rule="evenodd"/><path fill="#000000" fill-opacity="0.0" d="m361.47324 289.4923l-105.14142 20.363342" fill-rule="evenodd"/><path stroke="#4a7882" stroke-width="3.0" stroke-linejoin="round" stroke-linecap="butt" d="m361.47324 289.4923l-105.14142 20.363342" fill-rule="evenodd"/><path fill="#000000" fill-opacity="0.0" d="m447.25418 107.85529l2347.9685 0l0 295.77954l-2347.9685 0z" fill-rule="evenodd"/><path fill="#fdfdfd" d="m595.97296 262.75507q2.5625 4.859375 4.921875 10.109375q2.375 5.25 4.546875 10.75q2.1875 -5.625 4.609375 -10.9375q2.4375 -5.3125 5.0 -10.296875l47.859375 -94.218765q1.28125 -2.421875 2.625 -3.765625q1.34375 -1.34375 3.0 -1.984375q1.671875 -0.640625 3.78125 -0.765625q2.125 -0.140625 4.9375 -0.140625l33.03125 0l0 186.50002l-38.15625 0l0 -107.26564q0 -7.8125 0.765625 -16.890625l-49.40625 95.875015q-2.296875 4.46875 -6.203125 6.78125q-3.90625 2.296875 -8.890625 2.296875l-5.890625 0q-5.0 0 -8.90625 -2.296875q-3.890625 -2.3125 -6.203125 -6.78125l-49.65625 -96.000015q0.5 4.46875 0.75 8.890625q0.265625 4.421875 0.265625 8.125l0 107.26564l-38.140656 0l0 -186.50002l33.03128 0q2.8125 0 4.921875 0.140625q2.109375 0.125 3.765625 0.765625q1.671875 0.640625 3.015625 1.984375q1.34375 1.34375 2.625 3.765625l48.0 94.593765l0 0zm236.68091 85.25q-5.640625 0 -8.53125 -1.53125q-2.875 -1.546875 -4.78125 -6.40625l-2.828125 -7.296875q-4.984375 4.21875 -9.59375 7.421875q-4.609375 3.203125 -9.546875 5.453125q-4.921875 2.234375 -10.484375 3.3125q-5.5625 1.09375 -12.359375 1.09375q-9.078125 0 -16.515625 -2.359375q-7.421875 -2.375 -12.609375 -6.984375q-5.171875 -4.609375 -8.0 -11.453125q-2.8125 -6.84375 -2.8125 -15.8125q0 -7.03125 3.578125 -14.453125q3.59375 -7.4375 12.421875 -13.515625q8.84375 -6.078125 23.8125 -10.171875q14.984375 -4.09375 37.765625 -4.609375l0 -5.625q0 -11.656265 -4.8125 -16.82814q-4.796875 -5.1875 -13.625 -5.1875q-7.03125 0 -11.515625 1.53125q-4.484375 1.53125 -8.0 3.453125q-3.515625 1.921875 -6.84375 3.46875q-3.328125 1.53125 -7.9375 1.53125q-4.09375 0 -6.984375 -1.984375q-2.875 -1.984375 -4.546875 -4.9375l-7.15625 -12.40625q12.03125 -10.625 26.6875 -15.8125q14.65625 -5.1875 31.421875 -5.1875q12.03125 0 21.6875 3.90625q9.671875 3.90625 16.390625 10.890625q6.71875 6.96875 10.296875 16.5625q3.59375 9.59375 3.59375 21.000015l0 82.9375l-18.171875 0zm-45.578125 -24.1875q7.6875 0 13.4375 -2.6875q5.765625 -2.6875 11.65625 -8.703125l0 -18.4375q-11.90625 0.515625 -19.59375 2.046875q-7.671875 1.53125 -12.15625 3.84375q-4.484375 2.296875 -6.21875 5.25q-1.71875 2.9375 -1.71875 6.390625q0 6.78125 3.703125 9.546875q3.71875 2.75 10.890625 2.75zm91.90588 24.1875l0 -132.73439l23.546875 0q2.953125 0 4.9375 0.515625q1.984375 0.5 3.328125 1.59375q1.34375 1.09375 2.046875 2.890625q0.703125 1.78125 1.21875 4.34375l2.171875 12.421875q7.296875 -11.265625 16.375 -17.796875q9.09375 -6.53125 19.84375 -6.53125q9.09375 0 14.59375 4.359375l-5.125 29.171875q-0.5 2.6875 -2.046875 3.78125q-1.53125 1.09375 -4.09375 1.09375q-2.171875 0 -5.125 -0.578125q-2.9375 -0.578125 -7.421875 -0.578125q-15.609375 0 -24.5625 16.64064l0 81.40625l-39.6875 0zm105.72803 0l0 -191.60939l39.68744 0l0 72.953125q7.421875 -7.296875 16.828125 -11.703125q9.40625 -4.421875 22.078125 -4.421875q10.359375 0 19.1875 4.484375q8.84375 4.46875 15.234375 13.109375q6.40625 8.640625 10.046875 21.1875q3.65625 12.54689 3.65625 28.54689q0 14.96875 -4.15625 27.640625q-4.15625 12.671875 -11.65625 22.015625q-7.484375 9.34375 -17.921875 14.59375q-10.421875 5.25 -23.09375 5.25q-5.890625 0 -10.5625 -1.15625q-4.671875 -1.140625 -8.578125 -3.25q-3.90625 -2.125 -7.171875 -5.0625q-3.25 -2.953125 -6.328064 -6.40625l-1.40625 6.65625q-0.90625 4.09375 -3.28125 5.640625q-2.359375 1.53125 -6.1875 1.53125l-26.375 0zm64.765564 -104.95314q-4.34375 0 -7.875 0.828125q-3.515625 0.828125 -6.53125 2.375q-3.0 1.53125 -5.5625 3.90625q-2.5625 2.359375 -5.109375 5.421875l0 56.32814q4.46875 4.984375 9.71875 6.96875q5.25 1.984375 11.015625 1.984375q5.5 0 10.109375 -2.171875q4.609375 -2.171875 8.0 -6.96875q3.390625 -4.8125 5.3125 -12.484375q1.921875 -7.6875 1.921875 -18.6875q0 -10.5 -1.546875 -17.65625q-1.53125 -7.1718903 -4.28125 -11.593765q-2.75 -4.421875 -6.59375 -6.328125q-3.84375 -1.921875 -8.578125 -1.921875zm124.6676 -86.65625l0 191.60939l-39.671875 0l0 -191.60939l39.671875 0zm88.83496 56.828125q13.1875 0 24.125 4.09375q10.953125 4.09375 18.828125 11.90625q7.875 7.8125 12.28125 19.140625q4.421875 11.32814 4.421875 25.656265q0 4.484375 -0.390625 7.296875q-0.375 2.8125 -1.40625 4.484375q-1.015625 1.65625 -2.75 2.296875q-1.734375 0.640625 -4.421875 0.640625l-76.53125 0q1.90625 16.640625 10.09375 24.140625q8.203125 7.484375 21.125 7.484375q6.921875 0 11.90625 -1.65625q5.0 -1.671875 8.890625 -3.71875q3.90625 -2.0625 7.171875 -3.71875q3.265625 -1.671875 6.859375 -1.671875q4.734375 0 7.15625 3.46875l11.53125 14.203125q-6.15625 7.03125 -13.265625 11.453125q-7.09375 4.421875 -14.578125 6.921875q-7.484375 2.484375 -14.984375 3.4375q-7.484375 0.96875 -14.265625 0.96875q-13.953125 0 -26.1875 -4.546875q-12.21875 -4.546875 -21.375 -13.5q-9.140625 -8.953125 -14.453125 -22.265625q-5.3125 -13.3125 -5.3125 -30.984375q0 -13.3125 4.546875 -25.218765q4.546875 -11.90625 13.046875 -20.859375q8.515625 -8.953125 20.609375 -14.203125q12.09375 -5.25 27.328125 -5.25zm0.765625 27.390625q-11.390625 0 -17.796875 6.46875q-6.390625 6.453125 -8.4375 18.625015l49.53125 0q0 -4.75 -1.21875 -9.21875q-1.203125 -4.4843903 -3.96875 -8.000015q-2.75 -3.53125 -7.234375 -5.703125q-4.46875 -2.171875 -10.875 -2.171875zm251.14087 -79.109375l0 33.28125l-76.546875 0l0 47.234375l63.75 0l0 33.406265l-63.75 0l0 72.578125l-43.515625 0l0 -186.50002l120.0625 0zm73.99011 51.71875q15.09375 0 27.515625 4.734375q12.421875 4.734375 21.3125 13.578125q8.890625 8.828125 13.8125 21.4375q4.9375 12.593765 4.9375 28.343765q0 15.875 -4.9375 28.609375q-4.921875 12.734375 -13.8125 21.640625q-8.890625 8.890625 -21.3125 13.6875q-12.421875 4.796875 -27.515625 4.796875q-15.234375 0 -27.71875 -4.796875q-12.484375 -4.796875 -21.515625 -13.6875q-9.015625 -8.90625 -13.9375 -21.640625q-4.921875 -12.734375 -4.921875 -28.609375q0 -15.75 4.921875 -28.343765q4.921875 -12.609375 13.9375 -21.4375q9.03125 -8.84375 21.515625 -13.578125q12.484375 -4.734375 27.71875 -4.734375zm0 107.39064q13.6875 0 20.15625 -9.65625q6.46875 -9.671875 6.46875 -29.390625q0 -19.703125 -6.46875 -29.29689q-6.46875 -9.609375 -20.15625 -9.609375q-14.078125 0 -20.609375 9.609375q-6.53125 9.593765 -6.53125 29.29689q0 19.71875 6.53125 29.390625q6.53125 9.65625 20.609375 9.65625zm113.409424 -41.21875l-42.75 -64.125015l38.140625 0q4.21875 0 6.203125 1.09375q1.984375 1.078125 3.515625 3.640625l23.6875 39.29689q0.765625 -2.3125 1.90625 -4.4843903q1.15625 -2.171875 2.578125 -4.609375l16.890625 -29.5625q1.65625 -2.9375 3.703125 -4.15625q2.0625 -1.21875 5.0 -1.21875l36.359375 0l-42.765625 62.32814l44.546875 70.40625l-38.140625 0q-4.21875 0 -6.78125 -2.046875q-2.5625 -2.046875 -4.234375 -4.859375l-23.671875 -40.703125q-0.640625 2.171875 -1.546875 4.09375q-0.890625 1.921875 -1.90625 3.578125l-19.453125 33.03125q-1.546875 2.6875 -4.109375 4.796875q-2.546875 2.109375 -6.390625 2.109375l-35.328125 0l44.546875 -68.609375zm268.28345 -80.000015q-1.921875 3.078125 -4.03125 4.609375q-2.109375 1.53125 -5.4375 1.53125q-2.953125 0 -6.34375 -1.84375q-3.390625 -1.859375 -7.6875 -4.15625q-4.28125 -2.3125 -9.78125 -4.171875q-5.5 -1.859375 -12.546875 -1.859375q-12.15625 0 -18.109375 5.1875q-5.953125 5.1875 -5.953125 14.015625q0 5.640625 3.578125 9.359375q3.59375 3.703125 9.40625 6.390625q5.828125 2.6875 13.3125 4.921875q7.5 2.234375 15.296875 5.0q7.8125 2.75 15.296875 6.46875q7.5 3.703125 13.3125 9.46875q5.828125 5.7500153 9.40625 14.01564q3.59375 8.25 3.59375 19.890625q0 12.9375 -4.484375 24.203125q-4.484375 11.265625 -13.0 19.65625q-8.5 8.375 -20.984375 13.171875q-12.484375 4.796875 -28.34375 4.796875q-8.703125 0 -17.734375 -1.796875q-9.015625 -1.78125 -17.46875 -5.046875q-8.453125 -3.265625 -15.875 -7.75q-7.421875 -4.484375 -12.921875 -9.984375l12.796875 -20.21875q1.40625 -2.3125 3.96875 -3.71875q2.5625 -1.40625 5.5 -1.40625q3.84375 0 7.75 2.4375q3.90625 2.421875 8.828125 5.375q4.921875 2.9375 11.328125 5.375q6.40625 2.4375 15.109375 2.4375q11.765625 0 18.296875 -5.1875q6.53125 -5.1875 6.53125 -16.453125q0 -6.53125 -3.59375 -10.625q-3.578125 -4.09375 -9.40625 -6.78125q-5.8125 -2.6875 -13.25 -4.734375q-7.421875 -2.046875 -15.234375 -4.546875q-7.796875 -2.5 -15.21875 -6.140625q-7.421875 -3.65625 -13.25 -9.593765q-5.828125 -5.953125 -9.421875 -14.84375q-3.578125 -8.90625 -3.578125 -21.96875q0 -10.484375 4.21875 -20.46875q4.234375 -9.984375 12.421875 -17.796875q8.203125 -7.8125 20.09375 -12.484375q11.90625 -4.671875 27.265625 -4.671875q8.578125 0 16.703125 1.34375q8.140625 1.34375 15.4375 3.96875q7.296875 2.625 13.625 6.28125q6.34375 3.640625 11.328125 8.25l-10.75 20.09375zm81.408325 150.65627q-9.46875 0 -16.703125 -2.75q-7.234375 -2.75 -12.171875 -7.796875q-4.921875 -5.0625 -7.484375 -12.234375q-2.546875 -7.171875 -2.546875 -16.0l0 -68.60939l-11.265625 0q-3.078125 0 -5.25 -1.984375q-2.171875 -1.984375 -2.171875 -5.828125l0 -15.484375l21.109375 -4.09375l7.8125 -32.390625q1.53125 -6.140625 8.703125 -6.140625l20.734375 0l0 38.78125l32.25 0l0 27.140625l-32.25 0l0 65.92189q0 4.609375 2.234375 7.625q2.25 3.0 6.46875 3.0q2.171875 0 3.640625 -0.453125q1.484375 -0.453125 2.5625 -1.015625q1.09375 -0.578125 2.046875 -1.03125q0.96875 -0.453125 2.25 -0.453125q1.796875 0 2.875 0.84375q1.09375 0.828125 2.25 2.625l12.03125 18.8125q-7.6875 5.75 -17.296875 8.640625q-9.59375 2.875 -19.828125 2.875zm92.9314 -134.78127l0 84.218765q0 9.859375 4.46875 15.234375q4.484375 5.375 13.1875 5.375q6.53125 0 12.21875 -2.6875q5.703125 -2.6875 11.078125 -7.546875l0 -94.593765l39.6875 0l0 132.73439l-24.578125 0q-7.421875 0 -9.734375 -6.65625l-2.421875 -7.6875q-3.84375 3.71875 -7.9375 6.734375q-4.09375 3.0 -8.765625 5.109375q-4.671875 2.109375 -10.0625 3.328125q-5.375 1.21875 -11.765625 1.21875q-10.890625 0 -19.28125 -3.765625q-8.375 -3.78125 -14.140625 -10.5625q-5.75 -6.796875 -8.703125 -16.0q-2.9375 -9.21875 -2.9375 -20.234375l0 -84.218765l39.6875 0zm204.54248 132.73439q-3.71875 0 -6.21875 -1.65625q-2.484375 -1.671875 -3.515625 -5.0l-3.0625 -10.109375q-3.96875 4.21875 -8.328125 7.6875q-4.34375 3.453125 -9.40625 5.953125q-5.0625 2.484375 -10.890625 3.828125q-5.8125 1.34375 -12.59375 1.34375q-10.375 0 -19.203125 -4.609375q-8.828125 -4.609375 -15.234375 -13.3125q-6.390625 -8.703125 -10.046875 -21.3125q-3.640625 -12.609375 -3.640625 -28.734375q0 -14.84375 4.09375 -27.57814q4.09375 -12.734375 11.578125 -22.015625q7.484375 -9.28125 17.984375 -14.53125q10.5 -5.25 23.171875 -5.25q10.234375 0 17.34375 3.015625q7.109375 3.0 12.859375 7.859375l0 -67.1875l39.6875 0l0 191.60939l-24.578125 0zm-40.1875 -28.421875q4.34375 0 7.859375 -0.828125q3.53125 -0.828125 6.46875 -2.359375q2.9375 -1.546875 5.5625 -3.84375q2.625 -2.3125 5.1875 -5.375l0 -56.32814q-4.609375 -4.984375 -9.796875 -6.96875q-5.171875 -1.984375 -10.9375 -1.984375q-5.5 0 -10.109375 2.171875q-4.609375 2.171875 -8.0 6.984375q-3.390625 4.796875 -5.3125 12.48439q-1.921875 7.671875 -1.921875 18.546875q0 10.5 1.53125 17.671875q1.546875 7.15625 4.296875 11.578125q2.75 4.421875 6.578125 6.34375q3.84375 1.90625 8.59375 1.90625zm136.4331 -104.312515l0 132.73439l-39.671875 0l0 -132.73439l39.671875 0zm4.609375 -36.359375q0 4.734375 -1.921875 8.90625q-1.90625 4.15625 -5.234375 7.296875q-3.328125 3.125 -7.75 4.984375q-4.421875 1.859375 -9.40625 1.859375q-4.859375 0 -9.09375 -1.859375q-4.21875 -1.859375 -7.484375 -4.984375q-3.265625 -3.140625 -5.125 -7.296875q-1.84375 -4.171875 -1.84375 -8.90625q0 -4.859375 1.84375 -9.078125q1.859375 -4.234375 5.125 -7.421875q3.265625 -3.203125 7.484375 -5.0q4.234375 -1.796875 9.09375 -1.796875q4.984375 0 9.40625 1.796875q4.421875 1.796875 7.75 5.0q3.328125 3.1875 5.234375 7.421875q1.921875 4.21875 1.921875 9.078125zm86.538086 34.3125q15.09375 0 27.515625 4.734375q12.421875 4.734375 21.3125 13.578125q8.890625 8.828125 13.8125 21.4375q4.9375 12.593765 4.9375 28.343765q0 15.875 -4.9375 28.609375q-4.921875 12.734375 -13.8125 21.640625q-8.890625 8.890625 -21.3125 13.6875q-12.421875 4.796875 -27.515625 4.796875q-15.234375 0 -27.71875 -4.796875q-12.484375 -4.796875 -21.515625 -13.6875q-9.015625 -8.90625 -13.9375 -21.640625q-4.921875 -12.734375 -4.921875 -28.609375q0 -15.75 4.921875 -28.343765q4.921875 -12.609375 13.9375 -21.4375q9.03125 -8.84375 21.515625 -13.578125q12.484375 -4.734375 27.71875 -4.734375zm0 107.39064q13.6875 0 20.15625 -9.65625q6.46875 -9.671875 6.46875 -29.390625q0 -19.703125 -6.46875 -29.29689q-6.46875 -9.609375 -20.15625 -9.609375q-14.078125 0 -20.609375 9.609375q-6.53125 9.593765 -6.53125 29.29689q0 19.71875 6.53125 29.390625q6.53125 9.65625 20.609375 9.65625zm170.4956 -76.29689q-1.546875 2.4375 -3.28125 3.46875q-1.71875 1.015625 -4.40625 1.015625q-2.8125 0 -5.625 -1.203125q-2.8125 -1.21875 -6.078125 -2.625q-3.265625 -1.421875 -7.375 -2.625q-4.09375 -1.21875 -9.328125 -1.21875q-7.5625 0 -11.59375 2.875q-4.03125 2.875 -4.03125 8.0q0 3.71875 2.625 6.1562653q2.625 2.421875 6.96875 4.28125q4.359375 1.84375 9.859375 3.515625q5.515625 1.65625 11.265625 3.71875q5.765625 2.046875 11.265625 4.796875q5.5 2.75 9.84375 6.78125q4.359375 4.03125 6.984375 9.796875q2.625 5.75 2.625 13.8125q0 9.859375 -3.578125 18.1875q-3.578125 8.3125 -10.6875 14.328125q-7.109375 6.015625 -17.546875 9.34375q-10.421875 3.328125 -23.984375 3.328125q-6.796875 0 -13.578125 -1.28125q-6.78125 -1.28125 -13.125 -3.453125q-6.328125 -2.171875 -11.703125 -5.171875q-5.375 -3.015625 -9.21875 -6.484375l9.21875 -14.578125q1.671875 -2.5625 3.96875 -4.03125q2.296875 -1.484375 6.015625 -1.484375q3.453125 0 6.203125 1.546875q2.75 1.53125 5.953125 3.328125q3.203125 1.78125 7.484375 3.328125q4.296875 1.53125 10.828125 1.53125q4.609375 0 7.796875 -0.953125q3.203125 -0.96875 5.125 -2.625q1.921875 -1.671875 2.8125 -3.71875q0.90625 -2.046875 0.90625 -4.21875q0 -3.96875 -2.6875 -6.53125q-2.6875 -2.5625 -7.046875 -4.421875q-4.34375 -1.859375 -9.921875 -3.453125q-5.5625 -1.59375 -11.328125 -3.640625q-5.75 -2.046875 -11.328125 -4.921875q-5.5625 -2.890625 -9.921875 -7.296875q-4.34375 -4.421875 -7.03125 -10.828125q-2.6875 -6.40625 -2.6875 -15.48439q0 -8.453125 3.265625 -16.0625q3.265625 -7.625 9.78125 -13.375q6.53125 -5.765625 16.390625 -9.15625q9.859375 -3.390625 23.03125 -3.390625q7.171875 0 13.890625 1.28125q6.71875 1.28125 12.609375 3.59375q5.890625 2.296875 10.75 5.4375q4.875 3.125 8.578125 6.84375l-8.953125 13.9375z" fill-rule="nonzero"/></g></svg>