<svg version="1.1" viewBox="0.0 0.0 179.31233595800524 32.0" fill="none" stroke="none" stroke-linecap="square" stroke-miterlimit="10" xmlns:xlink="http://www.w3.org/1999/xlink" xmlns="http://www.w3.org/2000/svg"><clipPath id="p.0"><path d="m0 0l179.31233 0l0 32.0l-179.31233 0l0 -32.0z" clip-rule="nonzero"/></clipPath><g clip-path="url(#p.0)"><path fill="#000000" fill-opacity="0.0" d="m0 0l179.31233 0l0 32.0l-179.31233 0z" fill-rule="evenodd"/><path fill="#000000" fill-opacity="0.0" d="m13.88434 22.061525l-5.732787 -2.6017418l1.2658892 -1.4015579z" fill-rule="evenodd"/><path stroke="#4a7882" stroke-width="1.0" stroke-linejoin="round" stroke-linecap="butt" d="m13.88434 22.061525l-5.732787 -2.6017418l1.2658892 -1.4015579z" fill-rule="evenodd"/><path fill="#000000" fill-opacity="0.0" d="m7.875514 7.597556l5.6158743 4.5147877l-4.011338 5.9807844z" fill-rule="evenodd"/><path stroke="#4a7882" stroke-width="1.0" stroke-linejoin="round" stroke-linecap="butt" d="m7.875514 7.597556l5.6158743 4.5147877l-4.011338 5.9807844z" fill-rule="evenodd"/><path fill="#000000" fill-opacity="0.0" d="m13.387523 12.106973l2.6325674 -0.45107555l2.6325665 0.45107555z" fill-rule="evenodd"/><path stroke="#4a7882" stroke-width="1.0" stroke-linejoin="round" stroke-linecap="butt" d="m13.387523 12.106973l2.6325674 -0.45107555l2.6325665 0.45107555z" fill-rule="evenodd"/><path fill="#000000" fill-opacity="0.0" d="m16.069157 11.576684l-2.5959806 0.5537844l-5.5718303 -4.573194z" fill-rule="evenodd"/><path stroke="#4a7882" stroke-width="1.0" stroke-linejoin="round" stroke-linecap="butt" d="m16.069157 11.576684l-2.5959806 0.5537844l-5.5718303 -4.573194z" fill-rule="evenodd"/><path fill="#d4e0fc" d="m24.12782 7.597556l-5.6158752 4.5147877l4.011339 5.9807844z" fill-rule="evenodd"/><path stroke="#4a7882" stroke-width="1.0" stroke-linejoin="round" stroke-linecap="butt" d="m24.12782 7.597556l-5.6158752 4.5147877l4.011339 5.9807844z" fill-rule="evenodd"/><path fill="#8daef6" d="m18.028484 22.088373l5.781166 -2.5292492l-1.3223305 -1.4659958z" fill-rule="evenodd"/><path stroke="#4a7882" stroke-width="1.0" stroke-linejoin="round" stroke-linecap="butt" d="m18.028484 22.088373l5.781166 -2.5292492l-1.3223305 -1.4659958z" fill-rule="evenodd"/><path fill="#8daef6" d="m15.995428 11.576687l2.5810833 0.5612259l5.5222244 -4.5484157z" fill-rule="evenodd"/><path stroke="#4a7882" stroke-width="1.0" stroke-linejoin="round" stroke-linecap="butt" d="m15.995428 11.576687l2.5810833 0.5612259l5.5222244 -4.5484157z" fill-rule="evenodd"/><path fill="#000000" fill-opacity="0.0" d="m16.026592 23.979937l-6.508236 -5.911579l3.8796997 -5.9613857z" fill-rule="evenodd"/><path stroke="#4a7882" stroke-width="1.0" stroke-linejoin="round" stroke-linecap="butt" d="m16.026592 23.979937l-6.508236 -5.911579l3.8796997 -5.9613857z" fill-rule="evenodd"/><path fill="#8de2f6" d="m16.08643 24.023573l6.4565487 -5.9433746l-3.81995 -5.969866z" fill-rule="evenodd"/><path stroke="#4a7882" stroke-width="1.0" stroke-linejoin="round" stroke-linecap="butt" d="m16.08643 24.023573l6.4565487 -5.9433746l-3.81995 -5.969866z" fill-rule="evenodd"/><path fill="#d4f4fc" d="m16.041592 12.102945l2.620472 0l-2.620472 11.840746z" fill-rule="evenodd"/><path stroke="#4a7882" stroke-width="1.0" stroke-linejoin="round" stroke-linecap="butt" d="m16.041592 12.102945l2.620472 0l-2.620472 11.840746z" fill-rule="evenodd"/><path fill="#000000" fill-opacity="0.0" d="m16.04428 12.102945l-2.620473 0l2.620473 11.840746z" fill-rule="evenodd"/><path stroke="#4a7882" stroke-width="1.0" stroke-linejoin="round" stroke-linecap="butt" d="m16.04428 12.102945l-2.620473 0l2.620473 11.840746z" fill-rule="evenodd"/><path fill="#000000" fill-opacity="0.0" d="m9.472918 18.092918l6.5713387 1.2726803" fill-rule="evenodd"/><path stroke="#4a7882" stroke-width="1.0" stroke-linejoin="round" stroke-linecap="butt" d="m9.472918 18.092918l6.5713387 1.2726803" fill-rule="evenodd"/><path fill="#000000" fill-opacity="0.0" d="m22.592077 18.092918l-6.5713387 1.2726803" fill-rule="evenodd"/><path stroke="#4a7882" stroke-width="1.0" stroke-linejoin="round" stroke-linecap="butt" d="m22.592077 18.092918l-6.5713387 1.2726803" fill-rule="evenodd"/><path fill="#000000" fill-opacity="0.0" d="m27.953413 6.740956l146.74803 0l0 18.485434l-146.74803 0z" fill-rule="evenodd"/><path fill="#fdfdfd" d="m36.875286 16.515547q0.15625 0.296875 0.296875 0.625q0.15625 0.328125 0.296875 0.671875q0.125 -0.34375 0.28125 -0.671875q0.15625 -0.34375 0.3125 -0.65625l3.0 -5.875q0.078125 -0.15625 0.15625 -0.234375q0.09375 -0.09375 0.1875 -0.125q0.109375 -0.046875 0.234375 -0.046875q0.140625 -0.015625 0.3125 -0.015625l2.0625 0l0 11.65625l-2.375 0l0 -6.703125q0 -0.484375 0.046875 -1.0625l-3.09375 6.0q-0.140625 0.28125 -0.390625 0.421875q-0.234375 0.140625 -0.546875 0.140625l-0.375 0q-0.3125 0 -0.5625 -0.140625q-0.234375 -0.140625 -0.375 -0.421875l-3.109375 -6.0q0.03125 0.28125 0.046875 0.5625q0.015625 0.265625 0.015625 0.5l0 6.703125l-2.390623 0l0 -11.65625l2.078123 0q0.171875 0 0.296875 0.015625q0.140625 0 0.234375 0.046875q0.109375 0.03125 0.1875 0.125q0.09375 0.078125 0.171875 0.234375l3.0 5.90625l0 0zm14.789429 5.328125q-0.359375 0 -0.546875 -0.09375q-0.171875 -0.09375 -0.28125 -0.40625l-0.171875 -0.453125q-0.3125 0.265625 -0.609375 0.46875q-0.28125 0.203125 -0.59375 0.34375q-0.3125 0.125 -0.65625 0.1875q-0.34375 0.078125 -0.765625 0.078125q-0.578125 0 -1.046875 -0.140625q-0.453125 -0.15625 -0.78125 -0.4375q-0.328125 -0.296875 -0.5 -0.71875q-0.171875 -0.421875 -0.171875 -0.984375q0 -0.4375 0.21875 -0.90625q0.234375 -0.46875 0.78125 -0.84375q0.546875 -0.375 1.484375 -0.625q0.9375 -0.265625 2.359375 -0.296875l0 -0.359375q0 -0.71875 -0.296875 -1.046875q-0.296875 -0.328125 -0.859375 -0.328125q-0.4375 0 -0.71875 0.09375q-0.28125 0.09375 -0.5 0.21875q-0.21875 0.125 -0.421875 0.21875q-0.203125 0.09375 -0.5 0.09375q-0.25 0 -0.4375 -0.125q-0.171875 -0.125 -0.28125 -0.3125l-0.453125 -0.765625q0.765625 -0.671875 1.671875 -0.984375q0.921875 -0.328125 1.96875 -0.328125q0.75 0 1.34375 0.25q0.609375 0.234375 1.03125 0.671875q0.421875 0.4375 0.640625 1.046875q0.234375 0.59375 0.234375 1.296875l0 5.1875l-1.140625 0zm-2.84375 -1.515625q0.46875 0 0.828125 -0.15625q0.375 -0.171875 0.734375 -0.546875l0 -1.15625q-0.75 0.03125 -1.234375 0.125q-0.46875 0.09375 -0.75 0.25q-0.28125 0.140625 -0.390625 0.328125q-0.109375 0.171875 -0.109375 0.390625q0 0.421875 0.234375 0.59375q0.234375 0.171875 0.6875 0.171875zm5.733261 1.515625l0 -8.296875l1.484375 0q0.171875 0 0.296875 0.03125q0.125 0.03125 0.203125 0.109375q0.09375 0.0625 0.140625 0.171875q0.046875 0.109375 0.078125 0.265625l0.125 0.78125q0.46875 -0.703125 1.03125 -1.109375q0.5625 -0.40625 1.234375 -0.40625q0.578125 0 0.921875 0.265625l-0.328125 1.828125q-0.03125 0.171875 -0.125 0.234375q-0.09375 0.0625 -0.25 0.0625q-0.140625 0 -0.328125 -0.03125q-0.1875 -0.03125 -0.46875 -0.03125q-0.96875 0 -1.53125 1.03125l0 5.09375l-2.484375 0zm6.60791 0l0 -11.96875l2.484375 0l0 4.546875q0.4687538 -0.453125 1.0468788 -0.71875q0.59375 -0.28125 1.390625 -0.28125q0.640625 0 1.1875 0.28125q0.5625 0.28125 0.953125 0.828125q0.40625 0.53125 0.625 1.3125q0.234375 0.78125 0.234375 1.78125q0 0.9375 -0.265625 1.734375q-0.25 0.78125 -0.71875 1.375q-0.46875 0.578125 -1.125 0.90625q-0.640625 0.328125 -1.4375 0.328125q-0.375 0 -0.671875 -0.078125q-0.28125 -0.0625 -0.53125 -0.1875q-0.234375 -0.140625 -0.4375038 -0.3125q-0.203125 -0.1875 -0.40625 -0.40625l-0.078125 0.40625q-0.0625 0.265625 -0.21875 0.359375q-0.140625 0.09375 -0.375 0.09375l-1.65625 0zm4.062504 -6.5625q-0.28125 0 -0.5 0.0625q-0.21875 0.046875 -0.40625 0.140625q-0.1875 0.09375 -0.3593788 0.25q-0.15625 0.140625 -0.3125 0.328125l0 3.53125q0.28125 0.3125 0.6093788 0.4375q0.328125 0.109375 0.6875 0.109375q0.34375 0 0.625 -0.125q0.296875 -0.140625 0.5 -0.4375q0.21875 -0.296875 0.328125 -0.78125q0.125 -0.484375 0.125 -1.171875q0 -0.65625 -0.09375 -1.09375q-0.09375 -0.453125 -0.265625 -0.71875q-0.171875 -0.28125 -0.421875 -0.40625q-0.234375 -0.125 -0.515625 -0.125zm7.7798767 -5.40625l0 11.96875l-2.46875 0l0 -11.96875l2.46875 0zm5.5599365 3.546875q0.8125 0 1.5 0.265625q0.6875 0.25 1.171875 0.734375q0.5 0.484375 0.765625 1.203125q0.28125 0.703125 0.28125 1.59375q0 0.28125 -0.03125 0.46875q-0.015625 0.171875 -0.078125 0.28125q-0.0625 0.09375 -0.171875 0.140625q-0.109375 0.03125 -0.265625 0.03125l-4.796875 0q0.125 1.046875 0.640625 1.515625q0.515625 0.453125 1.3125 0.453125q0.4375 0 0.75 -0.09375q0.3125 -0.109375 0.546875 -0.234375q0.25 -0.125 0.453125 -0.234375q0.203125 -0.109375 0.4375 -0.109375q0.28125 0 0.4375 0.21875l0.71875 0.890625q-0.375 0.4375 -0.828125 0.71875q-0.4375 0.28125 -0.90625 0.4375q-0.46875 0.15625 -0.9375 0.203125q-0.46875 0.0625 -0.890625 0.0625q-0.875 0 -1.640625 -0.28125q-0.765625 -0.28125 -1.34375 -0.84375q-0.5625 -0.5625 -0.890625 -1.390625q-0.328125 -0.828125 -0.328125 -1.9375q0 -0.828125 0.28125 -1.5625q0.28125 -0.75 0.8125 -1.3125q0.53125 -0.5625 1.28125 -0.890625q0.765625 -0.328125 1.71875 -0.328125zm0.046875 1.703125q-0.71875 0 -1.125 0.40625q-0.390625 0.40625 -0.515625 1.171875l3.09375 0q0 -0.296875 -0.078125 -0.578125q-0.078125 -0.28125 -0.25 -0.5q-0.171875 -0.21875 -0.453125 -0.359375q-0.28125 -0.140625 -0.671875 -0.140625zm15.698105 -4.9375l0 2.078125l-4.78125 0l0 2.953125l3.96875 0l0 2.09375l-3.96875 0l0 4.53125l-2.734375 0l0 -11.65625l7.515625 0zm4.619385 3.234375q0.9375 0 1.71875 0.296875q0.78125 0.296875 1.328125 0.84375q0.5625 0.546875 0.859375 1.34375q0.3125 0.78125 0.3125 1.765625q0 1.0 -0.3125 1.796875q-0.296875 0.796875 -0.859375 1.359375q-0.546875 0.546875 -1.328125 0.84375q-0.78125 0.296875 -1.71875 0.296875q-0.953125 0 -1.734375 -0.296875q-0.78125 -0.296875 -1.34375 -0.84375q-0.5625 -0.5625 -0.875 -1.359375q-0.296875 -0.796875 -0.296875 -1.796875q0 -0.984375 0.296875 -1.765625q0.3125 -0.796875 0.875 -1.34375q0.5625 -0.546875 1.34375 -0.84375q0.78125 -0.296875 1.734375 -0.296875zm0 6.703125q0.859375 0 1.25 -0.59375q0.40625 -0.609375 0.40625 -1.84375q0 -1.234375 -0.40625 -1.828125q-0.390625 -0.59375 -1.25 -0.59375q-0.875 0 -1.296875 0.59375q-0.40625 0.59375 -0.40625 1.828125q0 1.234375 0.40625 1.84375q0.421875 0.59375 1.296875 0.59375zm7.081131 -2.5625l-2.671875 -4.015625l2.390625 0q0.265625 0 0.390625 0.078125q0.125 0.0625 0.21875 0.21875l1.484375 2.453125q0.046875 -0.140625 0.109375 -0.265625q0.078125 -0.140625 0.171875 -0.296875l1.046875 -1.84375q0.109375 -0.1875 0.234375 -0.265625q0.125 -0.078125 0.3125 -0.078125l2.265625 0l-2.671875 3.890625l2.796875 4.40625l-2.390625 0q-0.265625 0 -0.421875 -0.125q-0.15625 -0.125 -0.265625 -0.3125l-1.484375 -2.53125q-0.03125 0.125 -0.09375 0.25q-0.0625 0.125 -0.125 0.21875l-1.203125 2.0625q-0.109375 0.171875 -0.265625 0.3125q-0.15625 0.125 -0.390625 0.125l-2.21875 0l2.78125 -4.28125zm16.77147 -5.0q-0.125 0.1875 -0.25 0.28125q-0.125 0.09375 -0.34375 0.09375q-0.171875 0 -0.390625 -0.109375q-0.21875 -0.125 -0.484375 -0.265625q-0.265625 -0.140625 -0.609375 -0.25q-0.34375 -0.125 -0.78125 -0.125q-0.765625 0 -1.140625 0.328125q-0.359375 0.3125 -0.359375 0.875q0 0.34375 0.21875 0.578125q0.21875 0.234375 0.578125 0.40625q0.375 0.171875 0.84375 0.3125q0.46875 0.125 0.953125 0.296875q0.484375 0.171875 0.953125 0.40625q0.46875 0.234375 0.828125 0.59375q0.375 0.359375 0.59375 0.875q0.21875 0.515625 0.21875 1.25q0 0.8125 -0.28125 1.515625q-0.265625 0.703125 -0.8125 1.234375q-0.53125 0.515625 -1.3125 0.8125q-0.765625 0.296875 -1.765625 0.296875q-0.546875 0 -1.109375 -0.109375q-0.5625 -0.109375 -1.09375 -0.3125q-0.515625 -0.203125 -0.984375 -0.484375q-0.46875 -0.28125 -0.8125 -0.625l0.796875 -1.265625q0.09375 -0.140625 0.25 -0.21875q0.15625 -0.09375 0.34375 -0.09375q0.25 0 0.484375 0.15625q0.25 0.140625 0.546875 0.328125q0.3125 0.1875 0.703125 0.34375q0.40625 0.140625 0.953125 0.140625q0.734375 0 1.140625 -0.3125q0.421875 -0.328125 0.421875 -1.046875q0 -0.40625 -0.234375 -0.65625q-0.21875 -0.25 -0.59375 -0.421875q-0.359375 -0.171875 -0.828125 -0.296875q-0.453125 -0.125 -0.953125 -0.28125q-0.484375 -0.15625 -0.953125 -0.375q-0.453125 -0.234375 -0.8125 -0.609375q-0.359375 -0.375 -0.59375 -0.921875q-0.21875 -0.5625 -0.21875 -1.375q0 -0.65625 0.265625 -1.28125q0.265625 -0.625 0.765625 -1.109375q0.515625 -0.5 1.25 -0.78125q0.75 -0.296875 1.71875 -0.296875q0.53125 0 1.03125 0.09375q0.515625 0.078125 0.96875 0.25q0.46875 0.15625 0.859375 0.390625q0.390625 0.21875 0.703125 0.5l-0.671875 1.265625zm5.0937653 9.40625q-0.59375 0 -1.046875 -0.171875q-0.453125 -0.171875 -0.765625 -0.484375q-0.296875 -0.3125 -0.46875 -0.765625q-0.15625 -0.453125 -0.15625 -1.0l0 -4.28125l-0.703125 0q-0.1875 0 -0.328125 -0.125q-0.140625 -0.125 -0.140625 -0.375l0 -0.96875l1.328125 -0.25l0.484375 -2.015625q0.09375 -0.390625 0.546875 -0.390625l1.296875 0l0 2.421875l2.015625 0l0 1.703125l-2.015625 0l0 4.109375q0 0.296875 0.140625 0.484375q0.140625 0.1875 0.40625 0.1875q0.125 0 0.21875 -0.03125q0.09375 -0.03125 0.15625 -0.0625q0.078125 -0.03125 0.140625 -0.0625q0.0625 -0.03125 0.140625 -0.03125q0.109375 0 0.171875 0.0625q0.078125 0.046875 0.140625 0.15625l0.75 1.171875q-0.46875 0.359375 -1.078125 0.546875q-0.59375 0.171875 -1.234375 0.171875zm5.8061676 -8.421875l0 5.265625q0 0.609375 0.28125 0.953125q0.28125 0.328125 0.828125 0.328125q0.40625 0 0.75 -0.15625q0.359375 -0.171875 0.703125 -0.484375l0 -5.90625l2.46875 0l0 8.296875l-1.53125 0q-0.46875 0 -0.609375 -0.421875l-0.140625 -0.46875q-0.25 0.234375 -0.515625 0.421875q-0.25 0.1875 -0.546875 0.3125q-0.28125 0.125 -0.625 0.203125q-0.328125 0.078125 -0.734375 0.078125q-0.671875 0 -1.203125 -0.234375q-0.515625 -0.234375 -0.875 -0.65625q-0.359375 -0.421875 -0.546875 -1.0q-0.1875 -0.578125 -0.1875 -1.265625l0 -5.265625l2.484375 0zm12.779877 8.296875q-0.234375 0 -0.390625 -0.09375q-0.15625 -0.109375 -0.21875 -0.328125l-0.1875 -0.625q-0.25 0.265625 -0.53125 0.484375q-0.265625 0.203125 -0.578125 0.359375q-0.3125 0.15625 -0.6875 0.234375q-0.359375 0.09375 -0.78125 0.09375q-0.640625 0 -1.203125 -0.28125q-0.546875 -0.296875 -0.953125 -0.828125q-0.390625 -0.546875 -0.625 -1.328125q-0.21875 -0.796875 -0.21875 -1.8125q0 -0.921875 0.25 -1.71875q0.25 -0.796875 0.71875 -1.375q0.46875 -0.578125 1.125 -0.90625q0.65625 -0.328125 1.453125 -0.328125q0.640625 0 1.078125 0.1875q0.453125 0.1875 0.8125 0.484375l0 -4.1875l2.46875 0l0 11.96875l-1.53125 0zm-2.515625 -1.78125q0.28125 0 0.5 -0.046875q0.21875 -0.046875 0.40625 -0.140625q0.1875 -0.109375 0.34375 -0.25q0.171875 -0.140625 0.328125 -0.328125l0 -3.53125q-0.296875 -0.3125 -0.625 -0.421875q-0.3125 -0.125 -0.671875 -0.125q-0.34375 0 -0.640625 0.140625q-0.28125 0.125 -0.5 0.421875q-0.203125 0.296875 -0.328125 0.78125q-0.125 0.484375 -0.125 1.15625q0 0.65625 0.09375 1.109375q0.109375 0.453125 0.28125 0.734375q0.171875 0.265625 0.40625 0.390625q0.234375 0.109375 0.53125 0.109375zm8.529877 -6.515625l0 8.296875l-2.46875 0l0 -8.296875l2.46875 0zm0.296875 -2.265625q0 0.296875 -0.125 0.5625q-0.125 0.25 -0.328125 0.453125q-0.203125 0.1875 -0.484375 0.3125q-0.28125 0.109375 -0.59375 0.109375q-0.296875 0 -0.5625 -0.109375q-0.265625 -0.125 -0.46875 -0.3125q-0.203125 -0.203125 -0.328125 -0.453125q-0.109375 -0.265625 -0.109375 -0.5625q0 -0.3125 0.109375 -0.578125q0.125 -0.265625 0.328125 -0.453125q0.203125 -0.203125 0.46875 -0.3125q0.265625 -0.125 0.5625 -0.125q0.3125 0 0.59375 0.125q0.28125 0.109375 0.484375 0.3125q0.203125 0.1875 0.328125 0.453125q0.125 0.265625 0.125 0.578125zm5.4036865 2.140625q0.9375 0 1.71875 0.296875q0.78125 0.296875 1.328125 0.84375q0.5625 0.546875 0.859375 1.34375q0.3125 0.78125 0.3125 1.765625q0 1.0 -0.3125 1.796875q-0.296875 0.796875 -0.859375 1.359375q-0.546875 0.546875 -1.328125 0.84375q-0.78125 0.296875 -1.71875 0.296875q-0.953125 0 -1.734375 -0.296875q-0.78125 -0.296875 -1.34375 -0.84375q-0.5625 -0.5625 -0.875 -1.359375q-0.296875 -0.796875 -0.296875 -1.796875q0 -0.984375 0.296875 -1.765625q0.3125 -0.796875 0.875 -1.34375q0.5625 -0.546875 1.34375 -0.84375q0.78125 -0.296875 1.734375 -0.296875zm0 6.703125q0.859375 0 1.25 -0.59375q0.40625 -0.609375 0.40625 -1.84375q0 -1.234375 -0.40625 -1.828125q-0.390625 -0.59375 -1.25 -0.59375q-0.875 0 -1.296875 0.59375q-0.40625 0.59375 -0.40625 1.828125q0 1.234375 0.40625 1.84375q0.421875 0.59375 1.296875 0.59375zm10.654877 -4.765625q-0.09375 0.15625 -0.203125 0.21875q-0.109375 0.0625 -0.28125 0.0625q-0.171875 0 -0.34375 -0.078125q-0.171875 -0.078125 -0.390625 -0.15625q-0.203125 -0.09375 -0.453125 -0.171875q-0.25 -0.078125 -0.578125 -0.078125q-0.484375 0 -0.734375 0.1875q-0.25 0.1875 -0.25 0.5q0 0.234375 0.15625 0.390625q0.171875 0.140625 0.4375 0.265625q0.28125 0.109375 0.625 0.21875q0.34375 0.09375 0.703125 0.234375q0.359375 0.125 0.703125 0.296875q0.34375 0.171875 0.609375 0.421875q0.28125 0.25 0.4375 0.609375q0.171875 0.359375 0.171875 0.859375q0 0.625 -0.234375 1.140625q-0.21875 0.515625 -0.671875 0.90625q-0.4375 0.375 -1.09375 0.578125q-0.640625 0.203125 -1.484375 0.203125q-0.421875 0 -0.859375 -0.078125q-0.421875 -0.078125 -0.8125 -0.203125q-0.390625 -0.140625 -0.734375 -0.328125q-0.328125 -0.203125 -0.578125 -0.40625l0.578125 -0.921875q0.109375 -0.15625 0.25 -0.25q0.140625 -0.09375 0.375 -0.09375q0.21875 0 0.390625 0.109375q0.171875 0.09375 0.375 0.203125q0.203125 0.109375 0.46875 0.203125q0.265625 0.09375 0.671875 0.09375q0.28125 0 0.484375 -0.046875q0.203125 -0.0625 0.3125 -0.171875q0.125 -0.109375 0.171875 -0.234375q0.0625 -0.125 0.0625 -0.265625q0 -0.25 -0.171875 -0.40625q-0.15625 -0.15625 -0.4375 -0.265625q-0.265625 -0.125 -0.609375 -0.21875q-0.34375 -0.109375 -0.703125 -0.234375q-0.359375 -0.125 -0.71875 -0.296875q-0.34375 -0.1875 -0.625 -0.46875q-0.265625 -0.28125 -0.4375 -0.671875q-0.15625 -0.40625 -0.15625 -0.96875q0 -0.53125 0.203125 -1.0q0.203125 -0.484375 0.609375 -0.84375q0.40625 -0.359375 1.015625 -0.5625q0.625 -0.21875 1.453125 -0.21875q0.4375 0 0.859375 0.078125q0.421875 0.078125 0.78125 0.234375q0.375 0.140625 0.671875 0.34375q0.3125 0.1875 0.546875 0.40625l-0.5625 0.875z" fill-rule="nonzero"/></g></svg>