<svg version="1.1" viewBox="0.0 0.0 256.0 256.0" fill="none" stroke="none" stroke-linecap="square" stroke-miterlimit="10" xmlns:xlink="http://www.w3.org/1999/xlink" xmlns="http://www.w3.org/2000/svg"><clipPath id="p.0"><path d="m0 0l256.0 0l0 256.0l-256.0 0l0 -256.0z" clip-rule="nonzero"/></clipPath><g clip-path="url(#p.0)"><path fill="#000000" fill-opacity="0.0" d="m0 0l256.0 0l0 256.0l-256.0 0z" fill-rule="evenodd"/><path fill="#fdfdfd" d="m5.323103 159.10634l250.67038 0c5.645752E-4 0 0.0011138916 -2.2888184E-4 0.0015106201 -6.2561035E-4c3.9672852E-4 -3.9672852E-4 6.2561035E-4 -9.460449E-4 6.2561035E-4 -0.0015106201l-0.0021362305 -58.76657c0 -2.7725754 -2.2476044 -5.0201874 -5.0201874 -5.0201874l-250.67038 0l0 0c-0.0011767745 0 -0.0021307468 9.536743E-4 -0.0021307468 0.002128601l0.0021307468 58.76658l0 0c0 2.7725677 2.247614 5.0201874 5.020186 5.0201874z" fill-rule="evenodd"/><path stroke="#828282" stroke-width="2.0" stroke-linejoin="round" stroke-linecap="butt" d="m5.323103 159.10634l250.67038 0c5.645752E-4 0 0.0011138916 -2.2888184E-4 0.0015106201 -6.2561035E-4c3.9672852E-4 -3.9672852E-4 6.2561035E-4 -9.460449E-4 6.2561035E-4 -0.0015106201l-0.0021362305 -58.76657c0 -2.7725754 -2.2476044 -5.0201874 -5.0201874 -5.0201874l-250.67038 0l0 0c-0.0011767745 0 -0.0021307468 9.536743E-4 -0.0021307468 0.002128601l0.0021307468 58.76658l0 0c0 2.7725677 2.247614 5.0201874 5.020186 5.0201874z" fill-rule="evenodd"/><path fill="#fdfdfd" d="m5.323103 255.37639l250.67038 0c5.645752E-4 0 0.0011138916 -2.2888184E-4 0.0015106201 -6.2561035E-4c3.9672852E-4 -3.9672852E-4 6.2561035E-4 -9.460449E-4 6.2561035E-4 -0.0015106201l-0.0021362305 -58.76657c0 -2.7725677 -2.2476044 -5.0201874 -5.0201874 -5.0201874l-250.67038 0l0 0c-0.0011767745 0 -0.0021307468 9.460449E-4 -0.0021307468 0.0021362305l0.0021307468 58.76657l0 0c0 2.7725677 2.247614 5.0201874 5.020186 5.0201874z" fill-rule="evenodd"/><path stroke="#828282" stroke-width="2.0" stroke-linejoin="round" stroke-linecap="butt" d="m5.323103 255.37639l250.67038 0c5.645752E-4 0 0.0011138916 -2.2888184E-4 0.0015106201 -6.2561035E-4c3.9672852E-4 -3.9672852E-4 6.2561035E-4 -9.460449E-4 6.2561035E-4 -0.0015106201l-0.0021362305 -58.76657c0 -2.7725677 -2.2476044 -5.0201874 -5.0201874 -5.0201874l-250.67038 0l0 0c-0.0011767745 0 -0.0021307468 9.460449E-4 -0.0021307468 0.0021362305l0.0021307468 58.76657l0 0c0 2.7725677 2.247614 5.0201874 5.020186 5.0201874z" fill-rule="evenodd"/><path fill="#fdfdfd" d="m5.323103 64.11456l250.67038 0c5.645752E-4 0 0.0011138916 -2.2125244E-4 0.0015106201 -6.2561035E-4c3.9672852E-4 -3.9672852E-4 6.2561035E-4 -9.384155E-4 6.2561035E-4 -0.0015029907l-0.0021362305 -58.76658c0 -2.772572 -2.2476044 -5.020186 -5.0201874 -5.020186l-250.67038 0l0 0c-0.0011767745 0 -0.0021307468 9.5397234E-4 -0.0021307468 0.0021307468l0.0021307468 58.76658l0 0c0 2.7725716 2.247614 5.0201874 5.020186 5.0201874z" fill-rule="evenodd"/><path stroke="#828282" stroke-width="2.0" stroke-linejoin="round" stroke-linecap="butt" d="m5.323103 64.11456l250.67038 0c5.645752E-4 0 0.0011138916 -2.2125244E-4 0.0015106201 -6.2561035E-4c3.9672852E-4 -3.9672852E-4 6.2561035E-4 -9.384155E-4 6.2561035E-4 -0.0015029907l-0.0021362305 -58.76658c0 -2.772572 -2.2476044 -5.020186 -5.0201874 -5.020186l-250.67038 0l0 0c-0.0011767745 0 -0.0021307468 9.5397234E-4 -0.0021307468 0.0021307468l0.0021307468 58.76658l0 0c0 2.7725716 2.247614 5.0201874 5.020186 5.0201874z" fill-rule="evenodd"/></g></svg>