<svg version="1.1" viewBox="0.0 0.0 512.0 512.0" fill="none" stroke="none" stroke-linecap="square" stroke-miterlimit="10" xmlns:xlink="http://www.w3.org/1999/xlink" xmlns="http://www.w3.org/2000/svg"><clipPath id="p.0"><path d="m0 0l512.0 0l0 512.0l-512.0 0l0 -512.0z" clip-rule="nonzero"/></clipPath><g clip-path="url(#p.0)"><path fill="#000000" fill-opacity="0.0" d="m0 0l512.0 0l0 512.0l-512.0 0z" fill-rule="evenodd"/><path fill="#000000" fill-opacity="0.0" d="m10.077204 318.43643l501.91797 0c0.0011291504 0 0.0022277832 -4.5776367E-4 0.0030212402 -0.0012512207c7.9345703E-4 -7.9345703E-4 0.0012512207 -0.0018920898 0.0012512207 -0.0030212402l-0.004272461 -117.972046c0 -5.5658417 -4.512024 -10.077866 -10.07785 -10.077866l-501.918 0l0 0c-0.0023563958 0 -0.0042666323 0.0019073486 -0.0042666323 0.004272461l0.0042666323 117.97206l0 0c0 5.5658264 4.5120134 10.07785 10.077865 10.07785z" fill-rule="evenodd"/><path stroke="#4a7882" stroke-width="3.0" stroke-linejoin="round" stroke-linecap="butt" d="m10.077204 318.43643l501.91797 0c0.0011291504 0 0.0022277832 -4.5776367E-4 0.0030212402 -0.0012512207c7.9345703E-4 -7.9345703E-4 0.0012512207 -0.0018920898 0.0012512207 -0.0030212402l-0.004272461 -117.972046c0 -5.5658417 -4.512024 -10.077866 -10.07785 -10.077866l-501.918 0l0 0c-0.0023563958 0 -0.0042666323 0.0019073486 -0.0042666323 0.004272461l0.0042666323 117.97206l0 0c0 5.5658264 4.5120134 10.07785 10.077865 10.07785z" fill-rule="evenodd"/><path fill="#000000" fill-opacity="0.0" d="m10.077204 511.69553l501.91797 0c0.0011291504 0 0.0022277832 -4.5776367E-4 0.0030212402 -0.0012512207c7.9345703E-4 -8.239746E-4 0.0012512207 -0.0018920898 0.0012512207 -0.0030212402l-0.004272461 -117.97208c0 -5.5658264 -4.512024 -10.07785 -10.07785 -10.07785l-501.918 0l0 0c-0.0023563958 0 -0.0042666323 0.0019226074 -0.0042666323 0.004272461l0.0042666323 117.972046l0 0c0 5.565857 4.5120134 10.077881 10.077865 10.077881z" fill-rule="evenodd"/><path stroke="#4a7882" stroke-width="3.0" stroke-linejoin="round" stroke-linecap="butt" d="m10.077204 511.69553l501.91797 0c0.0011291504 0 0.0022277832 -4.5776367E-4 0.0030212402 -0.0012512207c7.9345703E-4 -8.239746E-4 0.0012512207 -0.0018920898 0.0012512207 -0.0030212402l-0.004272461 -117.97208c0 -5.5658264 -4.512024 -10.07785 -10.07785 -10.07785l-501.918 0l0 0c-0.0023563958 0 -0.0042666323 0.0019226074 -0.0042666323 0.004272461l0.0042666323 117.972046l0 0c0 5.565857 4.5120134 10.077881 10.077865 10.077881z" fill-rule="evenodd"/><path fill="#000000" fill-opacity="0.0" d="m10.077204 127.743454l501.91797 0c0.0011291504 0 0.0022277832 -4.5013428E-4 0.0030212402 -0.0012512207c7.9345703E-4 -7.9345703E-4 0.0012512207 -0.0018844604 0.0012512207 -0.0030136108l-0.004272461 -117.97205c0 -5.565851 -4.512024 -10.077865 -10.07785 -10.077865l-501.918 0l0 0c-0.0023563958 0 -0.0042666323 0.0019102395 -0.0042666323 0.0042666197l0.0042666323 117.97205l0 0c0 5.565857 4.5120134 10.077866 10.077865 10.077866z" fill-rule="evenodd"/><path stroke="#4a7882" stroke-width="3.0" stroke-linejoin="round" stroke-linecap="butt" d="m10.077204 127.743454l501.91797 0c0.0011291504 0 0.0022277832 -4.5013428E-4 0.0030212402 -0.0012512207c7.9345703E-4 -7.9345703E-4 0.0012512207 -0.0018844604 0.0012512207 -0.0030136108l-0.004272461 -117.97205c0 -5.565851 -4.512024 -10.077865 -10.07785 -10.077865l-501.918 0l0 0c-0.0023563958 0 -0.0042666323 0.0019102395 -0.0042666323 0.0042666197l0.0042666323 117.97205l0 0c0 5.565857 4.5120134 10.077866 10.077865 10.077866z" fill-rule="evenodd"/></g></svg>