<svg version="1.1" viewBox="0.0 0.0 256.0 256.0" fill="none" stroke="none" stroke-linecap="square" stroke-miterlimit="10" xmlns:xlink="http://www.w3.org/1999/xlink" xmlns="http://www.w3.org/2000/svg"><clipPath id="p.0"><path d="m0 0l256.0 0l0 256.0l-256.0 0l0 -256.0z" clip-rule="nonzero"/></clipPath><g clip-path="url(#p.0)"><path fill="#000000" fill-opacity="0.0" d="m0 0l256.0 0l0 256.0l-256.0 0z" fill-rule="evenodd"/><path fill="#080808" d="m5.351333 159.22017l250.959 0c5.493164E-4 0 0.0010986328 -2.2888184E-4 0.0014953613 -6.2561035E-4c3.9672852E-4 -4.119873E-4 6.4086914E-4 -9.460449E-4 6.4086914E-4 -0.0015106201l-0.0021362305 -58.98603c0 -2.7829285 -2.256012 -5.038933 -5.0389404 -5.038933l-250.95898 0l0 0c-0.001178205 0 -0.0021333098 9.536743E-4 -0.0021333098 0.0021362305l0.0021333098 58.986023l0 0c0 2.7829285 2.2560067 5.0389404 5.0389323 5.0389404z" fill-rule="evenodd"/><path stroke="#4a7882" stroke-width="2.0" stroke-linejoin="round" stroke-linecap="butt" d="m5.351333 159.22017l250.959 0c5.493164E-4 0 0.0010986328 -2.2888184E-4 0.0014953613 -6.2561035E-4c3.9672852E-4 -4.119873E-4 6.4086914E-4 -9.460449E-4 6.4086914E-4 -0.0015106201l-0.0021362305 -58.98603c0 -2.7829285 -2.256012 -5.038933 -5.0389404 -5.038933l-250.95898 0l0 0c-0.001178205 0 -0.0021333098 9.536743E-4 -0.0021333098 0.0021362305l0.0021333098 58.986023l0 0c0 2.7829285 2.2560067 5.0389404 5.0389323 5.0389404z" fill-rule="evenodd"/><path fill="#080808" d="m5.351333 255.8497l250.959 0c5.493164E-4 0 0.0010986328 -2.2888184E-4 0.0014953613 -6.2561035E-4c3.9672852E-4 -3.9672852E-4 6.4086914E-4 -9.460449E-4 6.4086914E-4 -0.0015106201l-0.0021362305 -58.986023c0 -2.7829285 -2.256012 -5.0389404 -5.0389404 -5.0389404l-250.95898 0l0 0c-0.001178205 0 -0.0021333098 9.613037E-4 -0.0021333098 0.0021362305l0.0021333098 58.98604l0 0c0 2.7829132 2.2560067 5.038925 5.0389323 5.038925z" fill-rule="evenodd"/><path stroke="#4a7882" stroke-width="2.0" stroke-linejoin="round" stroke-linecap="butt" d="m5.351333 255.8497l250.959 0c5.493164E-4 0 0.0010986328 -2.2888184E-4 0.0014953613 -6.2561035E-4c3.9672852E-4 -3.9672852E-4 6.4086914E-4 -9.460449E-4 6.4086914E-4 -0.0015106201l-0.0021362305 -58.986023c0 -2.7829285 -2.256012 -5.0389404 -5.0389404 -5.0389404l-250.95898 0l0 0c-0.001178205 0 -0.0021333098 9.613037E-4 -0.0021333098 0.0021362305l0.0021333098 58.98604l0 0c0 2.7829132 2.2560067 5.038925 5.0389323 5.038925z" fill-rule="evenodd"/><path fill="#080808" d="m5.351333 63.873672l250.959 0c5.493164E-4 0 0.0010986328 -2.2506714E-4 0.0014953613 -6.2561035E-4c3.9672852E-4 -4.005432E-4 6.4086914E-4 -9.422302E-4 6.4086914E-4 -0.0015068054l-0.0021362305 -58.98603c0 -2.7829251 -2.256012 -5.038932 -5.0389404 -5.038932l-250.95898 0l0 0c-0.001178205 0 -0.0021333098 9.551197E-4 -0.0021333098 0.0021333247l0.0021333098 58.986027l0 0c0 2.7829247 2.2560067 5.038933 5.0389323 5.038933z" fill-rule="evenodd"/><path stroke="#4a7882" stroke-width="2.0" stroke-linejoin="round" stroke-linecap="butt" d="m5.351333 63.873672l250.959 0c5.493164E-4 0 0.0010986328 -2.2506714E-4 0.0014953613 -6.2561035E-4c3.9672852E-4 -4.005432E-4 6.4086914E-4 -9.422302E-4 6.4086914E-4 -0.0015068054l-0.0021362305 -58.98603c0 -2.7829251 -2.256012 -5.038932 -5.0389404 -5.038932l-250.95898 0l0 0c-0.001178205 0 -0.0021333098 9.551197E-4 -0.0021333098 0.0021333247l0.0021333098 58.986027l0 0c0 2.7829247 2.2560067 5.038933 5.0389323 5.038933z" fill-rule="evenodd"/></g></svg>