<svg version="1.1" viewBox="0.0 0.0 128.0 128.0" fill="none" stroke="none" stroke-linecap="square" stroke-miterlimit="10" xmlns:xlink="http://www.w3.org/1999/xlink" xmlns="http://www.w3.org/2000/svg"><clipPath id="p.0"><path d="m0 0l128.0 0l0 128.0l-128.0 0l0 -128.0z" clip-rule="nonzero"/></clipPath><g clip-path="url(#p.0)"><path fill="#000000" fill-opacity="0.0" d="m0 0l128.0 0l0 128.0l-128.0 0z" fill-rule="evenodd"/><path fill="#080808" d="m2.3609684 79.610085l125.47949 0c2.822876E-4 0 5.569458E-4 -1.1444092E-4 7.5531006E-4 -3.1280518E-4c1.9836426E-4 -2.0599365E-4 3.1280518E-4 -4.7302246E-4 3.1280518E-4 -7.5531006E-4l-0.0010681152 -29.493015c0 -1.3914642 -1.128006 -2.5194664 -2.5194626 -2.5194664l-125.4795 0l0 0c-5.891025E-4 0 -0.0010666549 4.7683716E-4 -0.0010666549 0.0010681152l0.0010666549 29.493011l0 0c0 1.3914642 1.1280034 2.5194702 2.5194662 2.5194702z" fill-rule="evenodd"/><path stroke="#4a7882" stroke-width="1.0" stroke-linejoin="round" stroke-linecap="butt" d="m2.3609684 79.610085l125.47949 0c2.822876E-4 0 5.569458E-4 -1.1444092E-4 7.5531006E-4 -3.1280518E-4c1.9836426E-4 -2.0599365E-4 3.1280518E-4 -4.7302246E-4 3.1280518E-4 -7.5531006E-4l-0.0010681152 -29.493015c0 -1.3914642 -1.128006 -2.5194664 -2.5194626 -2.5194664l-125.4795 0l0 0c-5.891025E-4 0 -0.0010666549 4.7683716E-4 -0.0010666549 0.0010681152l0.0010666549 29.493011l0 0c0 1.3914642 1.1280034 2.5194702 2.5194662 2.5194702z" fill-rule="evenodd"/><path fill="#080808" d="m2.3609684 127.92485l125.47949 0c2.822876E-4 0 5.569458E-4 -1.1444092E-4 7.5531006E-4 -3.1280518E-4c1.9836426E-4 -1.9836426E-4 3.1280518E-4 -4.7302246E-4 3.1280518E-4 -7.5531006E-4l-0.0010681152 -29.493011c0 -1.3914642 -1.128006 -2.5194702 -2.5194626 -2.5194702l-125.4795 0l0 0c-5.891025E-4 0 -0.0010666549 4.8065186E-4 -0.0010666549 0.0010681152l0.0010666549 29.49302l0 0c0 1.3914566 1.1280034 2.5194626 2.5194662 2.5194626z" fill-rule="evenodd"/><path stroke="#4a7882" stroke-width="1.0" stroke-linejoin="round" stroke-linecap="butt" d="m2.3609684 127.92485l125.47949 0c2.822876E-4 0 5.569458E-4 -1.1444092E-4 7.5531006E-4 -3.1280518E-4c1.9836426E-4 -1.9836426E-4 3.1280518E-4 -4.7302246E-4 3.1280518E-4 -7.5531006E-4l-0.0010681152 -29.493011c0 -1.3914642 -1.128006 -2.5194702 -2.5194626 -2.5194702l-125.4795 0l0 0c-5.891025E-4 0 -0.0010666549 4.8065186E-4 -0.0010666549 0.0010681152l0.0010666549 29.49302l0 0c0 1.3914566 1.1280034 2.5194626 2.5194662 2.5194626z" fill-rule="evenodd"/><path fill="#080808" d="m2.3609684 31.936836l125.47949 0c2.822876E-4 0 5.569458E-4 -1.1253357E-4 7.5531006E-4 -3.1280518E-4c1.9836426E-4 -2.002716E-4 3.1280518E-4 -4.711151E-4 3.1280518E-4 -7.534027E-4l-0.0010681152 -29.493015c0 -1.3914626 -1.128006 -2.519466 -2.5194626 -2.519466l-125.4795 0l0 0c-5.891025E-4 0 -0.0010666549 4.7755986E-4 -0.0010666549 0.0010666624l0.0010666549 29.493013l0 0c0 1.3914623 1.1280034 2.5194664 2.5194662 2.5194664z" fill-rule="evenodd"/><path stroke="#4a7882" stroke-width="1.0" stroke-linejoin="round" stroke-linecap="butt" d="m2.3609684 31.936836l125.47949 0c2.822876E-4 0 5.569458E-4 -1.1253357E-4 7.5531006E-4 -3.1280518E-4c1.9836426E-4 -2.002716E-4 3.1280518E-4 -4.711151E-4 3.1280518E-4 -7.534027E-4l-0.0010681152 -29.493015c0 -1.3914626 -1.128006 -2.519466 -2.5194626 -2.519466l-125.4795 0l0 0c-5.891025E-4 0 -0.0010666549 4.7755986E-4 -0.0010666549 0.0010666624l0.0010666549 29.493013l0 0c0 1.3914623 1.1280034 2.5194664 2.5194662 2.5194664z" fill-rule="evenodd"/></g></svg>