<svg version="1.1" viewBox="0.0 0.0 256.0 256.0" fill="none" stroke="none" stroke-linecap="square" stroke-miterlimit="10" xmlns:xlink="http://www.w3.org/1999/xlink" xmlns="http://www.w3.org/2000/svg"><clipPath id="p.0"><path d="m0 0l256.0 0l0 256.0l-256.0 0l0 -256.0z" clip-rule="nonzero"/></clipPath><g clip-path="url(#p.0)"><path fill="#000000" fill-opacity="0.0" d="m0 0l256.0 0l0 256.0l-256.0 0z" fill-rule="evenodd"/><path fill="#000000" fill-opacity="0.0" d="m5.038095 159.37462l250.95898 0c5.645752E-4 0 0.0011138916 -2.2888184E-4 0.0015106201 -6.2561035E-4c3.9672852E-4 -3.9672852E-4 6.2561035E-4 -9.460449E-4 6.2561035E-4 -0.0015106201l-0.0021362305 -58.986023c0 -2.7829285 -2.256012 -5.038933 -5.0389404 -5.038933l-250.95898 0l0 0c-0.0011781978 0 -0.002133316 9.536743E-4 -0.002133316 0.0021362305l0.002133316 58.98603l0 0c0 2.7829132 2.2560067 5.038925 5.038932 5.038925z" fill-rule="evenodd"/><path stroke="#828282" stroke-width="2.0" stroke-linejoin="round" stroke-linecap="butt" d="m5.038095 159.37462l250.95898 0c5.645752E-4 0 0.0011138916 -2.2888184E-4 0.0015106201 -6.2561035E-4c3.9672852E-4 -3.9672852E-4 6.2561035E-4 -9.460449E-4 6.2561035E-4 -0.0015106201l-0.0021362305 -58.986023c0 -2.7829285 -2.256012 -5.038933 -5.0389404 -5.038933l-250.95898 0l0 0c-0.0011781978 0 -0.002133316 9.536743E-4 -0.002133316 0.0021362305l0.002133316 58.98603l0 0c0 2.7829132 2.2560067 5.038925 5.038932 5.038925z" fill-rule="evenodd"/><path fill="#000000" fill-opacity="0.0" d="m5.038095 256.00415l250.95898 0c5.645752E-4 0 0.0011138916 -2.1362305E-4 0.0015106201 -6.1035156E-4c3.9672852E-4 -3.9672852E-4 6.2561035E-4 -9.460449E-4 6.2561035E-4 -0.0015258789l-0.0021362305 -58.986023c0 -2.7829132 -2.256012 -5.038925 -5.0389404 -5.038925l-250.95898 0l0 0c-0.0011781978 0 -0.002133316 9.460449E-4 -0.002133316 0.0021362305l0.002133316 58.986023l0 0c0 2.7829285 2.2560067 5.038925 5.038932 5.038925z" fill-rule="evenodd"/><path stroke="#828282" stroke-width="2.0" stroke-linejoin="round" stroke-linecap="butt" d="m5.038095 256.00415l250.95898 0c5.645752E-4 0 0.0011138916 -2.1362305E-4 0.0015106201 -6.1035156E-4c3.9672852E-4 -3.9672852E-4 6.2561035E-4 -9.460449E-4 6.2561035E-4 -0.0015258789l-0.0021362305 -58.986023c0 -2.7829132 -2.256012 -5.038925 -5.0389404 -5.038925l-250.95898 0l0 0c-0.0011781978 0 -0.002133316 9.460449E-4 -0.002133316 0.0021362305l0.002133316 58.986023l0 0c0 2.7829285 2.2560067 5.038925 5.038932 5.038925z" fill-rule="evenodd"/><path fill="#000000" fill-opacity="0.0" d="m5.038095 64.02813l250.95898 0c5.645752E-4 0 0.0011138916 -2.2888184E-4 0.0015106201 -6.2561035E-4c3.9672852E-4 -3.9672852E-4 6.2561035E-4 -9.460449E-4 6.2561035E-4 -0.0015106201l-0.0021362305 -58.986027c0 -2.7829254 -2.256012 -5.0389323 -5.0389404 -5.0389323l-250.95898 0l0 0c-0.0011781978 0 -0.002133316 9.551181E-4 -0.002133316 0.002133316l0.002133316 58.986027l0 0c0 2.7829247 2.2560067 5.038933 5.038932 5.038933z" fill-rule="evenodd"/><path stroke="#828282" stroke-width="2.0" stroke-linejoin="round" stroke-linecap="butt" d="m5.038095 64.02813l250.95898 0c5.645752E-4 0 0.0011138916 -2.2888184E-4 0.0015106201 -6.2561035E-4c3.9672852E-4 -3.9672852E-4 6.2561035E-4 -9.460449E-4 6.2561035E-4 -0.0015106201l-0.0021362305 -58.986027c0 -2.7829254 -2.256012 -5.0389323 -5.0389404 -5.0389323l-250.95898 0l0 0c-0.0011781978 0 -0.002133316 9.551181E-4 -0.002133316 0.002133316l0.002133316 58.986027l0 0c0 2.7829247 2.2560067 5.038933 5.038932 5.038933z" fill-rule="evenodd"/></g></svg>