<svg version="1.1" viewBox="0.0 0.0 32.0 32.0" fill="none" stroke="none" stroke-linecap="square" stroke-miterlimit="10" xmlns:xlink="http://www.w3.org/1999/xlink" xmlns="http://www.w3.org/2000/svg"><clipPath id="p.0"><path d="m0 0l32.0 0l0 32.0l-32.0 0l0 -32.0z" clip-rule="nonzero"/></clipPath><g clip-path="url(#p.0)"><path fill="#000000" fill-opacity="0.0" d="m0 0l32.0 0l0 32.0l-32.0 0z" fill-rule="evenodd"/><path fill="#000000" fill-opacity="0.0" d="m0.6269241 19.92255l31.372917 0c7.247925E-5 0 1.3923645E-4 -2.861023E-5 1.8882751E-4 -7.8201294E-5c4.9591064E-5 -4.9591064E-5 8.010864E-5 -1.18255615E-4 8.010864E-5 -1.8882751E-4l-2.6893616E-4 -7.3406515c0 -0.34632778 -0.2807541 -0.6270819 -0.6270809 -0.6270819l-31.37292 0l0 0c-1.4727593E-4 0 -2.6666664E-4 1.1920929E-4 -2.6666664E-4 2.670288E-4l2.6666664E-4 7.3406506l0 0c0 0.34632874 0.280754 0.6270828 0.6270816 0.6270828z" fill-rule="evenodd"/><path stroke="#828282" stroke-width="1.0" stroke-linejoin="round" stroke-linecap="butt" d="m0.6269241 19.92255l31.372917 0c7.247925E-5 0 1.3923645E-4 -2.861023E-5 1.8882751E-4 -7.8201294E-5c4.9591064E-5 -4.9591064E-5 8.010864E-5 -1.18255615E-4 8.010864E-5 -1.8882751E-4l-2.6893616E-4 -7.3406515c0 -0.34632778 -0.2807541 -0.6270819 -0.6270809 -0.6270819l-31.37292 0l0 0c-1.4727593E-4 0 -2.6666664E-4 1.1920929E-4 -2.6666664E-4 2.670288E-4l2.6666664E-4 7.3406506l0 0c0 0.34632874 0.280754 0.6270828 0.6270816 0.6270828z" fill-rule="evenodd"/><path fill="#000000" fill-opacity="0.0" d="m0.6269241 32.018852l31.372917 0c7.247925E-5 0 1.3923645E-4 -2.670288E-5 1.8882751E-4 -8.010864E-5c4.9591064E-5 -4.9591064E-5 8.010864E-5 -1.1444092E-4 8.010864E-5 -1.8692017E-4l-2.6893616E-4 -7.3406506c0 -0.34632874 -0.2807541 -0.6270828 -0.6270809 -0.6270828l-31.37292 0l0 0c-1.4727593E-4 0 -2.6666664E-4 1.20162964E-4 -2.6666664E-4 2.670288E-4l2.6666664E-4 7.3406525l0 0c0 0.34632683 0.280754 0.6270809 0.6270816 0.6270809z" fill-rule="evenodd"/><path stroke="#828282" stroke-width="1.0" stroke-linejoin="round" stroke-linecap="butt" d="m0.6269241 32.018852l31.372917 0c7.247925E-5 0 1.3923645E-4 -2.670288E-5 1.8882751E-4 -8.010864E-5c4.9591064E-5 -4.9591064E-5 8.010864E-5 -1.1444092E-4 8.010864E-5 -1.8692017E-4l-2.6893616E-4 -7.3406506c0 -0.34632874 -0.2807541 -0.6270828 -0.6270809 -0.6270828l-31.37292 0l0 0c-1.4727593E-4 0 -2.6666664E-4 1.20162964E-4 -2.6666664E-4 2.670288E-4l2.6666664E-4 7.3406525l0 0c0 0.34632683 0.280754 0.6270809 0.6270816 0.6270809z" fill-rule="evenodd"/><path fill="#000000" fill-opacity="0.0" d="m0.6269241 7.986862l31.372917 0c7.247925E-5 0 1.3923645E-4 -2.8133392E-5 1.8882751E-4 -7.8201294E-5c4.9591064E-5 -5.00679E-5 8.010864E-5 -1.1777878E-4 8.010864E-5 -1.8835068E-4l-2.6893616E-4 -7.340652c0 -0.34632763 -0.2807541 -0.62708163 -0.6270809 -0.62708163l-31.37292 0l0 0c-1.4727593E-4 0 -2.6666664E-4 1.19389966E-4 -2.6666664E-4 2.6666746E-4l2.6666664E-4 7.340652l0 0c0 0.3463273 0.280754 0.6270814 0.6270816 0.6270814z" fill-rule="evenodd"/><path stroke="#828282" stroke-width="1.0" stroke-linejoin="round" stroke-linecap="butt" d="m0.6269241 7.986862l31.372917 0c7.247925E-5 0 1.3923645E-4 -2.8133392E-5 1.8882751E-4 -7.8201294E-5c4.9591064E-5 -5.00679E-5 8.010864E-5 -1.1777878E-4 8.010864E-5 -1.8835068E-4l-2.6893616E-4 -7.340652c0 -0.34632763 -0.2807541 -0.62708163 -0.6270809 -0.62708163l-31.37292 0l0 0c-1.4727593E-4 0 -2.6666664E-4 1.19389966E-4 -2.6666664E-4 2.6666746E-4l2.6666664E-4 7.340652l0 0c0 0.3463273 0.280754 0.6270814 0.6270816 0.6270814z" fill-rule="evenodd"/></g></svg>