<svg version="1.1" viewBox="0.0 0.0 16.0 16.0" fill="none" stroke="none" stroke-linecap="square" stroke-miterlimit="10" xmlns:xlink="http://www.w3.org/1999/xlink" xmlns="http://www.w3.org/2000/svg"><clipPath id="p.0"><path d="m0 0l16.0 0l0 16.0l-16.0 0l0 -16.0z" clip-rule="nonzero"/></clipPath><g clip-path="url(#p.0)"><path fill="#000000" fill-opacity="0.0" d="m0 0l16.0 0l0 16.0l-16.0 0z" fill-rule="evenodd"/><path fill="#000000" fill-opacity="0.0" d="m0.31357104 9.961192l15.688319 0c3.4332275E-5 0 6.866455E-5 -1.335144E-5 9.346008E-5 -3.9100647E-5c2.4795532E-5 -2.4795532E-5 4.005432E-5 -5.8174133E-5 4.005432E-5 -9.346008E-5l-1.335144E-4 -3.6485548c0 -0.1721363 -0.13954449 -0.3116808 -0.3116808 -0.3116808l-15.688319 0l0 0c-7.363793E-5 0 -1.3333338E-4 5.9604645E-5 -1.3333338E-4 1.335144E-4l1.3333338E-4 3.6485538l0 0c0 0.17213726 0.13954432 0.3116808 0.311681 0.3116808z" fill-rule="evenodd"/><path stroke="#828282" stroke-width="1.0" stroke-linejoin="round" stroke-linecap="butt" d="m0.31357104 9.961192l15.688319 0c3.4332275E-5 0 6.866455E-5 -1.335144E-5 9.346008E-5 -3.9100647E-5c2.4795532E-5 -2.4795532E-5 4.005432E-5 -5.8174133E-5 4.005432E-5 -9.346008E-5l-1.335144E-4 -3.6485548c0 -0.1721363 -0.13954449 -0.3116808 -0.3116808 -0.3116808l-15.688319 0l0 0c-7.363793E-5 0 -1.3333338E-4 5.9604645E-5 -1.3333338E-4 1.335144E-4l1.3333338E-4 3.6485538l0 0c0 0.17213726 0.13954432 0.3116808 0.311681 0.3116808z" fill-rule="evenodd"/><path fill="#000000" fill-opacity="0.0" d="m0.31357104 16.021185l15.688319 0c3.4332275E-5 0 6.866455E-5 -1.335144E-5 9.346008E-5 -3.8146973E-5c2.4795532E-5 -2.670288E-5 4.005432E-5 -5.9127808E-5 4.005432E-5 -9.536743E-5l-1.335144E-4 -3.6485538c0 -0.17213726 -0.13954449 -0.3116808 -0.3116808 -0.3116808l-15.688319 0l0 0c-7.363793E-5 0 -1.3333338E-4 5.9127808E-5 -1.3333338E-4 1.3256073E-4l1.3333338E-4 3.6485548l0 0c0 0.1721363 0.13954432 0.3116808 0.311681 0.3116808z" fill-rule="evenodd"/><path stroke="#828282" stroke-width="1.0" stroke-linejoin="round" stroke-linecap="butt" d="m0.31357104 16.021185l15.688319 0c3.4332275E-5 0 6.866455E-5 -1.335144E-5 9.346008E-5 -3.8146973E-5c2.4795532E-5 -2.670288E-5 4.005432E-5 -5.9127808E-5 4.005432E-5 -9.536743E-5l-1.335144E-4 -3.6485538c0 -0.17213726 -0.13954449 -0.3116808 -0.3116808 -0.3116808l-15.688319 0l0 0c-7.363793E-5 0 -1.3333338E-4 5.9127808E-5 -1.3333338E-4 1.3256073E-4l1.3333338E-4 3.6485548l0 0c0 0.1721363 0.13954432 0.3116808 0.311681 0.3116808z" fill-rule="evenodd"/><path fill="#000000" fill-opacity="0.0" d="m0.31357104 3.9816647l15.688319 0c3.4332275E-5 0 6.866455E-5 -1.4066696E-5 9.346008E-5 -3.9100647E-5c2.4795532E-5 -2.503395E-5 4.005432E-5 -5.888939E-5 4.005432E-5 -9.417534E-5l-1.335144E-4 -3.6485543c0 -0.17213666 -0.13954449 -0.311681 -0.3116808 -0.311681l-15.688319 0l0 0c-7.363793E-5 0 -1.3333338E-4 5.9695914E-5 -1.3333338E-4 1.3333373E-4l1.3333338E-4 3.648554l0 0c0 0.17213678 0.13954432 0.31168103 0.311681 0.31168103z" fill-rule="evenodd"/><path stroke="#828282" stroke-width="1.0" stroke-linejoin="round" stroke-linecap="butt" d="m0.31357104 3.9816647l15.688319 0c3.4332275E-5 0 6.866455E-5 -1.4066696E-5 9.346008E-5 -3.9100647E-5c2.4795532E-5 -2.503395E-5 4.005432E-5 -5.888939E-5 4.005432E-5 -9.417534E-5l-1.335144E-4 -3.6485543c0 -0.17213666 -0.13954449 -0.311681 -0.3116808 -0.311681l-15.688319 0l0 0c-7.363793E-5 0 -1.3333338E-4 5.9695914E-5 -1.3333338E-4 1.3333373E-4l1.3333338E-4 3.648554l0 0c0 0.17213678 0.13954432 0.31168103 0.311681 0.31168103z" fill-rule="evenodd"/></g></svg>