<svg version="1.1" viewBox="0.0 0.0 100.0 100.0" fill="none" stroke="none" stroke-linecap="square" stroke-miterlimit="10" xmlns:xlink="http://www.w3.org/1999/xlink" xmlns="http://www.w3.org/2000/svg"><clipPath id="p.0"><path d="m0 0l100.0 0l0 100.0l-100.0 0l0 -100.0z" clip-rule="nonzero"/></clipPath><g clip-path="url(#p.0)"><path fill="#000000" fill-opacity="0.0" d="m0 0l100.0 0l0 100.0l-100.0 0z" fill-rule="evenodd"/><path fill="#f9fdff" d="m25.981144 56.283466l49.02673 0c1.1444092E-4 0 2.1362305E-4 -4.5776367E-5 2.975464E-4 -1.2207031E-4c7.6293945E-5 -8.010864E-5 1.2207031E-4 -1.8692017E-4 1.2207031E-4 -2.975464E-4l-4.196167E-4 -11.577496c0 -0.5462189 -0.4427948 -0.9890175 -0.9890137 -0.9890175l-49.026733 0l0 0c-2.3078918E-4 0 -4.1770935E-4 1.8692017E-4 -4.1770935E-4 4.196167E-4l4.1770935E-4 11.577496l0 0c0 0.5462189 0.4427967 0.9890175 0.9890175 0.9890175z" fill-rule="evenodd"/><path stroke="#f9fdff" stroke-width="1.0" stroke-linejoin="round" stroke-linecap="butt" d="m25.981144 56.283466l49.02673 0c1.1444092E-4 0 2.1362305E-4 -4.5776367E-5 2.975464E-4 -1.2207031E-4c7.6293945E-5 -8.010864E-5 1.2207031E-4 -1.8692017E-4 1.2207031E-4 -2.975464E-4l-4.196167E-4 -11.577496c0 -0.5462189 -0.4427948 -0.9890175 -0.9890137 -0.9890175l-49.026733 0l0 0c-2.3078918E-4 0 -4.1770935E-4 1.8692017E-4 -4.1770935E-4 4.196167E-4l4.1770935E-4 11.577496l0 0c0 0.5462189 0.4427967 0.9890175 0.9890175 0.9890175z" fill-rule="evenodd"/><path fill="#f9fdff" d="m25.981144 78.44095l49.02673 0c1.1444092E-4 0 2.1362305E-4 -4.5776367E-5 2.975464E-4 -1.2207031E-4c7.6293945E-5 -8.392334E-5 1.2207031E-4 -1.9073486E-4 1.2207031E-4 -2.975464E-4l-4.196167E-4 -11.577499c0 -0.5462189 -0.4427948 -0.9890137 -0.9890137 -0.9890137l-49.026733 0l0 0c-2.3078918E-4 0 -4.1770935E-4 1.8310547E-4 -4.1770935E-4 4.196167E-4l4.1770935E-4 11.577492l0 0c0 0.5462189 0.4427967 0.9890213 0.9890175 0.9890213z" fill-rule="evenodd"/><path stroke="#f9fdff" stroke-width="1.0" stroke-linejoin="round" stroke-linecap="butt" d="m25.981144 78.44095l49.02673 0c1.1444092E-4 0 2.1362305E-4 -4.5776367E-5 2.975464E-4 -1.2207031E-4c7.6293945E-5 -8.392334E-5 1.2207031E-4 -1.9073486E-4 1.2207031E-4 -2.975464E-4l-4.196167E-4 -11.577499c0 -0.5462189 -0.4427948 -0.9890137 -0.9890137 -0.9890137l-49.026733 0l0 0c-2.3078918E-4 0 -4.1770935E-4 1.8310547E-4 -4.1770935E-4 4.196167E-4l4.1770935E-4 11.577492l0 0c0 0.5462189 0.4427967 0.9890213 0.9890175 0.9890213z" fill-rule="evenodd"/><path fill="#f9fdff" d="m25.981144 34.125984l49.02673 0c1.1444092E-4 0 2.1362305E-4 -4.196167E-5 2.975464E-4 -1.2207031E-4c7.6293945E-5 -7.6293945E-5 1.2207031E-4 -1.8310547E-4 1.2207031E-4 -2.937317E-4l-4.196167E-4 -11.577496c0 -0.5462189 -0.4427948 -0.9890175 -0.9890137 -0.9890175l-49.026733 0l0 0c-2.3078918E-4 0 -4.1770935E-4 1.8692017E-4 -4.1770935E-4 4.15802E-4l4.1770935E-4 11.577496l0 0c0 0.5462189 0.4427967 0.9890175 0.9890175 0.9890175z" fill-rule="evenodd"/><path stroke="#f9fdff" stroke-width="1.0" stroke-linejoin="round" stroke-linecap="butt" d="m25.981144 34.125984l49.02673 0c1.1444092E-4 0 2.1362305E-4 -4.196167E-5 2.975464E-4 -1.2207031E-4c7.6293945E-5 -7.6293945E-5 1.2207031E-4 -1.8310547E-4 1.2207031E-4 -2.937317E-4l-4.196167E-4 -11.577496c0 -0.5462189 -0.4427948 -0.9890175 -0.9890137 -0.9890175l-49.026733 0l0 0c-2.3078918E-4 0 -4.1770935E-4 1.8692017E-4 -4.1770935E-4 4.15802E-4l4.1770935E-4 11.577496l0 0c0 0.5462189 0.4427967 0.9890175 0.9890175 0.9890175z" fill-rule="evenodd"/></g></svg>