<svg version="1.1" viewBox="0.0 0.0 113.2992125984252 100.0" fill="none" stroke="none" stroke-linecap="square" stroke-miterlimit="10" xmlns:xlink="http://www.w3.org/1999/xlink" xmlns="http://www.w3.org/2000/svg"><clipPath id="p.0"><path d="m0 0l113.29921 0l0 100.0l-113.29921 0l0 -100.0z" clip-rule="nonzero"/></clipPath><g clip-path="url(#p.0)"><path fill="#000000" fill-opacity="0.0" d="m0 0l113.29921 0l0 100.0l-113.29921 0z" fill-rule="evenodd"/><path fill="#000000" fill-opacity="0.0" d="m48.158943 73.49344l-22.582676 -9.889767l5.165354 -5.7322807z" fill-rule="evenodd"/><path stroke="#d1efff" stroke-width="1.0" stroke-linejoin="round" stroke-linecap="butt" d="m48.158943 73.49344l-22.582676 -9.889767l5.165354 -5.7322807z" fill-rule="evenodd"/><path fill="#000000" fill-opacity="0.0" d="m24.54352 17.257221l21.93701 17.653542l-15.669292 23.38583z" fill-rule="evenodd"/><path stroke="#d1efff" stroke-width="1.0" stroke-linejoin="round" stroke-linecap="butt" d="m24.54352 17.257221l21.93701 17.653542l-15.669292 23.38583z" fill-rule="evenodd"/><path fill="#000000" fill-opacity="0.0" d="m46.074802 34.889763l10.283466 -1.7637787l10.283463 1.7637787z" fill-rule="evenodd"/><path stroke="#d1efff" stroke-width="1.0" stroke-linejoin="round" stroke-linecap="butt" d="m46.074802 34.889763l10.283466 -1.7637787l10.283463 1.7637787z" fill-rule="evenodd"/><path fill="#000000" fill-opacity="0.0" d="m56.360023 33.19423l-9.929752 1.8019791l-21.881273 -17.455524z" fill-rule="evenodd"/><path stroke="#d1efff" stroke-width="1.0" stroke-linejoin="round" stroke-linecap="butt" d="m56.360023 33.19423l-9.929752 1.8019791l-21.881273 -17.455524z" fill-rule="evenodd"/><path fill="#c4d5fa" d="m88.02908 17.257221l-21.937004 17.653542l15.669289 23.38583z" fill-rule="evenodd"/><path stroke="#d1efff" stroke-width="1.0" stroke-linejoin="round" stroke-linecap="butt" d="m88.02908 17.257221l-21.937004 17.653542l15.669289 23.38583z" fill-rule="evenodd"/><path fill="#8daef6" d="m64.20356 73.91863l22.58268 -9.889763l-5.165352 -5.7322845z" fill-rule="evenodd"/><path stroke="#d1efff" stroke-width="1.0" stroke-linejoin="round" stroke-linecap="butt" d="m64.20356 73.91863l22.58268 -9.889763l-5.165352 -5.7322845z" fill-rule="evenodd"/><path fill="#8daef6" d="m56.38868 33.068237l9.919998 1.9643364l21.576065 -17.460398z" fill-rule="evenodd"/><path stroke="#d1efff" stroke-width="1.0" stroke-linejoin="round" stroke-linecap="butt" d="m56.38868 33.068237l9.919998 1.9643364l21.576065 -17.460398z" fill-rule="evenodd"/><path fill="#000000" fill-opacity="0.0" d="m56.452507 81.02099l-25.511648 -22.935188l15.306921 -23.238037z" fill-rule="evenodd"/><path stroke="#d1efff" stroke-width="1.0" stroke-linejoin="round" stroke-linecap="butt" d="m56.452507 81.02099l-25.511648 -22.935188l15.306921 -23.238037z" fill-rule="evenodd"/><path fill="#8de2f6" d="m56.36064 81.02099l25.51165 -22.935188l-15.306923 -23.238037z" fill-rule="evenodd"/><path stroke="#d1efff" stroke-width="1.0" stroke-linejoin="round" stroke-linecap="butt" d="m56.36064 81.02099l25.51165 -22.935188l-15.306923 -23.238037z" fill-rule="evenodd"/><path fill="#c4f0fa" d="m56.442257 34.874016l10.2362175 0l-10.2362175 46.29921z" fill-rule="evenodd"/><path stroke="#d1efff" stroke-width="1.0" stroke-linejoin="round" stroke-linecap="butt" d="m56.442257 34.874016l10.2362175 0l-10.2362175 46.29921z" fill-rule="evenodd"/><path fill="#000000" fill-opacity="0.0" d="m56.452755 34.874016l-10.236221 0l10.236221 46.29921z" fill-rule="evenodd"/><path stroke="#d1efff" stroke-width="1.0" stroke-linejoin="round" stroke-linecap="butt" d="m56.452755 34.874016l-10.236221 0l10.236221 46.29921z" fill-rule="evenodd"/><path fill="#000000" fill-opacity="0.0" d="m30.783379 58.295773l25.669292 4.9763794" fill-rule="evenodd"/><path stroke="#d1efff" stroke-width="1.0" stroke-linejoin="round" stroke-linecap="butt" d="m30.783379 58.295773l25.669292 4.9763794" fill-rule="evenodd"/><path fill="#000000" fill-opacity="0.0" d="m82.0301 58.295773l-25.669292 4.9763794" fill-rule="evenodd"/><path stroke="#d1efff" stroke-width="1.0" stroke-linejoin="round" stroke-linecap="butt" d="m82.0301 58.295773l-25.669292 4.9763794" fill-rule="evenodd"/></g></svg>