<svg version="1.1" viewBox="0.0 0.0 571.5879265091863 100.0" fill="none" stroke="none" stroke-linecap="square" stroke-miterlimit="10" xmlns:xlink="http://www.w3.org/1999/xlink" xmlns="http://www.w3.org/2000/svg"><clipPath id="p.0"><path d="m0 0l571.58795 0l0 100.0l-571.58795 0l0 -100.0z" clip-rule="nonzero"/></clipPath><g clip-path="url(#p.0)"><path fill="#000000" fill-opacity="0.0" d="m0 0l571.58795 0l0 100.0l-571.58795 0z" fill-rule="evenodd"/><defs><linearGradient id="p.1" gradientUnits="userSpaceOnUse" gradientTransform="matrix(23.904666298991536 0.0 0.0 23.904666298991536 0.0 0.0)" spreadMethod="pad" x1="0.003239025408423131" y1="4.183282376392959" x2="23.90790532439996" y2="4.183282376392959"><stop offset="0.0" stop-color="#0d0d0d"/><stop offset="0.78" stop-color="#434343"/><stop offset="1.0" stop-color="#585858"/></linearGradient></defs><path fill="url(#p.1)" d="m0.07742782 50.0l25.0 -49.999977l521.43304 0l25.0 49.999977l-25.0 49.999977l-521.43304 0z" fill-rule="evenodd"/><path fill="#f9fdff" d="m55.686504 73.64567l-22.58268 -9.889763l5.1653557 -5.7322807z" fill-rule="evenodd"/><path stroke="#d1efff" stroke-width="1.0" stroke-linejoin="round" stroke-linecap="butt" d="m55.686504 73.64567l-22.58268 -9.889763l5.1653557 -5.7322807z" fill-rule="evenodd"/><path fill="#f9fdff" d="m32.07108 17.409454l21.937008 17.653542l-15.669292 23.385826z" fill-rule="evenodd"/><path stroke="#d1efff" stroke-width="1.0" stroke-linejoin="round" stroke-linecap="butt" d="m32.07108 17.409454l21.937008 17.653542l-15.669292 23.385826z" fill-rule="evenodd"/><path fill="#f9fdff" d="m53.602364 35.041996l10.283463 -1.7637787l10.283463 1.7637787z" fill-rule="evenodd"/><path stroke="#d1efff" stroke-width="1.0" stroke-linejoin="round" stroke-linecap="butt" d="m53.602364 35.041996l10.283463 -1.7637787l10.283463 1.7637787z" fill-rule="evenodd"/><path fill="#f9fdff" d="m63.88758 33.346462l-9.929752 1.8019791l-21.881271 -17.455524z" fill-rule="evenodd"/><path stroke="#d1efff" stroke-width="1.0" stroke-linejoin="round" stroke-linecap="butt" d="m63.88758 33.346462l-9.929752 1.8019791l-21.881271 -17.455524z" fill-rule="evenodd"/><path fill="#c4d5fa" d="m95.55664 17.409454l-21.937004 17.653542l15.669289 23.385826z" fill-rule="evenodd"/><path stroke="#d1efff" stroke-width="1.0" stroke-linejoin="round" stroke-linecap="butt" d="m95.55664 17.409454l-21.937004 17.653542l15.669289 23.385826z" fill-rule="evenodd"/><path fill="#8daef6" d="m71.731125 74.07087l22.582672 -9.889763l-5.165352 -5.7322884z" fill-rule="evenodd"/><path stroke="#d1efff" stroke-width="1.0" stroke-linejoin="round" stroke-linecap="butt" d="m71.731125 74.07087l22.582672 -9.889763l-5.165352 -5.7322884z" fill-rule="evenodd"/><path fill="#8daef6" d="m63.916237 33.22047l9.919998 1.9643364l21.576065 -17.4604z" fill-rule="evenodd"/><path stroke="#d1efff" stroke-width="1.0" stroke-linejoin="round" stroke-linecap="butt" d="m63.916237 33.22047l9.919998 1.9643364l21.576065 -17.4604z" fill-rule="evenodd"/><path fill="#f9fdff" d="m63.980064 81.173225l-25.511646 -22.935192l15.306923 -23.238037z" fill-rule="evenodd"/><path stroke="#d1efff" stroke-width="1.0" stroke-linejoin="round" stroke-linecap="butt" d="m63.980064 81.173225l-25.511646 -22.935192l15.306923 -23.238037z" fill-rule="evenodd"/><path fill="#8de2f6" d="m63.888203 81.173225l25.511646 -22.935192l-15.306923 -23.238037z" fill-rule="evenodd"/><path stroke="#d1efff" stroke-width="1.0" stroke-linejoin="round" stroke-linecap="butt" d="m63.888203 81.173225l25.511646 -22.935192l-15.306923 -23.238037z" fill-rule="evenodd"/><path fill="#c4f0fa" d="m63.96982 35.02625l10.236221 0l-10.236221 46.299213z" fill-rule="evenodd"/><path stroke="#d1efff" stroke-width="1.0" stroke-linejoin="round" stroke-linecap="butt" d="m63.96982 35.02625l10.236221 0l-10.236221 46.299213z" fill-rule="evenodd"/><path fill="#f9fdff" d="m63.980316 35.02625l-10.236221 0l10.236221 46.299213z" fill-rule="evenodd"/><path stroke="#d1efff" stroke-width="1.0" stroke-linejoin="round" stroke-linecap="butt" d="m63.980316 35.02625l-10.236221 0l10.236221 46.299213z" fill-rule="evenodd"/><path fill="#000000" fill-opacity="0.0" d="m38.31094 58.448006l25.669289 4.9763794" fill-rule="evenodd"/><path stroke="#d1efff" stroke-width="1.0" stroke-linejoin="round" stroke-linecap="butt" d="m38.31094 58.448006l25.669289 4.9763794" fill-rule="evenodd"/><path fill="#000000" fill-opacity="0.0" d="m89.557655 58.448006l-25.669289 4.9763794" fill-rule="evenodd"/><path stroke="#d1efff" stroke-width="1.0" stroke-linejoin="round" stroke-linecap="butt" d="m89.557655 58.448006l-25.669289 4.9763794" fill-rule="evenodd"/><path fill="#000000" fill-opacity="0.0" d="m106.874016 18.188976l467.43304 0l0 63.622044l-467.43304 0z" fill-rule="evenodd"/><path fill="#f9fdff" d="m136.63963 51.095623q0.46875 0.90625 0.90625 1.890625q0.453125 0.984375 0.859375 2.015625q0.40625 -1.046875 0.859375 -2.046875q0.46875 -1.0 0.9375 -1.9375l8.984375 -17.65625q0.234375 -0.453125 0.484375 -0.703125q0.265625 -0.265625 0.578125 -0.375q0.3125 -0.125 0.703125 -0.140625q0.390625 -0.03125 0.921875 -0.03125l6.1875 0l0 34.968754l-7.140625 0l0 -20.109379q0 -1.46875 0.140625 -3.171875l-9.265625 17.984375q-0.4375 0.828125 -1.171875 1.265625q-0.71875 0.4375 -1.65625 0.4375l-1.109375 0q-0.9375 0 -1.671875 -0.4375q-0.734375 -0.4375 -1.15625 -1.265625l-9.312492 -18.0q0.09375 0.828125 0.140625 1.65625q0.046875 0.828125 0.046875 1.53125l0 20.109379l-7.15625 0l0 -34.968754l6.203125 0q0.515625 0 0.90625 0.03125q0.40625 0.015625 0.71875 0.140625q0.3125 0.109375 0.5625 0.375q0.25 0.25 0.5 0.703125l8.999992 17.734375l0 0zm44.368744 15.984379q-1.046875 0 -1.59375 -0.28125q-0.546875 -0.296875 -0.90625 -1.203125l-0.515625 -1.375q-0.9375 0.796875 -1.8125 1.40625q-0.859375 0.59375 -1.78125 1.015625q-0.921875 0.40625 -1.96875 0.609375q-1.046875 0.21875 -2.3125 0.21875q-1.703125 0 -3.09375 -0.4375q-1.390625 -0.453125 -2.375 -1.3125q-0.96875 -0.875 -1.5 -2.1562538q-0.515625 -1.28125 -0.515625 -2.96875q0 -1.3125 0.671875 -2.703125q0.671875 -1.390625 2.328125 -2.53125q1.65625 -1.140625 4.453125 -1.90625q2.8125 -0.78125 7.078125 -0.875l0 -1.046875q0 -2.1875 -0.90625 -3.15625q-0.890625 -0.984375 -2.546875 -0.984375q-1.3125 0 -2.15625 0.296875q-0.84375 0.28125 -1.5 0.640625q-0.65625 0.359375 -1.28125 0.65625q-0.625 0.28125 -1.484375 0.28125q-0.78125 0 -1.328125 -0.359375q-0.53125 -0.375 -0.84375 -0.9375l-1.34375 -2.328125q2.265625 -1.984375 5.0 -2.953125q2.75 -0.984375 5.90625 -0.984375q2.25 0 4.0625 0.734375q1.8125 0.734375 3.0625 2.046875q1.265625 1.3125 1.9375 3.109375q0.671875 1.796875 0.671875 3.9375l0 15.546879l-3.40625 0zm-8.546875 -4.531254q1.4375 0 2.515625 -0.5q1.09375 -0.515625 2.1875 -1.640625l0 -3.453125q-2.234375 0.09375 -3.671875 0.390625q-1.4375 0.28125 -2.28125 0.71875q-0.828125 0.421875 -1.15625 0.984375q-0.328125 0.546875 -0.328125 1.1875q0 1.28125 0.6875 1.796875q0.703125 0.515625 2.046875 0.515625zm17.231293 4.531254l0 -24.890629l4.421875 0q0.546875 0 0.921875 0.09375q0.375 0.09375 0.625 0.3125q0.25 0.203125 0.375 0.546875q0.140625 0.328125 0.234375 0.796875l0.40625 2.328125q1.375 -2.109375 3.078125 -3.328125q1.703125 -1.234375 3.71875 -1.234375q1.703125 0 2.734375 0.828125l-0.953125 5.46875q-0.09375 0.5 -0.390625 0.703125q-0.28125 0.203125 -0.765625 0.203125q-0.40625 0 -0.96875 -0.109375q-0.546875 -0.109375 -1.390625 -0.109375q-2.921875 0 -4.609375 3.125l0 15.265629l-7.4375 0zm19.823944 0l0 -35.92188l7.4375 0l0 13.671875q1.40625 -1.359375 3.15625 -2.1875q1.765625 -0.828125 4.140625 -0.828125q1.953125 0 3.609375 0.84375q1.65625 0.828125 2.84375 2.453125q1.203125 1.609375 1.890625 3.96875q0.6875 2.359375 0.6875 5.359375q0 2.796875 -0.78125 5.171875q-0.78125 2.375 -2.1875 4.140625q-1.40625 1.7500038 -3.359375 2.7343788q-1.953125 0.984375 -4.328125 0.984375q-1.109375 0 -1.984375 -0.21875q-0.875 -0.21875 -1.609375 -0.609375q-0.734375 -0.40625 -1.34375 -0.953125q-0.609375 -0.546875 -1.1875 -1.203125l-0.265625 1.25q-0.15625 0.765625 -0.609375 1.0625q-0.4375 0.28125 -1.15625 0.28125l-4.953125 0zm12.15625 -19.687504q-0.828125 0 -1.484375 0.15625q-0.65625 0.15625 -1.21875 0.453125q-0.5625 0.28125 -1.046875 0.734375q-0.484375 0.4375 -0.96875 1.015625l0 10.5625q0.84375 0.9375 1.828125 1.3125q0.984375 0.359375 2.0625 0.359375q1.03125 0 1.890625 -0.40625q0.875 -0.40625 1.5 -1.296875q0.640625 -0.90625 1.0 -2.34375q0.359375 -1.4375 0.359375 -3.5q0 -1.96875 -0.28125 -3.3125q-0.28125 -1.34375 -0.796875 -2.171875q-0.515625 -0.828125 -1.25 -1.1875q-0.71875 -0.375 -1.59375 -0.375zm23.37117 -16.234375l0 35.92188l-7.4375 0l0 -35.92188l7.4375 0zm16.648712 10.65625q2.484375 0 4.53125 0.765625q2.046875 0.765625 3.515625 2.234375q1.484375 1.453125 2.3125 3.578125q0.828125 2.125 0.828125 4.8125q0 0.84375 -0.078125 1.375q-0.0625 0.53125 -0.265625 0.84375q-0.1875 0.296875 -0.515625 0.421875q-0.3125 0.125 -0.8125 0.125l-14.359375 0q0.359375 3.125 1.890625 4.53125q1.546875 1.390625 3.96875 1.390625q1.296875 0 2.234375 -0.3125q0.9375 -0.3125 1.65625 -0.6875q0.734375 -0.390625 1.34375 -0.703125q0.625 -0.3125 1.296875 -0.3125q0.875 0 1.34375 0.65625l2.15625 2.65625q-1.15625 1.3281288 -2.484375 2.1562538q-1.328125 0.828125 -2.734375 1.296875q-1.40625 0.46875 -2.8125 0.640625q-1.40625 0.1875 -2.671875 0.1875q-2.625 0 -4.921875 -0.84375q-2.28125 -0.859375 -4.0 -2.546875q-1.71875 -1.6875038 -2.71875 -4.171879q-0.984375 -2.5 -0.984375 -5.8125q0 -2.5 0.84375 -4.71875q0.859375 -2.234375 2.453125 -3.90625q1.59375 -1.6875 3.859375 -2.671875q2.28125 -0.984375 5.125 -0.984375zm0.15625 5.125q-2.140625 0 -3.34375 1.21875q-1.203125 1.203125 -1.578125 3.484375l9.28125 0q0 -0.875 -0.234375 -1.71875q-0.21875 -0.84375 -0.734375 -1.5q-0.515625 -0.65625 -1.359375 -1.0625q-0.84375 -0.421875 -2.03125 -0.421875zm47.07904 -14.828125l0 6.234375l-14.34375 0l0 8.859375l11.9375 0l0 6.265625l-11.9375 0l0 13.609379l-8.171875 0l0 -34.968754l22.515625 0zm13.874023 9.703125q2.828125 0 5.15625 0.890625q2.328125 0.875 4.0 2.53125q1.671875 1.65625 2.59375 4.03125q0.921875 2.359375 0.921875 5.3125q0 2.96875 -0.921875 5.359375q-0.921875 2.390625 -2.59375 4.062504q-1.671875 1.65625 -4.0 2.5625q-2.328125 0.90625 -5.15625 0.90625q-2.859375 0 -5.203125 -0.90625q-2.328125 -0.90625 -4.03125 -2.5625q-1.6875 -1.6718788 -2.609375 -4.062504q-0.921875 -2.390625 -0.921875 -5.359375q0 -2.953125 0.921875 -5.3125q0.921875 -2.375 2.609375 -4.03125q1.703125 -1.65625 4.03125 -2.53125q2.34375 -0.890625 5.203125 -0.890625zm0 20.125q2.5625 0 3.765625 -1.8125q1.21875 -1.8125 1.21875 -5.5q0 -3.703125 -1.21875 -5.5q-1.203125 -1.796875 -3.765625 -1.796875q-2.640625 0 -3.875 1.796875q-1.21875 1.796875 -1.21875 5.5q0 3.6875 1.21875 5.5q1.234375 1.8125 3.875 1.8125zm21.259308 -7.71875l-8.015625 -12.03125l7.15625 0q0.796875 0 1.15625 0.203125q0.375 0.203125 0.671875 0.6875l4.4375 7.375q0.140625 -0.4375 0.359375 -0.84375q0.21875 -0.40625 0.484375 -0.875l3.15625 -5.53125q0.3125 -0.5625 0.6875 -0.78125q0.390625 -0.234375 0.953125 -0.234375l6.8125 0l-8.015625 11.6875l8.359375 13.203129l-7.15625 0q-0.796875 0 -1.28125 -0.375q-0.46875 -0.390625 -0.78125 -0.921875l-4.4375 -7.625004q-0.125 0.40625 -0.296875 0.765625q-0.171875 0.359375 -0.359375 0.671875l-3.640625 6.187504q-0.296875 0.5 -0.78125 0.90625q-0.46875 0.390625 -1.1875 0.390625l-6.625 0l8.34375 -12.859379zm50.31479 -15.0q-0.359375 0.578125 -0.765625 0.859375q-0.390625 0.28125 -1.015625 0.28125q-0.546875 0 -1.1875 -0.34375q-0.640625 -0.34375 -1.453125 -0.765625q-0.796875 -0.4375 -1.828125 -0.78125q-1.03125 -0.359375 -2.34375 -0.359375q-2.28125 0 -3.40625 0.96875q-1.109375 0.96875 -1.109375 2.625q0 1.0625 0.671875 1.765625q0.671875 0.6875 1.765625 1.203125q1.09375 0.5 2.484375 0.921875q1.40625 0.40625 2.875 0.921875q1.46875 0.515625 2.859375 1.21875q1.40625 0.703125 2.5 1.78125q1.09375 1.078125 1.765625 2.625q0.671875 1.546875 0.671875 3.734375q0 2.421875 -0.84375 4.53125q-0.828125 2.109375 -2.4375 3.6875038q-1.59375 1.5625 -3.9375 2.46875q-2.328125 0.90625 -5.296875 0.90625q-1.640625 0 -3.34375 -0.34375q-1.6875 -0.328125 -3.265625 -0.9375q-1.578125 -0.625 -2.96875 -1.453125q-1.390625 -0.8437538 -2.421875 -1.8750038l2.390625 -3.796875q0.265625 -0.4375 0.734375 -0.6875q0.484375 -0.265625 1.046875 -0.265625q0.71875 0 1.453125 0.453125q0.734375 0.453125 1.65625 1.015625q0.921875 0.546875 2.109375 1.0q1.203125 0.453125 2.84375 0.453125q2.203125 0 3.421875 -0.96875q1.234375 -0.96875 1.234375 -3.09375q0 -1.21875 -0.671875 -1.984375q-0.671875 -0.765625 -1.765625 -1.265625q-1.09375 -0.515625 -2.484375 -0.890625q-1.390625 -0.390625 -2.859375 -0.859375q-1.46875 -0.46875 -2.859375 -1.140625q-1.390625 -0.6875 -2.484375 -1.796875q-1.078125 -1.125 -1.75 -2.796875q-0.671875 -1.671875 -0.671875 -4.109375q0 -1.96875 0.78125 -3.84375q0.796875 -1.875 2.328125 -3.328125q1.546875 -1.46875 3.765625 -2.34375q2.234375 -0.890625 5.125 -0.890625q1.59375 0 3.125 0.265625q1.53125 0.25 2.890625 0.75q1.375 0.484375 2.5625 1.171875q1.1875 0.671875 2.125 1.546875l-2.015625 3.765625zm15.250305 28.250004q-1.765625 0 -3.125 -0.515625q-1.359375 -0.515625 -2.28125 -1.46875q-0.921875 -0.953125 -1.40625 -2.2968788q-0.484375 -1.34375 -0.484375 -3.0l0 -12.859375l-2.109375 0q-0.578125 0 -0.984375 -0.375q-0.40625 -0.375 -0.40625 -1.09375l0 -2.90625l3.96875 -0.765625l1.453125 -6.0625q0.296875 -1.15625 1.640625 -1.15625l3.890625 0l0 7.265625l6.046875 0l0 5.09375l-6.046875 0l0 12.359375q0 0.859375 0.40625 1.421875q0.421875 0.5625 1.21875 0.5625q0.40625 0 0.6875 -0.078125q0.28125 -0.078125 0.484375 -0.1875q0.203125 -0.109375 0.375 -0.1875q0.1875 -0.09375 0.421875 -0.09375q0.34375 0 0.546875 0.15625q0.203125 0.15625 0.40625 0.5l2.265625 3.5156288q-1.4375 1.078125 -3.25 1.625q-1.796875 0.546875 -3.71875 0.546875zm17.434326 -25.281254l0 15.796875q0 1.84375 0.828125 2.859375q0.84375 1.0 2.484375 1.0q1.21875 0 2.28125 -0.5q1.078125 -0.5 2.078125 -1.421875l0 -17.734375l7.4375 0l0 24.890629l-4.59375 0q-1.40625 0 -1.828125 -1.25l-0.453125 -1.4375q-0.71875 0.703125 -1.5 1.265625q-0.765625 0.5625 -1.640625 0.953125q-0.875 0.390625 -1.890625 0.625q-1.0 0.234375 -2.203125 0.234375q-2.03125 0 -3.609375 -0.703125q-1.578125 -0.71875 -2.65625 -1.984375q-1.078125 -1.2812538 -1.625 -3.0000038q-0.546875 -1.734375 -0.546875 -3.796875l0 -15.796875l7.4375 0zm38.35553 24.890629q-0.703125 0 -1.171875 -0.3125q-0.46875 -0.3125 -0.65625 -0.9375l-0.578125 -1.8906288q-0.75 0.7812538 -1.5625 1.4375038q-0.8125 0.640625 -1.765625 1.109375q-0.9375 0.46875 -2.03125 0.71875q-1.09375 0.265625 -2.375 0.265625q-1.9375 0 -3.59375 -0.859375q-1.65625 -0.875 -2.859375 -2.5q-1.203125 -1.6406288 -1.890625 -4.000004q-0.671875 -2.375 -0.671875 -5.390625q0 -2.78125 0.765625 -5.171875q0.765625 -2.390625 2.171875 -4.125q1.40625 -1.75 3.375 -2.734375q1.96875 -0.984375 4.34375 -0.984375q1.921875 0 3.25 0.578125q1.328125 0.5625 2.40625 1.46875l0 -12.59375l7.4375 0l0 35.92188l-4.59375 0zm-7.546875 -5.328129q0.8125 0 1.46875 -0.15625q0.671875 -0.15625 1.21875 -0.4375q0.5625 -0.296875 1.046875 -0.71875q0.5 -0.4375 0.96875 -1.015625l0 -10.5625q-0.859375 -0.9375 -1.828125 -1.296875q-0.96875 -0.375 -2.0625 -0.375q-1.03125 0 -1.890625 0.40625q-0.859375 0.40625 -1.5 1.3125q-0.640625 0.890625 -1.0 2.328125q-0.359375 1.4375 -0.359375 3.484375q0 1.96875 0.28125 3.3125q0.296875 1.34375 0.8125 2.171875q0.515625 0.828125 1.234375 1.1875q0.71875 0.359375 1.609375 0.359375zm25.589905 -19.5625l0 24.890629l-7.4375 0l0 -24.890629l7.4375 0zm0.859375 -6.8125q0 0.890625 -0.359375 1.671875q-0.359375 0.78125 -0.984375 1.375q-0.625 0.578125 -1.453125 0.921875q-0.828125 0.34375 -1.765625 0.34375q-0.90625 0 -1.703125 -0.34375q-0.78125 -0.34375 -1.40625 -0.921875q-0.609375 -0.59375 -0.953125 -1.375q-0.34375 -0.78125 -0.34375 -1.671875q0 -0.90625 0.34375 -1.703125q0.34375 -0.796875 0.953125 -1.390625q0.625 -0.609375 1.40625 -0.9375q0.796875 -0.34375 1.703125 -0.34375q0.9375 0 1.765625 0.34375q0.828125 0.328125 1.453125 0.9375q0.625 0.59375 0.984375 1.390625q0.359375 0.796875 0.359375 1.703125zm16.226837 6.4375q2.828125 0 5.15625 0.890625q2.328125 0.875 4.0 2.53125q1.671875 1.65625 2.5937195 4.03125q0.921875 2.359375 0.921875 5.3125q0 2.96875 -0.921875 5.359375q-0.9218445 2.390625 -2.5937195 4.062504q-1.671875 1.65625 -4.0 2.5625q-2.328125 0.90625 -5.15625 0.90625q-2.859375 0 -5.203125 -0.90625q-2.328125 -0.90625 -4.03125 -2.5625q-1.6875 -1.6718788 -2.609375 -4.062504q-0.921875 -2.390625 -0.921875 -5.359375q0 -2.953125 0.921875 -5.3125q0.921875 -2.375 2.609375 -4.03125q1.703125 -1.65625 4.03125 -2.53125q2.34375 -0.890625 5.203125 -0.890625zm0 20.125q2.5625 0 3.765625 -1.8125q1.21875 -1.8125 1.21875 -5.5q0 -3.703125 -1.21875 -5.5q-1.203125 -1.796875 -3.765625 -1.796875q-2.640625 0 -3.875 1.796875q-1.21875 1.796875 -1.21875 5.5q0 3.6875 1.21875 5.5q1.234375 1.8125 3.875 1.8125zm31.964935 -14.296875q-0.28125 0.453125 -0.609375 0.65625q-0.328125 0.1875 -0.828125 0.1875q-0.53125 0 -1.0625 -0.234375q-0.515625 -0.234375 -1.140625 -0.484375q-0.609375 -0.265625 -1.375 -0.5q-0.765625 -0.234375 -1.75 -0.234375q-1.421875 0 -2.171875 0.546875q-0.75 0.546875 -0.75 1.5q0 0.703125 0.484375 1.15625q0.5 0.453125 1.3125 0.796875q0.8125 0.34375 1.84375 0.65625q1.03125 0.3125 2.109375 0.703125q1.078125 0.390625 2.109375 0.90625q1.03125 0.515625 1.84375 1.265625q0.828125 0.75 1.3125 1.84375q0.5 1.078125 0.5 2.578125q0 1.859375 -0.671875 3.421875q-0.671875 1.546875 -2.015625 2.6875038q-1.328125 1.125 -3.28125 1.75q-1.953125 0.625 -4.5 0.625q-1.265625 0 -2.546875 -0.25q-1.265625 -0.234375 -2.453125 -0.640625q-1.1875 -0.40625 -2.203125 -0.96875q-1.0 -0.578125 -1.71875 -1.21875l1.71875 -2.7343788q0.3125 -0.484375 0.75 -0.75q0.4375 -0.28125 1.125 -0.28125q0.65625 0 1.171875 0.296875q0.515625 0.28125 1.109375 0.625q0.609375 0.328125 1.40625 0.625q0.796875 0.28125 2.03125 0.28125q0.859375 0 1.453125 -0.171875q0.609375 -0.1875 0.96875 -0.5q0.359375 -0.3125 0.515625 -0.703125q0.171875 -0.390625 0.171875 -0.796875q0 -0.734375 -0.5 -1.21875q-0.5 -0.484375 -1.328125 -0.828125q-0.8125 -0.34375 -1.859375 -0.640625q-1.03125 -0.3125 -2.109375 -0.6875q-1.078125 -0.390625 -2.125 -0.921875q-1.046875 -0.546875 -1.859375 -1.375q-0.8125 -0.828125 -1.328125 -2.03125q-0.5 -1.203125 -0.5 -2.90625q0 -1.578125 0.609375 -3.0q0.609375 -1.4375 1.828125 -2.515625q1.234375 -1.078125 3.078125 -1.703125q1.859375 -0.640625 4.328125 -0.640625q1.34375 0 2.59375 0.234375q1.265625 0.234375 2.359375 0.671875q1.109375 0.4375 2.015625 1.03125q0.921875 0.578125 1.625 1.265625l-1.6875 2.625z" fill-rule="nonzero"/></g></svg>