<svg version="1.1" viewBox="0.0 0.0 64.0 64.0" fill="none" stroke="none" stroke-linecap="square" stroke-miterlimit="10" xmlns:xlink="http://www.w3.org/1999/xlink" xmlns="http://www.w3.org/2000/svg"><clipPath id="p.0"><path d="m0 0l64.0 0l0 64.0l-64.0 0l0 -64.0z" clip-rule="nonzero"/></clipPath><g clip-path="url(#p.0)"><path fill="#000000" fill-opacity="0.0" d="m0 0l64.0 0l0 64.0l-64.0 0z" fill-rule="evenodd"/><path fill="#000000" fill-opacity="0.0" d="m26.71075 47.20966l-14.331968 -6.5108643l3.1647243 -3.5074043z" fill-rule="evenodd"/><path stroke="#4a7882" stroke-width="1.0" stroke-linejoin="round" stroke-linecap="butt" d="m26.71075 47.20966l-14.331968 -6.5108643l3.1647243 -3.5074043z" fill-rule="evenodd"/><path fill="#000000" fill-opacity="0.0" d="m11.688684 11.01354l14.039686 11.298267l-10.028347 14.9669285z" fill-rule="evenodd"/><path stroke="#4a7882" stroke-width="1.0" stroke-linejoin="round" stroke-linecap="butt" d="m11.688684 11.01354l14.039686 11.298267l-10.028347 14.9669285z" fill-rule="evenodd"/><path fill="#000000" fill-opacity="0.0" d="m25.468706 22.298367l6.581415 -1.1288185l6.581417 1.1288185z" fill-rule="evenodd"/><path stroke="#4a7882" stroke-width="1.0" stroke-linejoin="round" stroke-linecap="butt" d="m25.468706 22.298367l6.581415 -1.1288185l6.581417 1.1288185z" fill-rule="evenodd"/><path fill="#000000" fill-opacity="0.0" d="m32.17279 20.971317l-6.489952 1.3858471l-13.929574 -11.444429z" fill-rule="evenodd"/><path stroke="#4a7882" stroke-width="1.0" stroke-linejoin="round" stroke-linecap="butt" d="m32.17279 20.971317l-6.489952 1.3858471l-13.929574 -11.444429z" fill-rule="evenodd"/><path fill="#d4e0fc" d="m52.319447 11.01354l-14.039684 11.298267l10.028343 14.9669285z" fill-rule="evenodd"/><path stroke="#4a7882" stroke-width="1.0" stroke-linejoin="round" stroke-linecap="butt" d="m52.319447 11.01354l-14.039684 11.298267l10.028343 14.9669285z" fill-rule="evenodd"/><path fill="#8daef6" d="m37.071114 47.276844l14.452911 -6.3294487l-3.305828 -3.6686592z" fill-rule="evenodd"/><path stroke="#4a7882" stroke-width="1.0" stroke-linejoin="round" stroke-linecap="butt" d="m37.071114 47.276844l14.452911 -6.3294487l-3.305828 -3.6686592z" fill-rule="evenodd"/><path fill="#8daef6" d="m31.988468 20.971327l6.452709 1.4044685l13.805561 -11.382422z" fill-rule="evenodd"/><path stroke="#4a7882" stroke-width="1.0" stroke-linejoin="round" stroke-linecap="butt" d="m31.988468 20.971327l6.452709 1.4044685l13.805561 -11.382422z" fill-rule="evenodd"/><path fill="#000000" fill-opacity="0.0" d="m32.06638 52.01049l-16.270592 -14.793743l9.69925 -14.918385z" fill-rule="evenodd"/><path stroke="#4a7882" stroke-width="1.0" stroke-linejoin="round" stroke-linecap="butt" d="m32.06638 52.01049l-16.270592 -14.793743l9.69925 -14.918385z" fill-rule="evenodd"/><path fill="#8de2f6" d="m32.215973 52.11969l16.141369 -14.873314l-9.549873 -14.9396z" fill-rule="evenodd"/><path stroke="#4a7882" stroke-width="1.0" stroke-linejoin="round" stroke-linecap="butt" d="m32.215973 52.11969l16.141369 -14.873314l-9.549873 -14.9396z" fill-rule="evenodd"/><path fill="#c4f0fa" d="m32.103878 22.288288l6.551178 0l-6.551178 29.631496z" fill-rule="evenodd"/><path stroke="#4a7882" stroke-width="1.0" stroke-linejoin="round" stroke-linecap="butt" d="m32.103878 22.288288l6.551178 0l-6.551178 29.631496z" fill-rule="evenodd"/><path fill="#000000" fill-opacity="0.0" d="m32.110596 22.288288l-6.551182 0l6.551182 29.631496z" fill-rule="evenodd"/><path stroke="#4a7882" stroke-width="1.0" stroke-linejoin="round" stroke-linecap="butt" d="m32.110596 22.288288l-6.551182 0l6.551182 29.631496z" fill-rule="evenodd"/><path fill="#000000" fill-opacity="0.0" d="m15.682194 37.278214l16.428349 3.184883" fill-rule="evenodd"/><path stroke="#4a7882" stroke-width="1.0" stroke-linejoin="round" stroke-linecap="butt" d="m15.682194 37.278214l16.428349 3.184883" fill-rule="evenodd"/><path fill="#000000" fill-opacity="0.0" d="m48.480095 37.278214l-16.428349 3.184883" fill-rule="evenodd"/><path stroke="#4a7882" stroke-width="1.0" stroke-linejoin="round" stroke-linecap="butt" d="m48.480095 37.278214l-16.428349 3.184883" fill-rule="evenodd"/></g></svg>