<svg version="1.1" viewBox="0.0 0.0 16.0 16.0" fill="none" stroke="none" stroke-linecap="square" stroke-miterlimit="10" xmlns:xlink="http://www.w3.org/1999/xlink" xmlns="http://www.w3.org/2000/svg"><clipPath id="p.0"><path d="m0 0l16.0 0l0 16.0l-16.0 0l0 -16.0z" clip-rule="nonzero"/></clipPath><g clip-path="url(#p.0)"><path fill="#000000" fill-opacity="0.0" d="m0 0l16.0 0l0 16.0l-16.0 0z" fill-rule="evenodd"/><path fill="#000000" fill-opacity="0.0" d="m6.6776876 11.802415l-3.582992 -1.6277161l0.7911811 -0.8768511z" fill-rule="evenodd"/><path stroke="#4a7882" stroke-width="1.0" stroke-linejoin="round" stroke-linecap="butt" d="m6.6776876 11.802415l-3.582992 -1.6277161l0.7911811 -0.8768511z" fill-rule="evenodd"/><path fill="#000000" fill-opacity="0.0" d="m2.922171 2.753385l3.5099216 2.8245668l-2.5070868 3.7417321z" fill-rule="evenodd"/><path stroke="#4a7882" stroke-width="1.0" stroke-linejoin="round" stroke-linecap="butt" d="m2.922171 2.753385l3.5099216 2.8245668l-2.5070868 3.7417321z" fill-rule="evenodd"/><path fill="#000000" fill-opacity="0.0" d="m6.3671765 5.5745916l1.6453538 -0.28220463l1.6453543 0.28220463z" fill-rule="evenodd"/><path stroke="#4a7882" stroke-width="1.0" stroke-linejoin="round" stroke-linecap="butt" d="m6.3671765 5.5745916l1.6453538 -0.28220463l1.6453543 0.28220463z" fill-rule="evenodd"/><path fill="#000000" fill-opacity="0.0" d="m8.043198 5.2428293l-1.622488 0.34646177l-3.4823935 -2.8611073z" fill-rule="evenodd"/><path stroke="#4a7882" stroke-width="1.0" stroke-linejoin="round" stroke-linecap="butt" d="m8.043198 5.2428293l-1.622488 0.34646177l-3.4823935 -2.8611073z" fill-rule="evenodd"/><path fill="#d4e0fc" d="m13.079862 2.753385l-3.509921 2.8245668l2.5070858 3.7417321z" fill-rule="evenodd"/><path stroke="#4a7882" stroke-width="1.0" stroke-linejoin="round" stroke-linecap="butt" d="m13.079862 2.753385l-3.509921 2.8245668l2.5070858 3.7417321z" fill-rule="evenodd"/><path fill="#8daef6" d="m9.267778 11.819211l3.6132278 -1.5823622l-0.826457 -0.9171648z" fill-rule="evenodd"/><path stroke="#4a7882" stroke-width="1.0" stroke-linejoin="round" stroke-linecap="butt" d="m9.267778 11.819211l3.6132278 -1.5823622l-0.826457 -0.9171648z" fill-rule="evenodd"/><path fill="#8daef6" d="m7.997117 5.2428317l1.6131773 0.35111713l3.4513903 -2.8456056z" fill-rule="evenodd"/><path stroke="#4a7882" stroke-width="1.0" stroke-linejoin="round" stroke-linecap="butt" d="m7.997117 5.2428317l1.6131773 0.35111713l3.4513903 -2.8456056z" fill-rule="evenodd"/><path fill="#000000" fill-opacity="0.0" d="m8.016595 13.002623l-4.067648 -3.6984358l2.4248126 -3.7295961z" fill-rule="evenodd"/><path stroke="#4a7882" stroke-width="1.0" stroke-linejoin="round" stroke-linecap="butt" d="m8.016595 13.002623l-4.067648 -3.6984358l2.4248126 -3.7295961z" fill-rule="evenodd"/><path fill="#8de2f6" d="m8.053993 13.0299225l4.035342 -3.7183285l-2.3874683 -3.7349z" fill-rule="evenodd"/><path stroke="#4a7882" stroke-width="1.0" stroke-linejoin="round" stroke-linecap="butt" d="m8.053993 13.0299225l4.035342 -3.7183285l-2.3874683 -3.7349z" fill-rule="evenodd"/><path fill="#c4f0fa" d="m8.0259695 5.572072l1.6377945 0l-1.6377945 7.407874z" fill-rule="evenodd"/><path stroke="#4a7882" stroke-width="1.0" stroke-linejoin="round" stroke-linecap="butt" d="m8.0259695 5.572072l1.6377945 0l-1.6377945 7.407874z" fill-rule="evenodd"/><path fill="#000000" fill-opacity="0.0" d="m8.027649 5.572072l-1.6377954 0l1.6377954 7.407874z" fill-rule="evenodd"/><path stroke="#4a7882" stroke-width="1.0" stroke-linejoin="round" stroke-linecap="butt" d="m8.027649 5.572072l-1.6377954 0l1.6377954 7.407874z" fill-rule="evenodd"/><path fill="#000000" fill-opacity="0.0" d="m3.9205484 9.319553l4.107087 0.7962208" fill-rule="evenodd"/><path stroke="#4a7882" stroke-width="1.0" stroke-linejoin="round" stroke-linecap="butt" d="m3.9205484 9.319553l4.107087 0.7962208" fill-rule="evenodd"/><path fill="#000000" fill-opacity="0.0" d="m12.120024 9.319553l-4.107087 0.7962208" fill-rule="evenodd"/><path stroke="#4a7882" stroke-width="1.0" stroke-linejoin="round" stroke-linecap="butt" d="m12.120024 9.319553l-4.107087 0.7962208" fill-rule="evenodd"/></g></svg>