<svg version="1.1" viewBox="0.0 0.0 256.0 256.0" fill="none" stroke="none" stroke-linecap="square" stroke-miterlimit="10" xmlns:xlink="http://www.w3.org/1999/xlink" xmlns="http://www.w3.org/2000/svg"><clipPath id="p.0"><path d="m0 0l256.0 0l0 256.0l-256.0 0l0 -256.0z" clip-rule="nonzero"/></clipPath><g clip-path="url(#p.0)"><path fill="#000000" fill-opacity="0.0" d="m0 0l256.0 0l0 256.0l-256.0 0z" fill-rule="evenodd"/><path fill="#000000" fill-opacity="0.0" d="m106.843 188.83864l-57.327873 -26.043457l12.658897 -14.029617z" fill-rule="evenodd"/><path stroke="#4a7882" stroke-width="2.0" stroke-linejoin="round" stroke-linecap="butt" d="m106.843 188.83864l-57.327873 -26.043457l12.658897 -14.029617z" fill-rule="evenodd"/><path fill="#000000" fill-opacity="0.0" d="m46.754738 44.05416l56.158745 45.19307l-40.113388 59.867714z" fill-rule="evenodd"/><path stroke="#4a7882" stroke-width="2.0" stroke-linejoin="round" stroke-linecap="butt" d="m46.754738 44.05416l56.158745 45.19307l-40.113388 59.867714z" fill-rule="evenodd"/><path fill="#000000" fill-opacity="0.0" d="m101.874825 89.19347l26.32566 -4.515274l26.325668 4.515274z" fill-rule="evenodd"/><path stroke="#4a7882" stroke-width="2.0" stroke-linejoin="round" stroke-linecap="butt" d="m101.874825 89.19347l26.32566 -4.515274l26.325668 4.515274z" fill-rule="evenodd"/><path fill="#000000" fill-opacity="0.0" d="m128.69116 83.88527l-25.959808 5.5433884l-55.718296 -45.777718z" fill-rule="evenodd"/><path stroke="#4a7882" stroke-width="2.0" stroke-linejoin="round" stroke-linecap="butt" d="m128.69116 83.88527l-25.959808 5.5433884l-55.718296 -45.777718z" fill-rule="evenodd"/><path fill="#d4e0fc" d="m209.27779 44.05416l-56.158737 45.19307l40.113373 59.867714z" fill-rule="evenodd"/><path stroke="#4a7882" stroke-width="2.0" stroke-linejoin="round" stroke-linecap="butt" d="m209.27779 44.05416l-56.158737 45.19307l40.113373 59.867714z" fill-rule="evenodd"/><path fill="#8daef6" d="m148.28445 189.10738l57.811646 -25.317795l-13.223312 -14.674637z" fill-rule="evenodd"/><path stroke="#4a7882" stroke-width="2.0" stroke-linejoin="round" stroke-linecap="butt" d="m148.28445 189.10738l57.811646 -25.317795l-13.223312 -14.674637z" fill-rule="evenodd"/><path fill="#8daef6" d="m127.95387 83.88531l25.810837 5.617874l55.222244 -45.52969z" fill-rule="evenodd"/><path stroke="#4a7882" stroke-width="2.0" stroke-linejoin="round" stroke-linecap="butt" d="m127.95387 83.88531l25.810837 5.617874l55.222244 -45.52969z" fill-rule="evenodd"/><path fill="#000000" fill-opacity="0.0" d="m128.26552 208.04196l-65.08237 -59.174973l38.797 -59.67354z" fill-rule="evenodd"/><path stroke="#4a7882" stroke-width="2.0" stroke-linejoin="round" stroke-linecap="butt" d="m128.26552 208.04196l-65.08237 -59.174973l38.797 -59.67354z" fill-rule="evenodd"/><path fill="#8de2f6" d="m128.86389 208.47876l64.565475 -59.493256l-38.199493 -59.7584z" fill-rule="evenodd"/><path stroke="#4a7882" stroke-width="2.0" stroke-linejoin="round" stroke-linecap="butt" d="m128.86389 208.47876l64.565475 -59.493256l-38.199493 -59.7584z" fill-rule="evenodd"/><path fill="#c4f0fa" d="m128.41551 89.15315l26.204712 0l-26.204712 118.525986z" fill-rule="evenodd"/><path stroke="#4a7882" stroke-width="2.0" stroke-linejoin="round" stroke-linecap="butt" d="m128.41551 89.15315l26.204712 0l-26.204712 118.525986z" fill-rule="evenodd"/><path fill="#000000" fill-opacity="0.0" d="m128.44238 89.15315l-26.204727 0l26.204727 118.525986z" fill-rule="evenodd"/><path stroke="#4a7882" stroke-width="2.0" stroke-linejoin="round" stroke-linecap="butt" d="m128.44238 89.15315l-26.204727 0l26.204727 118.525986z" fill-rule="evenodd"/><path fill="#000000" fill-opacity="0.0" d="m62.728775 149.11285l65.713394 12.739532" fill-rule="evenodd"/><path stroke="#4a7882" stroke-width="2.0" stroke-linejoin="round" stroke-linecap="butt" d="m62.728775 149.11285l65.713394 12.739532" fill-rule="evenodd"/><path fill="#000000" fill-opacity="0.0" d="m193.92038 149.11285l-65.713394 12.739532" fill-rule="evenodd"/><path stroke="#4a7882" stroke-width="2.0" stroke-linejoin="round" stroke-linecap="butt" d="m193.92038 149.11285l-65.713394 12.739532" fill-rule="evenodd"/></g></svg>