<svg version="1.1" viewBox="0.0 0.0 717.2493438320209 128.0" fill="none" stroke="none" stroke-linecap="square" stroke-miterlimit="10" xmlns:xlink="http://www.w3.org/1999/xlink" xmlns="http://www.w3.org/2000/svg"><clipPath id="p.0"><path d="m0 0l717.2493 0l0 128.0l-717.2493 0l0 -128.0z" clip-rule="nonzero"/></clipPath><g clip-path="url(#p.0)"><path fill="#000000" fill-opacity="0.0" d="m0 0l717.2493 0l0 128.0l-717.2493 0z" fill-rule="evenodd"/><defs><linearGradient id="p.1" gradientUnits="userSpaceOnUse" gradientTransform="matrix(26.777002707841444 0.0 0.0 26.777002707841444 0.0 0.0)" spreadMethod="pad" x1="0.0" y1="4.77543982865755" x2="26.777002707841444" y2="4.77543982865755"><stop offset="0.0" stop-color="#080808"/><stop offset="1.0" stop-color="#828282"/></linearGradient></defs><path fill="url(#p.1)" d="m0 63.936l31.968 -63.93597l653.07184 0l31.968018 63.93597l-31.968018 63.93597l-653.07184 0z" fill-rule="evenodd"/><path fill="#000000" fill-opacity="0.0" d="m55.53736 88.2461l-22.931149 -10.406967l5.0635567 -5.6062317z" fill-rule="evenodd"/><path stroke="#828282" stroke-width="1.0" stroke-linejoin="round" stroke-linecap="butt" d="m55.53736 88.2461l-22.931149 -10.406967l5.0635567 -5.6062317z" fill-rule="evenodd"/><path fill="#000000" fill-opacity="0.0" d="m31.502056 30.390224l22.463497 18.05915l-16.045353 23.923138z" fill-rule="evenodd"/><path stroke="#828282" stroke-width="1.0" stroke-linejoin="round" stroke-linecap="butt" d="m31.502056 30.390224l22.463497 18.05915l-16.045353 23.923138z" fill-rule="evenodd"/><path fill="#000000" fill-opacity="0.0" d="m53.55009 48.42789l10.53027 -1.8043022l10.530266 1.8043022z" fill-rule="evenodd"/><path stroke="#828282" stroke-width="1.0" stroke-linejoin="round" stroke-linecap="butt" d="m53.55009 48.42789l10.53027 -1.8043022l10.530266 1.8043022z" fill-rule="evenodd"/><path fill="#000000" fill-opacity="0.0" d="m64.27663 46.306736l-10.383923 2.2151375l-22.287321 -18.292776z" fill-rule="evenodd"/><path stroke="#828282" stroke-width="1.0" stroke-linejoin="round" stroke-linecap="butt" d="m64.27663 46.306736l-10.383923 2.2151375l-22.287321 -18.292776z" fill-rule="evenodd"/><path fill="#e0e0e0" d="m96.51128 30.390224l-22.463501 18.05915l16.045357 23.923138z" fill-rule="evenodd"/><path stroke="#828282" stroke-width="1.0" stroke-linejoin="round" stroke-linecap="butt" d="m96.51128 30.390224l-22.463501 18.05915l16.045357 23.923138z" fill-rule="evenodd"/><path fill="#acacac" d="m72.11394 88.35349l23.124664 -10.116997l-5.289322 -5.863983z" fill-rule="evenodd"/><path stroke="#828282" stroke-width="1.0" stroke-linejoin="round" stroke-linecap="butt" d="m72.11394 88.35349l23.124664 -10.116997l-5.289322 -5.863983z" fill-rule="evenodd"/><path fill="#acacac" d="m63.981712 46.306747l10.324333 2.2449036l22.088898 -18.193663z" fill-rule="evenodd"/><path stroke="#828282" stroke-width="1.0" stroke-linejoin="round" stroke-linecap="butt" d="m63.981712 46.306747l10.324333 2.2449036l22.088898 -18.193663z" fill-rule="evenodd"/><path fill="#000000" fill-opacity="0.0" d="m64.10637 95.91975l-26.032944 -23.646317l15.518799 -23.845543z" fill-rule="evenodd"/><path stroke="#828282" stroke-width="1.0" stroke-linejoin="round" stroke-linecap="butt" d="m64.10637 95.91975l-26.032944 -23.646317l15.518799 -23.845543z" fill-rule="evenodd"/><path fill="#cbcbcb" d="m64.34572 96.09429l25.826195 -23.773499l-15.2798 -23.879463z" fill-rule="evenodd"/><path stroke="#828282" stroke-width="1.0" stroke-linejoin="round" stroke-linecap="butt" d="m64.34572 96.09429l25.826195 -23.773499l-15.2798 -23.879463z" fill-rule="evenodd"/><path fill="#ebebeb" d="m64.16637 48.41178l10.481888 0l-10.481888 47.362984z" fill-rule="evenodd"/><path stroke="#828282" stroke-width="1.0" stroke-linejoin="round" stroke-linecap="butt" d="m64.16637 48.41178l10.481888 0l-10.481888 47.362984z" fill-rule="evenodd"/><path fill="#000000" fill-opacity="0.0" d="m64.17712 48.41178l-10.481892 0l10.481892 47.362984z" fill-rule="evenodd"/><path stroke="#828282" stroke-width="1.0" stroke-linejoin="round" stroke-linecap="butt" d="m64.17712 48.41178l-10.481892 0l10.481892 47.362984z" fill-rule="evenodd"/><path fill="#000000" fill-opacity="0.0" d="m37.89167 72.37167l26.285355 5.090721" fill-rule="evenodd"/><path stroke="#828282" stroke-width="1.0" stroke-linejoin="round" stroke-linecap="butt" d="m37.89167 72.37167l26.285355 5.090721" fill-rule="evenodd"/><path fill="#000000" fill-opacity="0.0" d="m90.36831 72.37167l-26.285355 5.090721" fill-rule="evenodd"/><path stroke="#828282" stroke-width="1.0" stroke-linejoin="round" stroke-linecap="butt" d="m90.36831 72.37167l-26.285355 5.090721" fill-rule="evenodd"/><path fill="#000000" fill-opacity="0.0" d="m111.81365 26.963823l586.9921 0l0 73.941734l-586.9921 0z" fill-rule="evenodd"/><path fill="#fdfdfd" d="m148.50114 65.56219q0.625 1.21875 1.21875 2.53125q0.59375 1.3125 1.140625 2.6875q0.546875 -1.40625 1.15625 -2.734375q0.609375 -1.328125 1.25 -2.578125l11.96875 -23.546875q0.3125 -0.609375 0.640625 -0.9375q0.34375 -0.34375 0.75 -0.5q0.421875 -0.171875 0.953125 -0.203125q0.53125 -0.03125 1.234375 -0.03125l8.25 0l0 46.625l-9.53125 0l0 -26.8125q0 -1.953125 0.1875 -4.234375l-12.34375 23.96875q-0.578125 1.125 -1.5625 1.703125q-0.96875 0.578125 -2.21875 0.578125l-1.46875 0q-1.25 0 -2.234375 -0.578125q-0.96875 -0.578125 -1.546875 -1.703125l-12.40625 -24.0q0.125 1.125 0.1875 2.234375q0.0625 1.09375 0.0625 2.03125l0 26.8125l-9.531242 0l0 -46.625l8.249992 0q0.703125 0 1.234375 0.03125q0.53125 0.03125 0.9375 0.203125q0.421875 0.15625 0.75 0.5q0.34375 0.328125 0.671875 0.9375l12.0 23.640625l0 0zm59.158615 21.3125q-1.40625 0 -2.125 -0.375q-0.71875 -0.390625 -1.203125 -1.609375l-0.703125 -1.828125q-1.25 1.0625 -2.40625 1.859375q-1.140625 0.796875 -2.375 1.359375q-1.234375 0.5625 -2.625 0.828125q-1.390625 0.28125 -3.09375 0.28125q-2.265625 0 -4.125 -0.59375q-1.859375 -0.59375 -3.15625 -1.734375q-1.296875 -1.15625 -2.0 -2.875q-0.703125 -1.71875 -0.703125 -3.953125q0 -1.765625 0.890625 -3.609375q0.90625 -1.859375 3.109375 -3.375q2.21875 -1.53125 5.953125 -2.546875q3.75 -1.03125 9.4375 -1.15625l0 -1.40625q0 -2.90625 -1.203125 -4.203125q-1.1875 -1.296875 -3.390625 -1.296875q-1.765625 0 -2.890625 0.390625q-1.109375 0.375 -2.0 0.859375q-0.875 0.46875 -1.71875 0.859375q-0.828125 0.375 -1.96875 0.375q-1.03125 0 -1.75 -0.484375q-0.71875 -0.5 -1.140625 -1.234375l-1.78125 -3.109375q3.0 -2.65625 6.65625 -3.953125q3.671875 -1.296875 7.859375 -1.296875q3.015625 0 5.421875 0.984375q2.421875 0.96875 4.09375 2.71875q1.6875 1.734375 2.578125 4.140625q0.90625 2.40625 0.90625 5.25l0 20.734375l-4.546875 0zm-11.390625 -6.046875q1.921875 0 3.359375 -0.671875q1.4375 -0.671875 2.90625 -2.171875l0 -4.609375q-2.96875 0.125 -4.890625 0.515625q-1.921875 0.375 -3.046875 0.953125q-1.109375 0.578125 -1.546875 1.3125q-0.421875 0.734375 -0.421875 1.59375q0 1.703125 0.921875 2.390625q0.921875 0.6875 2.71875 0.6875zm22.980438 6.046875l0 -33.1875l5.890625 0q0.734375 0 1.21875 0.140625q0.5 0.125 0.828125 0.390625q0.34375 0.265625 0.515625 0.71875q0.1875 0.453125 0.3125 1.09375l0.546875 3.09375q1.8125 -2.8125 4.078125 -4.4375q2.28125 -1.640625 4.96875 -1.640625q2.28125 0 3.65625 1.09375l-1.28125 7.296875q-0.125 0.671875 -0.515625 0.953125q-0.375 0.265625 -1.015625 0.265625q-0.546875 0 -1.28125 -0.140625q-0.734375 -0.15625 -1.859375 -0.15625q-3.90625 0 -6.140625 4.15625l0 20.359375l-9.921875 0zm26.432053 0l0 -47.90625l9.921875 0l0 18.25q1.8437653 -1.828125 4.1875153 -2.9375q2.359375 -1.109375 5.53125 -1.109375q2.59375 0 4.796875 1.125q2.21875 1.125 3.8125 3.28125q1.609375 2.15625 2.515625 5.296875q0.90625 3.140625 0.90625 7.140625q0 3.734375 -1.046875 6.90625q-1.03125 3.171875 -2.90625 5.515625q-1.859375 2.328125 -4.46875 3.640625q-2.609375 1.3125 -5.78125 1.3125q-1.46875 0 -2.640625 -0.296875q-1.171875 -0.28125 -2.15625 -0.8125q-0.96875 -0.53125 -1.78125 -1.265625q-0.81251526 -0.734375 -1.5781403 -1.59375l-0.359375 1.65625q-0.21875 1.03125 -0.8125 1.421875q-0.59375 0.375 -1.546875 0.375l-6.59375 0zm16.187515 -26.234375q-1.09375 0 -1.96875 0.203125q-0.875 0.203125 -1.625 0.59375q-0.75 0.375 -1.390625 0.96875q-0.640625 0.59375 -1.2812653 1.359375l0 14.078125q1.1093903 1.25 2.4218903 1.75q1.3125 0.5 2.75 0.5q1.375 0 2.53125 -0.546875q1.15625 -0.546875 2.0 -1.734375q0.84375 -1.203125 1.328125 -3.125q0.484375 -1.921875 0.484375 -4.671875q0 -2.625 -0.390625 -4.421875q-0.375 -1.796875 -1.0625 -2.890625q-0.6875 -1.109375 -1.65625 -1.578125q-0.953125 -0.484375 -2.140625 -0.484375zm31.166931 -21.671875l0 47.90625l-9.921875 0l0 -47.90625l9.921875 0zm22.208801 14.203125q3.296875 0 6.03125 1.03125q2.734375 1.03125 4.703125 2.984375q1.96875 1.9375 3.0625 4.78125q1.109375 2.828125 1.109375 6.40625q0 1.125 -0.09375 1.828125q-0.09375 0.703125 -0.359375 1.125q-0.25 0.40625 -0.6875 0.578125q-0.421875 0.15625 -1.09375 0.15625l-19.140625 0q0.484375 4.15625 2.53125 6.03125q2.046875 1.875 5.28125 1.875q1.734375 0 2.96875 -0.421875q1.25 -0.421875 2.21875 -0.921875q0.984375 -0.515625 1.796875 -0.921875q0.828125 -0.421875 1.71875 -0.421875q1.1875 0 1.796875 0.859375l2.875 3.546875q-1.53125 1.765625 -3.3125 2.875q-1.765625 1.09375 -3.640625 1.71875q-1.875 0.625 -3.75 0.859375q-1.875 0.25 -3.5625 0.25q-3.484375 0 -6.546875 -1.140625q-3.0625 -1.140625 -5.359375 -3.375q-2.28125 -2.234375 -3.609375 -5.5625q-1.328125 -3.328125 -1.328125 -7.75q0 -3.328125 1.140625 -6.296875q1.140625 -2.984375 3.265625 -5.21875q2.125 -2.25 5.140625 -3.5625q3.03125 -1.3125 6.84375 -1.3125zm0.1875 6.859375q-2.84375 0 -4.453125 1.625q-1.59375 1.609375 -2.09375 4.640625l12.375 0q0 -1.1875 -0.3125 -2.296875q-0.296875 -1.125 -0.984375 -2.0q-0.6875 -0.890625 -1.8125 -1.421875q-1.109375 -0.546875 -2.71875 -0.546875zm62.79309 -19.78125l0 8.328125l-19.140625 0l0 11.796875l15.9375 0l0 8.359375l-15.9375 0l0 18.140625l-10.875 0l0 -46.625l30.015625 0zm18.493713 12.921875q3.78125 0 6.875 1.1875q3.109375 1.1875 5.328125 3.40625q2.234375 2.203125 3.453125 5.359375q1.234375 3.140625 1.234375 7.078125q0 3.96875 -1.234375 7.15625q-1.21875 3.171875 -3.453125 5.40625q-2.21875 2.21875 -5.328125 3.421875q-3.09375 1.203125 -6.875 1.203125q-3.8125 0 -6.9375 -1.203125q-3.109375 -1.203125 -5.375 -3.421875q-2.25 -2.234375 -3.484375 -5.40625q-1.234375 -3.1875 -1.234375 -7.15625q0 -3.9375 1.234375 -7.078125q1.234375 -3.15625 3.484375 -5.359375q2.265625 -2.21875 5.375 -3.40625q3.125 -1.1875 6.9375 -1.1875zm0 26.859375q3.421875 0 5.03125 -2.421875q1.625 -2.421875 1.625 -7.34375q0 -4.921875 -1.625 -7.328125q-1.609375 -2.40625 -5.03125 -2.40625q-3.515625 0 -5.15625 2.40625q-1.625 2.40625 -1.625 7.328125q0 4.921875 1.625 7.34375q1.640625 2.421875 5.15625 2.421875zm28.356323 -10.3125l-10.6875 -16.03125l9.53125 0q1.0625 0 1.546875 0.28125q0.5 0.265625 0.890625 0.90625l5.90625 9.828125q0.203125 -0.578125 0.484375 -1.125q0.296875 -0.546875 0.640625 -1.15625l4.21875 -7.390625q0.421875 -0.734375 0.9375 -1.03125q0.515625 -0.3125 1.25 -0.3125l9.078125 0l-10.6875 15.59375l11.140625 17.59375l-9.53125 0q-1.0625 0 -1.703125 -0.515625q-0.640625 -0.515625 -1.046875 -1.21875l-5.921875 -10.171875q-0.171875 0.546875 -0.390625 1.03125q-0.21875 0.46875 -0.484375 0.890625l-4.859375 8.25q-0.375 0.671875 -1.015625 1.203125q-0.640625 0.53125 -1.609375 0.53125l-8.828125 0l11.140625 -17.15625zm67.07095 -20.0q-0.484375 0.765625 -1.015625 1.15625q-0.53125 0.390625 -1.359375 0.390625q-0.734375 0 -1.578125 -0.46875q-0.84375 -0.46875 -1.921875 -1.046875q-1.078125 -0.578125 -2.453125 -1.03125q-1.375 -0.46875 -3.125 -0.46875q-3.046875 0 -4.53125 1.296875q-1.484375 1.296875 -1.484375 3.5q0 1.40625 0.890625 2.34375q0.890625 0.921875 2.34375 1.59375q1.46875 0.671875 3.328125 1.234375q1.875 0.5625 3.828125 1.25q1.953125 0.6875 3.828125 1.625q1.875 0.921875 3.328125 2.359375q1.453125 1.4375 2.34375 3.5q0.90625 2.0625 0.90625 4.984375q0 3.21875 -1.125 6.046875q-1.125 2.8125 -3.25 4.90625q-2.125 2.09375 -5.25 3.296875q-3.109375 1.203125 -7.078125 1.203125q-2.1875 0 -4.4375 -0.453125q-2.25 -0.453125 -4.375 -1.265625q-2.109375 -0.8125 -3.96875 -1.921875q-1.84375 -1.125 -3.21875 -2.5l3.1875 -5.0625q0.359375 -0.578125 1.0 -0.921875q0.640625 -0.359375 1.375 -0.359375q0.953125 0 1.921875 0.609375q0.984375 0.609375 2.21875 1.34375q1.234375 0.734375 2.828125 1.34375q1.609375 0.609375 3.78125 0.609375q2.953125 0 4.578125 -1.296875q1.625 -1.296875 1.625 -4.109375q0 -1.640625 -0.890625 -2.65625q-0.890625 -1.03125 -2.359375 -1.703125q-1.453125 -0.671875 -3.3125 -1.171875q-1.84375 -0.515625 -3.796875 -1.140625q-1.953125 -0.625 -3.8125 -1.53125q-1.859375 -0.921875 -3.3125 -2.40625q-1.453125 -1.484375 -2.359375 -3.703125q-0.890625 -2.234375 -0.890625 -5.5q0 -2.625 1.0625 -5.109375q1.0625 -2.5 3.109375 -4.453125q2.046875 -1.953125 5.015625 -3.125q2.984375 -1.171875 6.8125 -1.171875q2.15625 0 4.1875 0.34375q2.03125 0.328125 3.84375 0.984375q1.828125 0.65625 3.40625 1.578125q1.59375 0.90625 2.84375 2.0625l-2.6875 5.015625zm20.34433 37.671875q-2.359375 0 -4.171875 -0.6875q-1.8125 -0.6875 -3.046875 -1.953125q-1.21875 -1.265625 -1.859375 -3.046875q-0.640625 -1.796875 -0.640625 -4.015625l0 -17.15625l-2.828125 0q-0.765625 0 -1.3125 -0.484375q-0.53125 -0.5 -0.53125 -1.453125l0 -3.875l5.28125 -1.03125l1.9375 -8.09375q0.390625 -1.53125 2.1875 -1.53125l5.1875 0l0 9.6875l8.0625 0l0 6.78125l-8.0625 0l0 16.484375q0 1.15625 0.546875 1.90625q0.5625 0.75 1.625 0.75q0.546875 0 0.90625 -0.109375q0.375 -0.109375 0.640625 -0.25q0.28125 -0.15625 0.515625 -0.265625q0.234375 -0.109375 0.5625 -0.109375q0.4375 0 0.703125 0.21875q0.28125 0.203125 0.578125 0.640625l3.0 4.703125q-1.921875 1.453125 -4.328125 2.171875q-2.390625 0.71875 -4.953125 0.71875zm23.240662 -33.703125l0 21.0625q0 2.46875 1.109375 3.8125q1.125 1.34375 3.296875 1.34375q1.640625 0 3.0625 -0.671875q1.421875 -0.671875 2.765625 -1.890625l0 -23.65625l9.921875 0l0 33.1875l-6.140625 0q-1.859375 0 -2.4375 -1.65625l-0.609375 -1.921875q-0.953125 0.921875 -1.984375 1.671875q-1.015625 0.75 -2.1875 1.28125q-1.171875 0.53125 -2.515625 0.828125q-1.34375 0.3125 -2.9375 0.3125q-2.71875 0 -4.828125 -0.9375q-2.09375 -0.953125 -3.53125 -2.640625q-1.4375 -1.703125 -2.171875 -4.0q-0.734375 -2.3125 -0.734375 -5.0625l0 -21.0625l9.921875 0zm51.13568 33.1875q-0.9375 0 -1.5625 -0.40625q-0.625 -0.421875 -0.875 -1.25l-0.765625 -2.53125q-1.0 1.046875 -2.09375 1.921875q-1.078125 0.859375 -2.34375 1.484375q-1.265625 0.625 -2.71875 0.953125q-1.453125 0.34375 -3.15625 0.34375q-2.578125 0 -4.796875 -1.15625q-2.203125 -1.15625 -3.8125 -3.328125q-1.59375 -2.171875 -2.515625 -5.328125q-0.90625 -3.15625 -0.90625 -7.1875q0 -3.703125 1.015625 -6.890625q1.03125 -3.1875 2.90625 -5.5q1.875 -2.328125 4.5 -3.640625q2.625 -1.3125 5.796875 -1.3125q2.5625 0 4.328125 0.765625q1.78125 0.75 3.21875 1.953125l0 -16.796875l9.921875 0l0 47.90625l-6.140625 0zm-10.046875 -7.109375q1.078125 0 1.953125 -0.203125q0.890625 -0.203125 1.625 -0.578125q0.734375 -0.390625 1.390625 -0.96875q0.65625 -0.578125 1.296875 -1.34375l0 -14.078125q-1.15625 -1.25 -2.453125 -1.75q-1.296875 -0.5 -2.734375 -0.5q-1.375 0 -2.53125 0.546875q-1.140625 0.546875 -2.0 1.75q-0.84375 1.1875 -1.328125 3.109375q-0.46875 1.921875 -0.46875 4.640625q0 2.625 0.375 4.421875q0.390625 1.796875 1.078125 2.90625q0.6875 1.09375 1.640625 1.578125q0.96875 0.46875 2.15625 0.46875zm34.10443 -26.078125l0 33.1875l-9.921875 0l0 -33.1875l9.921875 0zm1.15625 -9.078125q0 1.171875 -0.484375 2.21875q-0.484375 1.03125 -1.3125 1.828125q-0.828125 0.78125 -1.9375 1.25q-1.09375 0.453125 -2.34375 0.453125q-1.21875 0 -2.28125 -0.453125q-1.046875 -0.46875 -1.875 -1.25q-0.8125 -0.796875 -1.28125 -1.828125q-0.453125 -1.046875 -0.453125 -2.21875q0 -1.21875 0.453125 -2.265625q0.46875 -1.0625 1.28125 -1.859375q0.828125 -0.8125 1.875 -1.25q1.0625 -0.453125 2.28125 -0.453125q1.25 0 2.34375 0.453125q1.109375 0.4375 1.9375 1.25q0.828125 0.796875 1.3125 1.859375q0.484375 1.046875 0.484375 2.265625zm21.630676 8.5625q3.78125 0 6.875 1.1875q3.109375 1.1875 5.328125 3.40625q2.234375 2.203125 3.453125 5.359375q1.234375 3.140625 1.234375 7.078125q0 3.96875 -1.234375 7.15625q-1.21875 3.171875 -3.453125 5.40625q-2.21875 2.21875 -5.328125 3.421875q-3.09375 1.203125 -6.875 1.203125q-3.8125 0 -6.9375 -1.203125q-3.109375 -1.203125 -5.375 -3.421875q-2.25 -2.234375 -3.484375 -5.40625q-1.234375 -3.1875 -1.234375 -7.15625q0 -3.9375 1.234375 -7.078125q1.234375 -3.15625 3.484375 -5.359375q2.265625 -2.21875 5.375 -3.40625q3.125 -1.1875 6.9375 -1.1875zm0 26.859375q3.421875 0 5.03125 -2.421875q1.625 -2.421875 1.625 -7.34375q0 -4.921875 -1.625 -7.328125q-1.609375 -2.40625 -5.03125 -2.40625q-3.515625 0 -5.15625 2.40625q-1.625 2.40625 -1.625 7.328125q0 4.921875 1.625 7.34375q1.640625 2.421875 5.15625 2.421875zm42.620056 -19.078125q-0.375 0.609375 -0.8125 0.875q-0.4375 0.25 -1.109375 0.25q-0.703125 0 -1.40625 -0.296875q-0.703125 -0.3125 -1.515625 -0.65625q-0.8125 -0.359375 -1.84375 -0.65625q-1.015625 -0.3125 -2.328125 -0.3125q-1.890625 0 -2.90625 0.71875q-1.0 0.71875 -1.0 2.0q0 0.921875 0.65625 1.53125q0.65625 0.609375 1.734375 1.078125q1.09375 0.46875 2.46875 0.890625q1.375 0.40625 2.8125 0.921875q1.4375 0.5 2.8125 1.1875q1.390625 0.6875 2.46875 1.703125q1.09375 1.0 1.75 2.453125q0.65625 1.4375 0.65625 3.453125q0 2.46875 -0.90625 4.546875q-0.890625 2.078125 -2.671875 3.578125q-1.765625 1.5 -4.375 2.34375q-2.609375 0.828125 -6.0 0.828125q-1.703125 0 -3.40625 -0.328125q-1.6875 -0.3125 -3.265625 -0.859375q-1.578125 -0.546875 -2.9375 -1.296875q-1.34375 -0.75 -2.296875 -1.609375l2.3125 -3.65625q0.40625 -0.640625 0.984375 -1.0q0.578125 -0.375 1.5 -0.375q0.875 0 1.5625 0.390625q0.6875 0.375 1.484375 0.828125q0.796875 0.453125 1.859375 0.84375q1.078125 0.375 2.71875 0.375q1.140625 0 1.9375 -0.234375q0.8125 -0.25 1.28125 -0.65625q0.484375 -0.421875 0.703125 -0.9375q0.234375 -0.515625 0.234375 -1.0625q0 -0.984375 -0.671875 -1.625q-0.671875 -0.640625 -1.765625 -1.09375q-1.078125 -0.46875 -2.484375 -0.875q-1.390625 -0.40625 -2.828125 -0.90625q-1.4375 -0.515625 -2.828125 -1.234375q-1.390625 -0.71875 -2.484375 -1.828125q-1.078125 -1.109375 -1.75 -2.703125q-0.671875 -1.59375 -0.671875 -3.875q0 -2.109375 0.8125 -4.015625q0.8125 -1.90625 2.4375 -3.34375q1.640625 -1.4375 4.09375 -2.28125q2.46875 -0.859375 5.765625 -0.859375q1.796875 0 3.46875 0.328125q1.6875 0.3125 3.15625 0.890625q1.484375 0.578125 2.6875 1.359375q1.21875 0.78125 2.15625 1.71875l-2.25 3.484375z" fill-rule="nonzero"/></g></svg>