<svg version="1.1" viewBox="0.0 0.0 358.62467191601047 64.0" fill="none" stroke="none" stroke-linecap="square" stroke-miterlimit="10" xmlns:xlink="http://www.w3.org/1999/xlink" xmlns="http://www.w3.org/2000/svg"><clipPath id="p.0"><path d="m0 0l358.62466 0l0 64.0l-358.62466 0l0 -64.0z" clip-rule="nonzero"/></clipPath><g clip-path="url(#p.0)"><path fill="#000000" fill-opacity="0.0" d="m0 0l358.62466 0l0 64.0l-358.62466 0z" fill-rule="evenodd"/><defs><linearGradient id="p.1" gradientUnits="userSpaceOnUse" gradientTransform="matrix(18.93420019456523 0.0 0.0 18.93420019456523 0.0 0.0)" spreadMethod="pad" x1="0.0" y1="3.3767458859920785" x2="18.934200194565232" y2="3.3767458859920785"><stop offset="0.0" stop-color="#080808"/><stop offset="1.0" stop-color="#828282"/></linearGradient></defs><path fill="url(#p.1)" d="m0 31.968l15.984 -31.967985l326.53592 0l15.984009 31.967985l-15.984009 31.967985l-326.53592 0z" fill-rule="evenodd"/><path fill="#000000" fill-opacity="0.0" d="m27.76868 44.12305l-11.465574 -5.2034836l2.5317783 -2.8031158z" fill-rule="evenodd"/><path stroke="#828282" stroke-width="1.0" stroke-linejoin="round" stroke-linecap="butt" d="m27.76868 44.12305l-11.465574 -5.2034836l2.5317783 -2.8031158z" fill-rule="evenodd"/><path fill="#000000" fill-opacity="0.0" d="m15.751028 15.195112l11.231749 9.029575l-8.022676 11.961569z" fill-rule="evenodd"/><path stroke="#828282" stroke-width="1.0" stroke-linejoin="round" stroke-linecap="butt" d="m15.751028 15.195112l11.231749 9.029575l-8.022676 11.961569z" fill-rule="evenodd"/><path fill="#000000" fill-opacity="0.0" d="m26.775045 24.213945l5.265135 -0.9021511l5.265133 0.9021511z" fill-rule="evenodd"/><path stroke="#828282" stroke-width="1.0" stroke-linejoin="round" stroke-linecap="butt" d="m26.775045 24.213945l5.265135 -0.9021511l5.265133 0.9021511z" fill-rule="evenodd"/><path fill="#000000" fill-opacity="0.0" d="m32.138313 23.153368l-5.1919613 1.1075687l-11.143661 -9.146388z" fill-rule="evenodd"/><path stroke="#828282" stroke-width="1.0" stroke-linejoin="round" stroke-linecap="butt" d="m32.138313 23.153368l-5.1919613 1.1075687l-11.143661 -9.146388z" fill-rule="evenodd"/><path fill="#e0e0e0" d="m48.25564 15.195112l-11.2317505 9.029575l8.022678 11.961569z" fill-rule="evenodd"/><path stroke="#828282" stroke-width="1.0" stroke-linejoin="round" stroke-linecap="butt" d="m48.25564 15.195112l-11.2317505 9.029575l8.022678 11.961569z" fill-rule="evenodd"/><path fill="#acacac" d="m36.05697 44.176746l11.562332 -5.0584984l-2.644661 -2.9319916z" fill-rule="evenodd"/><path stroke="#828282" stroke-width="1.0" stroke-linejoin="round" stroke-linecap="butt" d="m36.05697 44.176746l11.562332 -5.0584984l-2.644661 -2.9319916z" fill-rule="evenodd"/><path fill="#acacac" d="m31.990856 23.153374l5.1621666 1.1224518l11.044449 -9.096831z" fill-rule="evenodd"/><path stroke="#828282" stroke-width="1.0" stroke-linejoin="round" stroke-linecap="butt" d="m31.990856 23.153374l5.1621666 1.1224518l11.044449 -9.096831z" fill-rule="evenodd"/><path fill="#000000" fill-opacity="0.0" d="m32.053185 47.959873l-13.016472 -11.823158l7.7593994 -11.922771z" fill-rule="evenodd"/><path stroke="#828282" stroke-width="1.0" stroke-linejoin="round" stroke-linecap="butt" d="m32.053185 47.959873l-13.016472 -11.823158l7.7593994 -11.922771z" fill-rule="evenodd"/><path fill="#cbcbcb" d="m32.17286 48.047146l12.913097 -11.886749l-7.6399 -11.939732z" fill-rule="evenodd"/><path stroke="#828282" stroke-width="1.0" stroke-linejoin="round" stroke-linecap="butt" d="m32.17286 48.047146l12.913097 -11.886749l-7.6399 -11.939732z" fill-rule="evenodd"/><path fill="#ebebeb" d="m32.083183 24.20589l5.240944 0l-5.240944 23.681492z" fill-rule="evenodd"/><path stroke="#828282" stroke-width="1.0" stroke-linejoin="round" stroke-linecap="butt" d="m32.083183 24.20589l5.240944 0l-5.240944 23.681492z" fill-rule="evenodd"/><path fill="#000000" fill-opacity="0.0" d="m32.08856 24.20589l-5.240946 0l5.240946 23.681492z" fill-rule="evenodd"/><path stroke="#828282" stroke-width="1.0" stroke-linejoin="round" stroke-linecap="butt" d="m32.08856 24.20589l-5.240946 0l5.240946 23.681492z" fill-rule="evenodd"/><path fill="#000000" fill-opacity="0.0" d="m18.945835 36.185837l13.142677 2.5453606" fill-rule="evenodd"/><path stroke="#828282" stroke-width="1.0" stroke-linejoin="round" stroke-linecap="butt" d="m18.945835 36.185837l13.142677 2.5453606" fill-rule="evenodd"/><path fill="#000000" fill-opacity="0.0" d="m45.184155 36.185837l-13.142677 2.5453606" fill-rule="evenodd"/><path stroke="#828282" stroke-width="1.0" stroke-linejoin="round" stroke-linecap="butt" d="m45.184155 36.185837l-13.142677 2.5453606" fill-rule="evenodd"/><path fill="#000000" fill-opacity="0.0" d="m55.906826 13.481912l293.49606 0l0 36.970867l-293.49606 0z" fill-rule="evenodd"/><path fill="#fdfdfd" d="m73.75057 33.031094q0.3125 0.609375 0.609375 1.265625q0.296875 0.65625 0.578125 1.34375q0.265625 -0.703125 0.5625 -1.359375q0.3125 -0.671875 0.625 -1.296875l5.984375 -11.78125q0.171875 -0.296875 0.328125 -0.46875q0.171875 -0.171875 0.375 -0.25q0.21875 -0.078125 0.46875 -0.09375q0.265625 -0.015625 0.625 -0.015625l4.125 0l0 23.3125l-4.765625 0l0 -13.40625q0 -0.984375 0.09375 -2.109375l-6.171875 11.984375q-0.296875 0.5625 -0.78125 0.84375q-0.484375 0.28125 -1.109375 0.28125l-0.734375 0q-0.625 0 -1.109375 -0.28125q-0.484375 -0.28125 -0.78125 -0.84375l-6.203125 -12.0q0.0625 0.5625 0.09375 1.109375q0.03125 0.546875 0.03125 1.015625l0 13.40625l-4.765621 0l0 -23.3125l4.124996 0q0.359375 0 0.609375 0.015625q0.265625 0.015625 0.46875 0.09375q0.21875 0.078125 0.390625 0.25q0.171875 0.171875 0.328125 0.46875l6.0 11.828125l0 0zm29.579315 10.65625q-0.703125 0 -1.0625 -0.1875q-0.359375 -0.203125 -0.59375 -0.796875l-0.359375 -0.921875q-0.625 0.53125 -1.203125 0.9375q-0.578125 0.390625 -1.1875 0.671875q-0.609375 0.28125 -1.3125 0.40625q-0.703125 0.140625 -1.546875 0.140625q-1.140625 0 -2.0625 -0.296875q-0.921875 -0.296875 -1.578125 -0.859375q-0.640625 -0.578125 -1.0 -1.4375q-0.34375 -0.859375 -0.34375 -1.96875q0 -0.890625 0.4375 -1.8125q0.453125 -0.9375 1.546875 -1.6875q1.109375 -0.765625 2.984375 -1.265625q1.875 -0.515625 4.71875 -0.578125l0 -0.71875q0 -1.453125 -0.609375 -2.09375q-0.59375 -0.65625 -1.6875 -0.65625q-0.890625 0 -1.453125 0.203125q-0.546875 0.1875 -1.0 0.4375q-0.4375 0.234375 -0.859375 0.421875q-0.40625 0.1875 -0.984375 0.1875q-0.5 0 -0.875 -0.25q-0.359375 -0.25 -0.5625 -0.609375l-0.890625 -1.546875q1.5 -1.328125 3.328125 -1.96875q1.84375 -0.65625 3.9375 -0.65625q1.5 0 2.703125 0.484375q1.21875 0.484375 2.046875 1.359375q0.84375 0.875 1.28125 2.078125q0.453125 1.1875 0.453125 2.609375l0 10.375l-2.265625 0zm-5.6875 -3.03125q0.953125 0 1.671875 -0.328125q0.71875 -0.34375 1.453125 -1.09375l0 -2.296875q-1.484375 0.0625 -2.453125 0.265625q-0.953125 0.1875 -1.515625 0.46875q-0.5625 0.28125 -0.78125 0.65625q-0.203125 0.375 -0.203125 0.796875q0 0.84375 0.453125 1.1875q0.46875 0.34375 1.375 0.34375zm11.482407 3.03125l0 -16.59375l2.9375 0q0.375 0 0.625 0.0625q0.25 0.0625 0.40625 0.203125q0.171875 0.140625 0.25 0.359375q0.09375 0.21875 0.15625 0.546875l0.28125 1.546875q0.90625 -1.40625 2.046875 -2.21875q1.140625 -0.8125 2.484375 -0.8125q1.125 0 1.8125 0.53125l-0.640625 3.65625q-0.0625 0.328125 -0.25 0.46875q-0.1875 0.140625 -0.515625 0.140625q-0.265625 0 -0.640625 -0.0625q-0.359375 -0.078125 -0.921875 -0.078125q-1.953125 0 -3.078125 2.078125l0 10.171875l-4.953125 0zm13.216034 0l0 -23.953125l4.953125 0l0 9.125q0.9375076 -0.921875 2.1093826 -1.46875q1.171875 -0.546875 2.765625 -0.546875q1.296875 0 2.390625 0.5625q1.109375 0.546875 1.90625 1.640625q0.796875 1.078125 1.25 2.640625q0.46875 1.5625 0.46875 3.5625q0 1.875 -0.53125 3.46875q-0.515625 1.578125 -1.453125 2.75q-0.9375 1.15625 -2.25 1.8125q-1.296875 0.65625 -2.875 0.65625q-0.734375 0 -1.328125 -0.140625q-0.578125 -0.140625 -1.0625 -0.40625q-0.484375 -0.265625 -0.9062576 -0.625q-0.40625 -0.375 -0.78125 -0.8125l-0.171875 0.84375q-0.125 0.5 -0.421875 0.703125q-0.28125 0.1875 -0.765625 0.1875l-3.296875 0zm8.093758 -13.125q-0.546875 0 -0.984375 0.109375q-0.4375 0.109375 -0.8125 0.296875q-0.375 0.1875 -0.7031326 0.484375q-0.3125 0.296875 -0.640625 0.6875l0 7.03125q0.5625 0.625 1.2187576 0.875q0.65625 0.25 1.375 0.25q0.6875 0 1.265625 -0.265625q0.578125 -0.28125 1.0 -0.875q0.421875 -0.609375 0.65625 -1.5625q0.25 -0.96875 0.25 -2.34375q0 -1.3125 -0.203125 -2.203125q-0.1875 -0.890625 -0.53125 -1.4375q-0.34375 -0.5625 -0.828125 -0.796875q-0.46875 -0.25 -1.0625 -0.25zm15.591293 -10.828125l0 23.953125l-4.96875 0l0 -23.953125l4.96875 0zm11.104401 7.109375q1.640625 0 3.0 0.515625q1.375 0.5 2.359375 1.484375q0.984375 0.96875 1.53125 2.390625q0.5625 1.40625 0.5625 3.203125q0 0.5625 -0.046875 0.921875q-0.046875 0.34375 -0.1875 0.5625q-0.125 0.203125 -0.34375 0.28125q-0.203125 0.078125 -0.546875 0.078125l-9.5625 0q0.234375 2.078125 1.25 3.015625q1.03125 0.9375 2.65625 0.9375q0.859375 0 1.484375 -0.203125q0.625 -0.21875 1.109375 -0.46875q0.484375 -0.265625 0.890625 -0.46875q0.40625 -0.203125 0.859375 -0.203125q0.59375 0 0.890625 0.421875l1.453125 1.78125q-0.78125 0.875 -1.671875 1.4375q-0.875 0.546875 -1.8125 0.859375q-0.9375 0.3125 -1.875 0.421875q-0.9375 0.125 -1.78125 0.125q-1.75 0 -3.28125 -0.5625q-1.515625 -0.5625 -2.671875 -1.6875q-1.140625 -1.125 -1.8125 -2.78125q-0.65625 -1.671875 -0.65625 -3.875q0 -1.65625 0.5625 -3.140625q0.578125 -1.5 1.640625 -2.609375q1.0625 -1.125 2.578125 -1.78125q1.515625 -0.65625 3.421875 -0.65625zm0.09375 3.421875q-1.421875 0 -2.234375 0.8125q-0.796875 0.796875 -1.046875 2.328125l6.1875 0q0 -0.59375 -0.15625 -1.15625q-0.140625 -0.5625 -0.484375 -1.0q-0.34375 -0.4375 -0.90625 -0.703125q-0.5625 -0.28125 -1.359375 -0.28125zm31.38092 -9.890625l0 4.15625l-9.5625 0l0 5.90625l7.96875 0l0 4.171875l-7.96875 0l0 9.078125l-5.4375 0l0 -23.3125l15.0 0zm9.254654 6.46875q1.890625 0 3.4375 0.59375q1.546875 0.59375 2.65625 1.703125q1.125 1.09375 1.734375 2.671875q0.625 1.578125 0.625 3.53125q0 1.984375 -0.625 3.578125q-0.609375 1.59375 -1.734375 2.71875q-1.109375 1.109375 -2.65625 1.703125q-1.546875 0.59375 -3.4375 0.59375q-1.90625 0 -3.46875 -0.59375q-1.5625 -0.59375 -2.6875 -1.703125q-1.125 -1.125 -1.75 -2.71875q-0.609375 -1.59375 -0.609375 -3.578125q0 -1.953125 0.609375 -3.53125q0.625 -1.578125 1.75 -2.671875q1.125 -1.109375 2.6875 -1.703125q1.5625 -0.59375 3.46875 -0.59375zm0 13.421875q1.71875 0 2.515625 -1.203125q0.8125 -1.21875 0.8125 -3.671875q0 -2.46875 -0.8125 -3.671875q-0.796875 -1.203125 -2.515625 -1.203125q-1.765625 0 -2.578125 1.203125q-0.8125 1.203125 -0.8125 3.671875q0 2.453125 0.8125 3.671875q0.8125 1.203125 2.578125 1.203125zm14.178162 -5.15625l-5.34375 -8.015625l4.765625 0q0.53125 0 0.78125 0.140625q0.25 0.140625 0.4375 0.453125l2.953125 4.90625q0.09375 -0.28125 0.234375 -0.546875q0.15625 -0.28125 0.328125 -0.578125l2.109375 -3.703125q0.21875 -0.359375 0.46875 -0.515625q0.25 -0.15625 0.625 -0.15625l4.546875 0l-5.34375 7.796875l5.5625 8.796875l-4.765625 0q-0.53125 0 -0.859375 -0.25q-0.3125 -0.265625 -0.515625 -0.609375l-2.96875 -5.09375q-0.078125 0.265625 -0.1875 0.515625q-0.109375 0.234375 -0.234375 0.453125l-2.4375 4.125q-0.1875 0.328125 -0.515625 0.59375q-0.3125 0.265625 -0.796875 0.265625l-4.421875 0l5.578125 -8.578125zm33.52768 -10.0q-0.234375 0.390625 -0.5 0.578125q-0.265625 0.1875 -0.671875 0.1875q-0.375 0 -0.796875 -0.21875q-0.421875 -0.234375 -0.96875 -0.515625q-0.53125 -0.296875 -1.21875 -0.53125q-0.6875 -0.234375 -1.5625 -0.234375q-1.53125 0 -2.28125 0.65625q-0.734375 0.640625 -0.734375 1.75q0 0.703125 0.453125 1.171875q0.453125 0.453125 1.171875 0.796875q0.734375 0.328125 1.671875 0.609375q0.9375 0.28125 1.90625 0.625q0.984375 0.34375 1.90625 0.8125q0.9375 0.453125 1.671875 1.1875q0.734375 0.71875 1.171875 1.75q0.453125 1.03125 0.453125 2.484375q0 1.609375 -0.5625 3.015625q-0.5625 1.40625 -1.625 2.46875q-1.0625 1.046875 -2.625 1.640625q-1.5625 0.59375 -3.546875 0.59375q-1.078125 0 -2.21875 -0.21875q-1.125 -0.21875 -2.1875 -0.625q-1.046875 -0.421875 -1.984375 -0.96875q-0.921875 -0.5625 -1.609375 -1.25l1.609375 -2.53125q0.171875 -0.28125 0.484375 -0.453125q0.328125 -0.1875 0.703125 -0.1875q0.46875 0 0.953125 0.3125q0.5 0.296875 1.109375 0.671875q0.625 0.359375 1.421875 0.671875q0.796875 0.296875 1.890625 0.296875q1.46875 0 2.28125 -0.640625q0.8125 -0.65625 0.8125 -2.0625q0 -0.8125 -0.453125 -1.328125q-0.4375 -0.515625 -1.171875 -0.84375q-0.71875 -0.34375 -1.65625 -0.59375q-0.921875 -0.265625 -1.90625 -0.578125q-0.96875 -0.3125 -1.90625 -0.765625q-0.921875 -0.453125 -1.65625 -1.1875q-0.71875 -0.75 -1.171875 -1.859375q-0.4375 -1.125 -0.4375 -2.75q0 -1.3125 0.515625 -2.5625q0.53125 -1.25 1.546875 -2.21875q1.03125 -0.984375 2.515625 -1.5625q1.5 -0.578125 3.421875 -0.578125q1.0625 0 2.078125 0.171875q1.015625 0.15625 1.921875 0.484375q0.921875 0.328125 1.703125 0.796875q0.796875 0.453125 1.421875 1.015625l-1.34375 2.515625zm10.18779 18.828125q-1.1875 0 -2.09375 -0.34375q-0.90625 -0.34375 -1.53125 -0.96875q-0.609375 -0.640625 -0.9375 -1.53125q-0.3125 -0.890625 -0.3125 -2.0l0 -8.578125l-1.40625 0q-0.375 0 -0.65625 -0.234375q-0.265625 -0.25 -0.265625 -0.734375l0 -1.9375l2.640625 -0.515625l0.96875 -4.046875q0.203125 -0.765625 1.09375 -0.765625l2.59375 0l0 4.84375l4.03125 0l0 3.390625l-4.03125 0l0 8.25q0 0.5625 0.28125 0.953125q0.28125 0.375 0.796875 0.375q0.28125 0 0.453125 -0.0625q0.1875 -0.0625 0.328125 -0.125q0.140625 -0.078125 0.25 -0.125q0.125 -0.0625 0.28125 -0.0625q0.234375 0 0.359375 0.109375q0.140625 0.09375 0.28125 0.328125l1.515625 2.34375q-0.96875 0.71875 -2.171875 1.078125q-1.1875 0.359375 -2.46875 0.359375zm11.612518 -16.84375l0 10.53125q0 1.234375 0.5625 1.90625q0.5625 0.671875 1.640625 0.671875q0.8125 0 1.53125 -0.328125q0.71875 -0.34375 1.390625 -0.953125l0 -11.828125l4.953125 0l0 16.59375l-3.078125 0q-0.921875 0 -1.203125 -0.828125l-0.3125 -0.96875q-0.484375 0.46875 -1.0 0.84375q-0.5 0.375 -1.09375 0.640625q-0.578125 0.265625 -1.25 0.40625q-0.671875 0.15625 -1.46875 0.15625q-1.359375 0 -2.40625 -0.46875q-1.046875 -0.46875 -1.765625 -1.3125q-0.71875 -0.859375 -1.09375 -2.0q-0.375 -1.15625 -0.375 -2.53125l0 -10.53125l4.96875 0zm25.560059 16.59375q-0.453125 0 -0.765625 -0.203125q-0.3125 -0.21875 -0.4375 -0.625l-0.390625 -1.265625q-0.5 0.53125 -1.046875 0.96875q-0.53125 0.421875 -1.171875 0.734375q-0.625 0.3125 -1.359375 0.46875q-0.734375 0.171875 -1.578125 0.171875q-1.296875 0 -2.40625 -0.5625q-1.09375 -0.578125 -1.890625 -1.671875q-0.796875 -1.09375 -1.265625 -2.65625q-0.453125 -1.578125 -0.453125 -3.59375q0 -1.859375 0.515625 -3.453125q0.515625 -1.59375 1.453125 -2.75q0.9375 -1.15625 2.234375 -1.8125q1.3125 -0.65625 2.90625 -0.65625q1.28125 0 2.15625 0.375q0.890625 0.375 1.625 0.984375l0 -8.40625l4.953125 0l0 23.953125l-3.078125 0zm-5.015625 -3.546875q0.546875 0 0.984375 -0.109375q0.4375 -0.109375 0.796875 -0.296875q0.375 -0.1875 0.703125 -0.46875q0.328125 -0.296875 0.65625 -0.6875l0 -7.03125q-0.578125 -0.625 -1.234375 -0.875q-0.640625 -0.25 -1.359375 -0.25q-0.6875 0 -1.265625 0.28125q-0.578125 0.265625 -1.0 0.875q-0.421875 0.59375 -0.671875 1.5625q-0.234375 0.953125 -0.234375 2.3125q0 1.3125 0.1875 2.203125q0.1875 0.890625 0.53125 1.453125q0.34375 0.546875 0.828125 0.796875q0.484375 0.234375 1.078125 0.234375zm17.060028 -13.046875l0 16.59375l-4.96875 0l0 -16.59375l4.96875 0zm0.5625 -4.546875q0 0.59375 -0.234375 1.125q-0.234375 0.515625 -0.65625 0.90625q-0.421875 0.390625 -0.96875 0.625q-0.546875 0.234375 -1.171875 0.234375q-0.609375 0 -1.140625 -0.234375q-0.53125 -0.234375 -0.9375 -0.625q-0.40625 -0.390625 -0.640625 -0.90625q-0.234375 -0.53125 -0.234375 -1.125q0 -0.609375 0.234375 -1.125q0.234375 -0.53125 0.640625 -0.921875q0.40625 -0.40625 0.9375 -0.625q0.53125 -0.234375 1.140625 -0.234375q0.625 0 1.171875 0.234375q0.546875 0.21875 0.96875 0.625q0.421875 0.390625 0.65625 0.921875q0.234375 0.515625 0.234375 1.125zm10.823151 4.296875q1.890625 0 3.4375 0.59375q1.546875 0.59375 2.65625 1.703125q1.125 1.09375 1.734375 2.671875q0.625 1.578125 0.625 3.53125q0 1.984375 -0.625 3.578125q-0.609375 1.59375 -1.734375 2.71875q-1.109375 1.109375 -2.65625 1.703125q-1.546875 0.59375 -3.4375 0.59375q-1.90625 0 -3.46875 -0.59375q-1.5625 -0.59375 -2.6875 -1.703125q-1.125 -1.125 -1.75 -2.71875q-0.609375 -1.59375 -0.609375 -3.578125q0 -1.953125 0.609375 -3.53125q0.625 -1.578125 1.75 -2.671875q1.125 -1.109375 2.6875 -1.703125q1.5625 -0.59375 3.46875 -0.59375zm0 13.421875q1.71875 0 2.515625 -1.203125q0.8125 -1.21875 0.8125 -3.671875q0 -2.46875 -0.8125 -3.671875q-0.796875 -1.203125 -2.515625 -1.203125q-1.765625 0 -2.578125 1.203125q-0.8125 1.203125 -0.8125 3.671875q0 2.453125 0.8125 3.671875q0.8125 1.203125 2.578125 1.203125zm21.310059 -9.53125q-0.1875 0.296875 -0.40625 0.421875q-0.21875 0.125 -0.546875 0.125q-0.359375 0 -0.71875 -0.140625q-0.34375 -0.15625 -0.75 -0.328125q-0.40625 -0.1875 -0.921875 -0.328125q-0.515625 -0.15625 -1.171875 -0.15625q-0.9375 0 -1.453125 0.359375q-0.5 0.359375 -0.5 1.0q0 0.46875 0.328125 0.78125q0.328125 0.296875 0.875 0.53125q0.546875 0.21875 1.234375 0.4375q0.6875 0.203125 1.40625 0.46875q0.71875 0.25 1.40625 0.59375q0.6875 0.34375 1.234375 0.84375q0.546875 0.5 0.875 1.21875q0.328125 0.71875 0.328125 1.734375q0 1.234375 -0.453125 2.28125q-0.4375 1.03125 -1.328125 1.78125q-0.890625 0.75 -2.203125 1.171875q-1.296875 0.40625 -3.0 0.40625q-0.84375 0 -1.6875 -0.15625q-0.84375 -0.15625 -1.640625 -0.421875q-0.796875 -0.28125 -1.46875 -0.65625q-0.671875 -0.375 -1.140625 -0.8125l1.140625 -1.8125q0.21875 -0.328125 0.5 -0.5q0.28125 -0.1875 0.75 -0.1875q0.4375 0 0.78125 0.1875q0.34375 0.1875 0.734375 0.421875q0.40625 0.21875 0.9375 0.40625q0.546875 0.1875 1.359375 0.1875q0.578125 0 0.96875 -0.109375q0.40625 -0.125 0.640625 -0.328125q0.25 -0.21875 0.359375 -0.46875q0.109375 -0.25 0.109375 -0.53125q0 -0.5 -0.34375 -0.8125q-0.328125 -0.3125 -0.875 -0.546875q-0.546875 -0.234375 -1.25 -0.4375q-0.6875 -0.203125 -1.40625 -0.453125q-0.71875 -0.265625 -1.421875 -0.625q-0.6875 -0.359375 -1.234375 -0.90625q-0.546875 -0.546875 -0.890625 -1.34375q-0.328125 -0.8125 -0.328125 -1.9375q0 -1.0625 0.40625 -2.015625q0.421875 -0.953125 1.234375 -1.671875q0.8125 -0.71875 2.046875 -1.140625q1.234375 -0.421875 2.875 -0.421875q0.90625 0 1.734375 0.15625q0.84375 0.15625 1.578125 0.453125q0.734375 0.28125 1.34375 0.671875q0.609375 0.390625 1.078125 0.859375l-1.125 1.75z" fill-rule="nonzero"/></g></svg>