<svg version="1.1" viewBox="0.0 0.0 89.65616797900262 16.0" fill="none" stroke="none" stroke-linecap="square" stroke-miterlimit="10" xmlns:xlink="http://www.w3.org/1999/xlink" xmlns="http://www.w3.org/2000/svg"><clipPath id="p.0"><path d="m0 0l89.656166 0l0 16.0l-89.656166 0l0 -16.0z" clip-rule="nonzero"/></clipPath><g clip-path="url(#p.0)"><path fill="#000000" fill-opacity="0.0" d="m0 0l89.656166 0l0 16.0l-89.656166 0z" fill-rule="evenodd"/><defs><linearGradient id="p.1" gradientUnits="userSpaceOnUse" gradientTransform="matrix(9.467100097282614 0.0 0.0 9.467100097282614 0.0 0.0)" spreadMethod="pad" x1="0.0" y1="1.6887109663023145" x2="9.467100097282616" y2="1.6887109663023145"><stop offset="0.0" stop-color="#080808"/><stop offset="1.0" stop-color="#828282"/></linearGradient></defs><path fill="url(#p.1)" d="m0 7.9936l3.9968 -7.993596l81.63238 0l3.9968033 7.993596l-3.9968033 7.993596l-81.63238 0z" fill-rule="evenodd"/><path fill="#000000" fill-opacity="0.0" d="m6.94217 11.032971l-2.8663936 -1.3011312l0.6329446 -0.70091915z" fill-rule="evenodd"/><path stroke="#828282" stroke-width="1.0" stroke-linejoin="round" stroke-linecap="butt" d="m6.94217 11.032971l-2.8663936 -1.3011312l0.6329446 -0.70091915z" fill-rule="evenodd"/><path fill="#000000" fill-opacity="0.0" d="m3.937757 3.7995384l2.8079371 2.257846l-2.005669 2.9909906z" fill-rule="evenodd"/><path stroke="#828282" stroke-width="1.0" stroke-linejoin="round" stroke-linecap="butt" d="m3.937757 3.7995384l2.8079371 2.257846l-2.005669 2.9909906z" fill-rule="evenodd"/><path fill="#000000" fill-opacity="0.0" d="m6.6937613 6.0546985l1.3162837 -0.22558308l1.3162832 0.22558308z" fill-rule="evenodd"/><path stroke="#828282" stroke-width="1.0" stroke-linejoin="round" stroke-linecap="butt" d="m6.6937613 6.0546985l1.3162837 -0.22558308l1.3162832 0.22558308z" fill-rule="evenodd"/><path fill="#000000" fill-opacity="0.0" d="m8.034578 5.7895007l-1.2979903 0.2769475l-2.7859151 -2.2870545z" fill-rule="evenodd"/><path stroke="#828282" stroke-width="1.0" stroke-linejoin="round" stroke-linecap="butt" d="m8.034578 5.7895007l-1.2979903 0.2769475l-2.7859151 -2.2870545z" fill-rule="evenodd"/><path fill="#e0e0e0" d="m12.06391 3.7995384l-2.8079376 2.257846l2.0056696 2.9909906z" fill-rule="evenodd"/><path stroke="#828282" stroke-width="1.0" stroke-linejoin="round" stroke-linecap="butt" d="m12.06391 3.7995384l-2.8079376 2.257846l2.0056696 2.9909906z" fill-rule="evenodd"/><path fill="#acacac" d="m9.014242 11.046397l2.890583 -1.2648773l-0.66116524 -0.73314476z" fill-rule="evenodd"/><path stroke="#828282" stroke-width="1.0" stroke-linejoin="round" stroke-linecap="butt" d="m9.014242 11.046397l2.890583 -1.2648773l-0.66116524 -0.73314476z" fill-rule="evenodd"/><path fill="#acacac" d="m7.997714 5.7895026l1.2905416 0.28066874l2.7611122 -2.274663z" fill-rule="evenodd"/><path stroke="#828282" stroke-width="1.0" stroke-linejoin="round" stroke-linecap="butt" d="m7.997714 5.7895026l1.2905416 0.28066874l2.7611122 -2.274663z" fill-rule="evenodd"/><path fill="#000000" fill-opacity="0.0" d="m8.013296 11.992369l-3.254118 -2.9563808l1.9398499 -2.9812903z" fill-rule="evenodd"/><path stroke="#828282" stroke-width="1.0" stroke-linejoin="round" stroke-linecap="butt" d="m8.013296 11.992369l-3.254118 -2.9563808l1.9398499 -2.9812903z" fill-rule="evenodd"/><path fill="#cbcbcb" d="m8.043215 12.014192l3.2282743 -2.9722834l-1.909975 -2.9855294z" fill-rule="evenodd"/><path stroke="#828282" stroke-width="1.0" stroke-linejoin="round" stroke-linecap="butt" d="m8.043215 12.014192l3.2282743 -2.9722834l-1.909975 -2.9855294z" fill-rule="evenodd"/><path fill="#ebebeb" d="m8.020796 6.0526843l1.310236 0l-1.310236 5.921558z" fill-rule="evenodd"/><path stroke="#828282" stroke-width="1.0" stroke-linejoin="round" stroke-linecap="butt" d="m8.020796 6.0526843l1.310236 0l-1.310236 5.921558z" fill-rule="evenodd"/><path fill="#000000" fill-opacity="0.0" d="m8.02214 6.0526843l-1.3102365 0l1.3102365 5.921558z" fill-rule="evenodd"/><path stroke="#828282" stroke-width="1.0" stroke-linejoin="round" stroke-linecap="butt" d="m8.02214 6.0526843l-1.3102365 0l1.3102365 5.921558z" fill-rule="evenodd"/><path fill="#000000" fill-opacity="0.0" d="m4.736459 9.048271l3.2856693 0.636466" fill-rule="evenodd"/><path stroke="#828282" stroke-width="1.0" stroke-linejoin="round" stroke-linecap="butt" d="m4.736459 9.048271l3.2856693 0.636466" fill-rule="evenodd"/><path fill="#000000" fill-opacity="0.0" d="m11.296039 9.048271l-3.2856693 0.636466" fill-rule="evenodd"/><path stroke="#828282" stroke-width="1.0" stroke-linejoin="round" stroke-linecap="butt" d="m11.296039 9.048271l-3.2856693 0.636466" fill-rule="evenodd"/><path fill="#000000" fill-opacity="0.0" d="m13.9767065 3.3711526l73.374016 0l0 9.244567l-73.374016 0z" fill-rule="evenodd"/><path fill="#fdfdfd" d="m18.42983 8.017186q0.09375 0.140625 0.15625 0.3125q0.078125 0.15625 0.140625 0.328125q0.078125 -0.171875 0.140625 -0.328125q0.078125 -0.171875 0.171875 -0.328125l1.484375 -2.9531255q0.046875 -0.078125 0.078125 -0.109375q0.046875 -0.046875 0.09375 -0.0625q0.0625 -0.015625 0.125 -0.015625q0.0625 -0.015625 0.15625 -0.015625l1.03125 0l0 5.8281255l-1.1875 0l0 -3.3593755q0 -0.234375 0.015625 -0.515625l-1.546875 2.9843755q-0.0625 0.140625 -0.1875 0.21875q-0.125 0.078125 -0.28125 0.078125l-0.1875 0q-0.140625 0 -0.265625 -0.078125q-0.125 -0.078125 -0.203125 -0.21875l-1.546875 -3.0000005q0.015625 0.140625 0.015625 0.28125q0.015625 0.140625 0.015625 0.25l0 3.3593755l-1.187499 0l0 -5.8281255l1.031249 0q0.078125 0 0.140625 0.015625q0.078125 0 0.125 0.015625q0.0625 0.015625 0.09375 0.0625q0.046875 0.03125 0.078125 0.109375l1.5 2.9687505l0 0zm7.402527 2.65625q-0.171875 0 -0.265625 -0.046875q-0.09375 -0.046875 -0.15625 -0.203125l-0.078125 -0.21875q-0.15625 0.125 -0.3125 0.234375q-0.140625 0.09375 -0.296875 0.171875q-0.140625 0.0625 -0.328125 0.09375q-0.171875 0.03125 -0.375 0.03125q-0.28125 0 -0.515625 -0.0625q-0.234375 -0.078125 -0.40625 -0.21875q-0.15625 -0.15625 -0.25 -0.359375q-0.078125 -0.21875 -0.078125 -0.5q0 -0.21875 0.109375 -0.453125q0.109375 -0.234375 0.390625 -0.421875q0.28125 -0.1875 0.734375 -0.3125q0.46875 -0.140625 1.1875 -0.15625l0 -0.171875q0 -0.35937548 -0.15625 -0.5156255q-0.140625 -0.171875 -0.421875 -0.171875q-0.21875 0 -0.359375 0.046875q-0.140625 0.046875 -0.25 0.109375q-0.109375 0.0625 -0.21875 0.109375q-0.09375 0.046875 -0.234375 0.046875q-0.140625 0 -0.234375 -0.0625q-0.078125 -0.0625 -0.125 -0.15625l-0.234375 -0.390625q0.375 -0.328125 0.828125 -0.484375q0.46875 -0.171875 0.984375 -0.171875q0.375 0 0.671875 0.125q0.3125 0.125 0.515625 0.34375q0.21875 0.21875 0.328125 0.515625q0.109375 0.296875 0.109375 0.6562505l0 2.59375l-0.5625 0zm-1.421875 -0.75q0.234375 0 0.40625 -0.078125q0.1875 -0.09375 0.375 -0.28125l0 -0.578125q-0.375 0.015625 -0.609375 0.0625q-0.234375 0.046875 -0.375 0.125q-0.140625 0.0625 -0.203125 0.15625q-0.046875 0.09375 -0.046875 0.203125q0 0.21875 0.109375 0.3125q0.125 0.078125 0.34375 0.078125zm2.8744507 0.75l0 -4.1406255l0.734375 0q0.09375 0 0.15625 0.015625q0.0625 0.015625 0.09375 0.046875q0.046875 0.03125 0.0625 0.09375q0.03125 0.046875 0.046875 0.125l0.0625 0.390625q0.234375 -0.34375 0.515625 -0.546875q0.28125 -0.21875 0.625 -0.21875q0.28125 0 0.453125 0.140625l-0.15625 0.90625q-0.015625 0.09375 -0.078125 0.125q-0.046875 0.03125 -0.125 0.03125q-0.0625 0 -0.15625 -0.015625q-0.09375 -0.015625 -0.234375 -0.015625q-0.484375 0 -0.765625 0.5156255l0 2.546875l-1.234375 0zm3.303955 0l0 -5.9843755l1.234375 0l0 2.28125q0.2343769 -0.234375 0.5312519 -0.375q0.296875 -0.140625 0.6875 -0.140625q0.328125 0 0.59375 0.140625q0.28125 0.140625 0.484375 0.421875q0.203125 0.265625 0.3125 0.65625q0.109375 0.39062548 0.109375 0.8906255q0 0.46875 -0.125 0.875q-0.125 0.390625 -0.359375 0.6875q-0.234375 0.28125 -0.5625 0.453125q-0.328125 0.15625 -0.734375 0.15625q-0.171875 0 -0.328125 -0.046875q-0.140625 -0.03125 -0.265625 -0.09375q-0.125 -0.0625 -0.2343769 -0.15625q-0.09375 -0.09375 -0.1875 -0.203125l-0.046875 0.21875q-0.015625 0.125 -0.09375 0.171875q-0.078125 0.046875 -0.203125 0.046875l-0.8125 0zm2.015627 -3.2812505q-0.125 0 -0.25 0.03125q-0.109375 0.015625 -0.203125 0.078125q-0.09375 0.046875 -0.1718769 0.125q-0.078125 0.0625 -0.15625 0.15625l0 1.7656255q0.140625 0.15625 0.2968769 0.21875q0.171875 0.0625 0.359375 0.0625q0.171875 0 0.3125 -0.0625q0.140625 -0.078125 0.25 -0.21875q0.109375 -0.15625 0.15625 -0.390625q0.0625 -0.25 0.0625 -0.59375q0 -0.328125 -0.046875 -0.546875q-0.046875 -0.23437548 -0.140625 -0.35937548q-0.078125 -0.140625 -0.203125 -0.203125q-0.109375 -0.0625 -0.265625 -0.0625zm3.9055634 -2.703125l0 5.9843755l-1.25 0l0 -5.9843755l1.25 0zm2.7643433 1.765625q0.421875 0 0.765625 0.140625q0.34375 0.125 0.578125 0.375q0.25 0.234375 0.390625 0.59375q0.140625 0.34375 0.140625 0.7968755q0 0.140625 -0.015625 0.234375q-0.015625 0.078125 -0.046875 0.140625q-0.03125 0.046875 -0.09375 0.0625q-0.046875 0.015625 -0.125 0.015625l-2.390625 0q0.0625 0.53125 0.3125 0.765625q0.25 0.234375 0.65625 0.234375q0.21875 0 0.375 -0.046875q0.15625 -0.0625 0.28125 -0.125q0.125 -0.0625 0.21875 -0.109375q0.109375 -0.0625 0.21875 -0.0625q0.140625 0 0.21875 0.109375l0.359375 0.453125q-0.1875 0.21875 -0.421875 0.359375q-0.21875 0.125 -0.453125 0.203125q-0.234375 0.078125 -0.46875 0.109375q-0.21875 0.03125 -0.4375 0.03125q-0.4375 0 -0.828125 -0.140625q-0.375 -0.140625 -0.65625 -0.421875q-0.28125 -0.28125 -0.453125 -0.6875q-0.171875 -0.421875 -0.171875 -0.96875q0 -0.421875 0.140625 -0.7968755q0.140625 -0.375 0.40625 -0.65625q0.28125 -0.28125 0.65625 -0.4375q0.375 -0.171875 0.84375 -0.171875zm0.03125 0.859375q-0.359375 0 -0.5625 0.203125q-0.1875 0.203125 -0.265625 0.5781255l1.5625 0q0 -0.14062548 -0.046875 -0.28125048q-0.03125 -0.140625 -0.125 -0.25q-0.078125 -0.109375 -0.21875 -0.171875q-0.140625 -0.078125 -0.34375 -0.078125zm7.849045 -2.46875l0 1.046875l-2.390625 0l0 1.46875l1.984375 0l0 1.0468755l-1.984375 0l0 2.265625l-1.359375 0l0 -5.8281255l3.75 0zm2.3096924 1.609375q0.46875 0 0.859375 0.15625q0.390625 0.140625 0.65625 0.421875q0.28125 0.28125 0.4375 0.671875q0.15625 0.39062548 0.15625 0.8906255q0 0.484375 -0.15625 0.890625q-0.15625 0.390625 -0.4375 0.671875q-0.265625 0.28125 -0.65625 0.4375q-0.390625 0.140625 -0.859375 0.140625q-0.46875 0 -0.859375 -0.140625q-0.390625 -0.15625 -0.671875 -0.4375q-0.28125 -0.28125 -0.4375 -0.671875q-0.15625 -0.40625 -0.15625 -0.890625q0 -0.5 0.15625 -0.8906255q0.15625 -0.390625 0.4375 -0.671875q0.28125 -0.28125 0.671875 -0.421875q0.390625 -0.15625 0.859375 -0.15625zm0 3.3593755q0.421875 0 0.625 -0.296875q0.203125 -0.296875 0.203125 -0.921875q0 -0.6093755 -0.203125 -0.9062505q-0.203125 -0.3125 -0.625 -0.3125q-0.4375 0 -0.640625 0.3125q-0.203125 0.296875 -0.203125 0.9062505q0 0.625 0.203125 0.921875q0.203125 0.296875 0.640625 0.296875zm3.5405579 -1.28125l-1.328125 -2.0000005l1.1875 0q0.125 0 0.1875 0.03125q0.0625 0.03125 0.109375 0.109375l0.75 1.234375q0.015625 -0.078125 0.046875 -0.140625q0.046875 -0.078125 0.09375 -0.15625l0.53125 -0.921875q0.046875 -0.09375 0.109375 -0.125q0.0625 -0.03125 0.15625 -0.03125l1.140625 0l-1.34375 1.9375005l1.390625 2.203125l-1.1875 0q-0.125 0 -0.21875 -0.0625q-0.078125 -0.0625 -0.125 -0.15625l-0.734375 -1.265625q-0.03125 0.0625 -0.0625 0.125q-0.015625 0.0625 -0.046875 0.109375l-0.609375 1.03125q-0.046875 0.09375 -0.140625 0.15625q-0.078125 0.0625 -0.1875 0.0625l-1.109375 0l1.390625 -2.140625zm8.393539 -2.5000005q-0.0625 0.09375 -0.140625 0.140625q-0.0625 0.046875 -0.15625 0.046875q-0.09375 0 -0.203125 -0.046875q-0.109375 -0.0625 -0.25 -0.140625q-0.125 -0.078125 -0.296875 -0.125q-0.171875 -0.0625 -0.390625 -0.0625q-0.375 0 -0.5625 0.171875q-0.1875 0.15625 -0.1875 0.421875q0 0.1875 0.109375 0.3125q0.109375 0.109375 0.28125 0.1875q0.1875 0.078125 0.421875 0.15625q0.234375 0.0625 0.484375 0.15625q0.25 0.078125 0.484375 0.203125q0.234375 0.109375 0.40625 0.296875q0.1875 0.171875 0.296875 0.43750048q0.109375 0.25 0.109375 0.609375q0 0.40625 -0.140625 0.765625q-0.140625 0.34375 -0.40625 0.609375q-0.265625 0.265625 -0.65625 0.421875q-0.390625 0.140625 -0.875 0.140625q-0.28125 0 -0.5625 -0.0625q-0.28125 -0.046875 -0.546875 -0.140625q-0.265625 -0.109375 -0.5 -0.25q-0.21875 -0.140625 -0.390625 -0.3125l0.390625 -0.640625q0.046875 -0.0625 0.125 -0.109375q0.078125 -0.046875 0.171875 -0.046875q0.125 0 0.234375 0.078125q0.125 0.078125 0.28125 0.171875q0.15625 0.09375 0.359375 0.171875q0.203125 0.0625 0.46875 0.0625q0.375 0 0.578125 -0.15625q0.203125 -0.15625 0.203125 -0.515625q0 -0.203125 -0.125 -0.328125q-0.109375 -0.125 -0.296875 -0.203125q-0.171875 -0.09375 -0.40625 -0.15625q-0.234375 -0.0625 -0.484375 -0.140625q-0.234375 -0.078125 -0.46875 -0.18750048q-0.21875 -0.125 -0.40625 -0.3125q-0.1875 -0.1875 -0.296875 -0.453125q-0.109375 -0.28125 -0.109375 -0.6875q0 -0.328125 0.125 -0.640625q0.140625 -0.3125 0.390625 -0.546875q0.265625 -0.25 0.625 -0.390625q0.375 -0.15625 0.859375 -0.15625q0.265625 0 0.515625 0.046875q0.265625 0.03125 0.484375 0.125q0.234375 0.078125 0.421875 0.1875q0.203125 0.109375 0.359375 0.265625l-0.328125 0.625zm2.5390625 4.7031255q-0.296875 0 -0.53125 -0.078125q-0.21875 -0.09375 -0.375 -0.25q-0.15625 -0.15625 -0.234375 -0.375q-0.078125 -0.234375 -0.078125 -0.5l0 -2.1562505l-0.34375 0q-0.109375 0 -0.171875 -0.0625q-0.0625 -0.0625 -0.0625 -0.171875l0 -0.484375l0.65625 -0.125l0.25 -1.015625q0.046875 -0.203125 0.265625 -0.203125l0.640625 0l0 1.21875l1.015625 0l0 0.84375l-1.015625 0l0 2.0625005q0 0.140625 0.0625 0.234375q0.078125 0.09375 0.21875 0.09375q0.0625 0 0.109375 0q0.046875 -0.015625 0.078125 -0.03125q0.03125 -0.03125 0.0625 -0.03125q0.03125 -0.015625 0.078125 -0.015625q0.046875 0 0.078125 0.03125q0.046875 0.015625 0.078125 0.0625l0.375 0.59375q-0.234375 0.1875 -0.546875 0.28125q-0.296875 0.078125 -0.609375 0.078125zm2.9030914 -4.2031255l0 2.6250005q0 0.3125 0.140625 0.484375q0.140625 0.15625 0.40625 0.15625q0.203125 0 0.375 -0.078125q0.1875 -0.09375 0.359375 -0.234375l0 -2.9531255l1.234375 0l0 4.1406255l-0.765625 0q-0.234375 0 -0.296875 -0.203125l-0.078125 -0.25q-0.125 0.125 -0.25 0.21875q-0.125 0.09375 -0.28125 0.15625q-0.140625 0.0625 -0.3125 0.09375q-0.15625 0.046875 -0.359375 0.046875q-0.34375 0 -0.609375 -0.109375q-0.265625 -0.125 -0.453125 -0.328125q-0.171875 -0.21875 -0.265625 -0.5q-0.078125 -0.296875 -0.078125 -0.640625l0 -2.6250005l1.234375 0zm6.3899384 4.1406255q-0.109375 0 -0.1875 -0.046875q-0.078125 -0.0625 -0.109375 -0.15625l-0.109375 -0.328125q-0.109375 0.140625 -0.25 0.25q-0.140625 0.109375 -0.296875 0.1875q-0.15625 0.078125 -0.34375 0.109375q-0.171875 0.046875 -0.390625 0.046875q-0.328125 0 -0.609375 -0.140625q-0.265625 -0.140625 -0.46875 -0.40625q-0.203125 -0.28125 -0.3125 -0.671875q-0.109375 -0.40625 -0.109375 -0.90625q0 -0.46875 0.125 -0.8593755q0.125 -0.390625 0.359375 -0.6875q0.234375 -0.296875 0.5625 -0.453125q0.328125 -0.171875 0.71875 -0.171875q0.328125 0 0.546875 0.09375q0.21875 0.09375 0.40625 0.25l0 -2.09375l1.234375 0l0 5.9843755l-0.765625 0zm-1.25 -0.890625q0.125 0 0.234375 -0.015625q0.109375 -0.03125 0.203125 -0.078125q0.09375 -0.046875 0.171875 -0.125q0.09375 -0.078125 0.171875 -0.171875l0 -1.7500005q-0.140625 -0.15625 -0.3125 -0.21875q-0.15625 -0.0625 -0.34375 -0.0625q-0.171875 0 -0.3125 0.0625q-0.140625 0.0625 -0.25 0.21875q-0.109375 0.15625 -0.171875 0.39062548q-0.046875 0.234375 -0.046875 0.578125q0 0.328125 0.046875 0.5625q0.046875 0.21875 0.125 0.359375q0.09375 0.125 0.203125 0.1875q0.125 0.0625 0.28125 0.0625zm4.2649384 -3.2500005l0 4.1406255l-1.25 0l0 -4.1406255l1.25 0zm0.140625 -1.140625q0 0.140625 -0.0625 0.28125q-0.0625 0.125 -0.171875 0.21875q-0.09375 0.09375 -0.234375 0.15625q-0.140625 0.0625 -0.296875 0.0625q-0.15625 0 -0.28125 -0.0625q-0.125 -0.0625 -0.234375 -0.15625q-0.09375 -0.09375 -0.15625 -0.21875q-0.0625 -0.140625 -0.0625 -0.28125q0 -0.15625 0.0625 -0.28125q0.0625 -0.140625 0.15625 -0.234375q0.109375 -0.109375 0.234375 -0.15625q0.125 -0.0625 0.28125 -0.0625q0.15625 0 0.296875 0.0625q0.140625 0.046875 0.234375 0.15625q0.109375 0.09375 0.171875 0.234375q0.0625 0.125 0.0625 0.28125zm2.7018433 1.0625q0.46875 0 0.859375 0.15625q0.390625 0.140625 0.65625 0.421875q0.28125 0.28125 0.4375 0.671875q0.15625 0.39062548 0.15625 0.8906255q0 0.484375 -0.15625 0.890625q-0.15625 0.390625 -0.4375 0.671875q-0.265625 0.28125 -0.65625 0.4375q-0.390625 0.140625 -0.859375 0.140625q-0.46875 0 -0.859375 -0.140625q-0.390625 -0.15625 -0.671875 -0.4375q-0.28125 -0.28125 -0.4375 -0.671875q-0.15625 -0.40625 -0.15625 -0.890625q0 -0.5 0.15625 -0.8906255q0.15625 -0.390625 0.4375 -0.671875q0.28125 -0.28125 0.671875 -0.421875q0.390625 -0.15625 0.859375 -0.15625zm0 3.3593755q0.421875 0 0.625 -0.296875q0.203125 -0.296875 0.203125 -0.921875q0 -0.6093755 -0.203125 -0.9062505q-0.203125 -0.3125 -0.625 -0.3125q-0.4375 0 -0.640625 0.3125q-0.203125 0.296875 -0.203125 0.9062505q0 0.625 0.203125 0.921875q0.203125 0.296875 0.640625 0.296875zm5.3274384 -2.3750005q-0.046875 0.078125 -0.109375 0.109375q-0.046875 0.03125 -0.125 0.03125q-0.09375 0 -0.1875 -0.03125q-0.078125 -0.046875 -0.1875 -0.09375q-0.09375 -0.046875 -0.234375 -0.078125q-0.125 -0.046875 -0.28125 -0.046875q-0.234375 0 -0.359375 0.09375q-0.125 0.09375 -0.125 0.25q0 0.109375 0.078125 0.1875q0.078125 0.078125 0.21875 0.14062548q0.140625 0.0625 0.3125 0.109375q0.171875 0.046875 0.34375 0.109375q0.1875 0.0625 0.359375 0.15625q0.171875 0.078125 0.296875 0.21875q0.140625 0.125 0.21875 0.3125q0.078125 0.171875 0.078125 0.421875q0 0.296875 -0.109375 0.5625q-0.109375 0.265625 -0.328125 0.453125q-0.21875 0.1875 -0.546875 0.296875q-0.328125 0.09375 -0.75 0.09375q-0.21875 0 -0.4375 -0.046875q-0.203125 -0.03125 -0.40625 -0.09375q-0.1875 -0.078125 -0.359375 -0.171875q-0.171875 -0.09375 -0.28125 -0.203125l0.28125 -0.453125q0.046875 -0.078125 0.125 -0.125q0.078125 -0.046875 0.1875 -0.046875q0.109375 0 0.1875 0.046875q0.09375 0.046875 0.1875 0.109375q0.109375 0.046875 0.234375 0.109375q0.140625 0.046875 0.34375 0.046875q0.140625 0 0.234375 -0.03125q0.109375 -0.03125 0.171875 -0.078125q0.0625 -0.0625 0.078125 -0.125q0.03125 -0.0625 0.03125 -0.125q0 -0.125 -0.09375 -0.203125q-0.078125 -0.09375 -0.21875 -0.140625q-0.125 -0.0625 -0.296875 -0.109375q-0.171875 -0.046875 -0.359375 -0.109375q-0.171875 -0.078125 -0.359375 -0.15625q-0.171875 -0.09375 -0.3125 -0.234375q-0.125 -0.140625 -0.21875 -0.328125q-0.078125 -0.203125 -0.078125 -0.5000005q0 -0.25 0.09375 -0.484375q0.109375 -0.25 0.3125 -0.421875q0.21875 -0.1875 0.515625 -0.296875q0.3125 -0.109375 0.71875 -0.109375q0.234375 0 0.4375 0.046875q0.21875 0.046875 0.390625 0.125q0.1875 0.0625 0.34375 0.15625q0.15625 0.09375 0.265625 0.21875l-0.28125 0.4375z" fill-rule="nonzero"/></g></svg>