<svg version="1.1" viewBox="0.0 0.0 256.0 256.0" fill="none" stroke="none" stroke-linecap="square" stroke-miterlimit="10" xmlns:xlink="http://www.w3.org/1999/xlink" xmlns="http://www.w3.org/2000/svg"><clipPath id="p.0"><path d="m0 0l256.0 0l0 256.0l-256.0 0l0 -256.0z" clip-rule="nonzero"/></clipPath><g clip-path="url(#p.0)"><path fill="#000000" fill-opacity="0.0" d="m0 0l256.0 0l0 256.0l-256.0 0z" fill-rule="evenodd"/><defs><radialGradient id="p.1" gradientUnits="userSpaceOnUse" gradientTransform="matrix(13.45434113732934 0.0 0.0 13.45434113732934 0.0 0.0)" spreadMethod="pad" cx="9.513657985440954" cy="9.51365772579785" fx="9.513657985440954" fy="9.51365772579785" r="13.454340934753418"><stop offset="0.0" stop-color="#fdfdfd"/><stop offset="0.52" stop-color="#fdfdfd"/><stop offset="1.0" stop-color="#080808"/></radialGradient></defs><path fill="url(#p.1)" d="m0 128.0l64.0 -127.99994l128.0 0l64.0 127.99994l-64.0 127.99994l-128.0 0z" fill-rule="evenodd"/><path fill="#000000" fill-opacity="0.0" d="m111.07472 176.66887l-45.862297 -20.834763l10.127113 -11.223694z" fill-rule="evenodd"/><path stroke="#828282" stroke-width="2.0" stroke-linejoin="round" stroke-linecap="butt" d="m111.07472 176.66887l-45.862297 -20.834763l10.127113 -11.223694z" fill-rule="evenodd"/><path fill="#000000" fill-opacity="0.0" d="m63.004112 60.84129l44.926994 36.154453l-32.090706 47.89418z" fill-rule="evenodd"/><path stroke="#828282" stroke-width="2.0" stroke-linejoin="round" stroke-linecap="butt" d="m63.004112 60.84129l44.926994 36.154453l-32.090706 47.89418z" fill-rule="evenodd"/><path fill="#000000" fill-opacity="0.0" d="m107.10018 96.952736l21.06054 -3.6122208l21.060532 3.6122208z" fill-rule="evenodd"/><path stroke="#828282" stroke-width="2.0" stroke-linejoin="round" stroke-linecap="butt" d="m107.10018 96.952736l21.06054 -3.6122208l21.060532 3.6122208z" fill-rule="evenodd"/><path fill="#000000" fill-opacity="0.0" d="m128.55325 92.70618l-20.767845 4.4347076l-44.574642 -36.62217z" fill-rule="evenodd"/><path stroke="#828282" stroke-width="2.0" stroke-linejoin="round" stroke-linecap="butt" d="m128.55325 92.70618l-20.767845 4.4347076l-44.574642 -36.62217z" fill-rule="evenodd"/><path fill="#e0e0e0" d="m193.02255 60.84129l-44.927002 36.154453l32.090714 47.89418z" fill-rule="evenodd"/><path stroke="#828282" stroke-width="2.0" stroke-linejoin="round" stroke-linecap="butt" d="m193.02255 60.84129l-44.927002 36.154453l32.090714 47.89418z" fill-rule="evenodd"/><path fill="#acacac" d="m144.22787 176.88387l46.24933 -20.254242l-10.578644 -11.739716z" fill-rule="evenodd"/><path stroke="#828282" stroke-width="2.0" stroke-linejoin="round" stroke-linecap="butt" d="m144.22787 176.88387l46.24933 -20.254242l-10.578644 -11.739716z" fill-rule="evenodd"/><path fill="#acacac" d="m127.963425 92.70621l20.648666 4.494293l44.177795 -36.423744z" fill-rule="evenodd"/><path stroke="#828282" stroke-width="2.0" stroke-linejoin="round" stroke-linecap="butt" d="m127.963425 92.70621l20.648666 4.494293l44.177795 -36.423744z" fill-rule="evenodd"/><path fill="#000000" fill-opacity="0.0" d="m128.21274 192.03152l-52.065887 -47.339966l31.037598 -47.73884z" fill-rule="evenodd"/><path stroke="#828282" stroke-width="2.0" stroke-linejoin="round" stroke-linecap="butt" d="m128.21274 192.03152l-52.065887 -47.339966l31.037598 -47.73884z" fill-rule="evenodd"/><path fill="#cbcbcb" d="m128.69144 192.38097l51.65239 -47.594604l-30.5596 -47.806717z" fill-rule="evenodd"/><path stroke="#828282" stroke-width="2.0" stroke-linejoin="round" stroke-linecap="butt" d="m128.69144 192.38097l51.65239 -47.594604l-30.5596 -47.806717z" fill-rule="evenodd"/><path fill="#ebebeb" d="m128.33273 96.92049l20.963776 0l-20.963776 94.820786z" fill-rule="evenodd"/><path stroke="#828282" stroke-width="2.0" stroke-linejoin="round" stroke-linecap="butt" d="m128.33273 96.92049l20.963776 0l-20.963776 94.820786z" fill-rule="evenodd"/><path fill="#000000" fill-opacity="0.0" d="m128.35423 96.92049l-20.963783 0l20.963783 94.820786z" fill-rule="evenodd"/><path stroke="#828282" stroke-width="2.0" stroke-linejoin="round" stroke-linecap="butt" d="m128.35423 96.92049l-20.963783 0l20.963783 94.820786z" fill-rule="evenodd"/><path fill="#000000" fill-opacity="0.0" d="m75.78334 144.88824l52.57071 10.19162" fill-rule="evenodd"/><path stroke="#828282" stroke-width="2.0" stroke-linejoin="round" stroke-linecap="butt" d="m75.78334 144.88824l52.57071 10.19162" fill-rule="evenodd"/><path fill="#000000" fill-opacity="0.0" d="m180.73662 144.88824l-52.57071 10.19162" fill-rule="evenodd"/><path stroke="#828282" stroke-width="2.0" stroke-linejoin="round" stroke-linecap="butt" d="m180.73662 144.88824l-52.57071 10.19162" fill-rule="evenodd"/></g></svg>