<svg version="1.1" viewBox="0.0 0.0 64.0 64.0" fill="none" stroke="none" stroke-linecap="square" stroke-miterlimit="10" xmlns:xlink="http://www.w3.org/1999/xlink" xmlns="http://www.w3.org/2000/svg"><clipPath id="p.0"><path d="m0 0l64.0 0l0 64.0l-64.0 0l0 -64.0z" clip-rule="nonzero"/></clipPath><g clip-path="url(#p.0)"><path fill="#000000" fill-opacity="0.0" d="m0 0l64.0 0l0 64.0l-64.0 0z" fill-rule="evenodd"/><path fill="#080808" d="m1.1783518 39.74936l62.741093 0c1.411438E-4 0 2.746582E-4 -5.722046E-5 3.7765503E-4 -1.5640259E-4c9.918213E-5 -1.02996826E-4 1.5640259E-4 -2.3651123E-4 1.5640259E-4 -3.7765503E-4l-5.340576E-4 -14.724308c0 -0.6946831 -0.5631523 -1.2578373 -1.2578392 -1.2578373l-62.74109 0l0 0c-2.9455125E-4 0 -5.3332746E-4 2.4032593E-4 -5.3332746E-4 5.340576E-4l5.3332746E-4 14.724306l0 0c0 0.6946869 0.5631527 1.2578392 1.2578367 1.2578392z" fill-rule="evenodd"/><path stroke="#828282" stroke-width="1.0" stroke-linejoin="round" stroke-linecap="butt" d="m1.1783518 39.74936l62.741093 0c1.411438E-4 0 2.746582E-4 -5.722046E-5 3.7765503E-4 -1.5640259E-4c9.918213E-5 -1.02996826E-4 1.5640259E-4 -2.3651123E-4 1.5640259E-4 -3.7765503E-4l-5.340576E-4 -14.724308c0 -0.6946831 -0.5631523 -1.2578373 -1.2578392 -1.2578373l-62.74109 0l0 0c-2.9455125E-4 0 -5.3332746E-4 2.4032593E-4 -5.3332746E-4 5.340576E-4l5.3332746E-4 14.724306l0 0c0 0.6946869 0.5631527 1.2578392 1.2578367 1.2578392z" fill-rule="evenodd"/><path fill="#080808" d="m1.1783518 63.91767l62.741093 0c1.411438E-4 0 2.746582E-4 -5.340576E-5 3.7765503E-4 -1.5640259E-4c9.918213E-5 -9.918213E-5 1.5640259E-4 -2.3269653E-4 1.5640259E-4 -3.7384033E-4l-5.340576E-4 -14.724308c0 -0.6946831 -0.5631523 -1.2578392 -1.2578392 -1.2578392l-62.74109 0l0 0c-2.9455125E-4 0 -5.3332746E-4 2.4032593E-4 -5.3332746E-4 5.340576E-4l5.3332746E-4 14.724308l0 0c0 0.6946831 0.5631527 1.2578354 1.2578367 1.2578354z" fill-rule="evenodd"/><path stroke="#828282" stroke-width="1.0" stroke-linejoin="round" stroke-linecap="butt" d="m1.1783518 63.91767l62.741093 0c1.411438E-4 0 2.746582E-4 -5.340576E-5 3.7765503E-4 -1.5640259E-4c9.918213E-5 -9.918213E-5 1.5640259E-4 -2.3269653E-4 1.5640259E-4 -3.7384033E-4l-5.340576E-4 -14.724308c0 -0.6946831 -0.5631523 -1.2578392 -1.2578392 -1.2578392l-62.74109 0l0 0c-2.9455125E-4 0 -5.3332746E-4 2.4032593E-4 -5.3332746E-4 5.340576E-4l5.3332746E-4 14.724308l0 0c0 0.6946831 0.5631527 1.2578354 1.2578367 1.2578354z" fill-rule="evenodd"/><path fill="#080808" d="m1.1783518 15.90195l62.741093 0c1.411438E-4 0 2.746582E-4 -5.6266785E-5 3.7765503E-4 -1.5640259E-4c9.918213E-5 -1.001358E-4 1.5640259E-4 -2.3555756E-4 1.5640259E-4 -3.7670135E-4l-5.340576E-4 -14.724307c0 -0.694684 -0.5631523 -1.2578367 -1.2578392 -1.2578367l-62.74109 0l0 0c-2.9455125E-4 0 -5.3332746E-4 2.387762E-4 -5.3332746E-4 5.3332E-4l5.3332746E-4 14.724307l0 0c0 0.694684 0.5631527 1.2578363 1.2578367 1.2578363z" fill-rule="evenodd"/><path stroke="#828282" stroke-width="1.0" stroke-linejoin="round" stroke-linecap="butt" d="m1.1783518 15.90195l62.741093 0c1.411438E-4 0 2.746582E-4 -5.6266785E-5 3.7765503E-4 -1.5640259E-4c9.918213E-5 -1.001358E-4 1.5640259E-4 -2.3555756E-4 1.5640259E-4 -3.7670135E-4l-5.340576E-4 -14.724307c0 -0.694684 -0.5631523 -1.2578367 -1.2578392 -1.2578367l-62.74109 0l0 0c-2.9455125E-4 0 -5.3332746E-4 2.387762E-4 -5.3332746E-4 5.3332E-4l5.3332746E-4 14.724307l0 0c0 0.694684 0.5631527 1.2578363 1.2578367 1.2578363z" fill-rule="evenodd"/></g></svg>