<svg version="1.1" viewBox="0.0 0.0 128.0 128.0" fill="none" stroke="none" stroke-linecap="square" stroke-miterlimit="10" xmlns:xlink="http://www.w3.org/1999/xlink" xmlns="http://www.w3.org/2000/svg"><clipPath id="p.0"><path d="m0 0l128.0 0l0 128.0l-128.0 0l0 -128.0z" clip-rule="nonzero"/></clipPath><g clip-path="url(#p.0)"><path fill="#000000" fill-opacity="0.0" d="m0 0l128.0 0l0 128.0l-128.0 0z" fill-rule="evenodd"/><path fill="#000000" fill-opacity="0.0" d="m53.4215 94.41932l-28.663937 -13.0217285l6.3294487 -7.0148087z" fill-rule="evenodd"/><path stroke="#828282" stroke-width="1.0" stroke-linejoin="round" stroke-linecap="butt" d="m53.4215 94.41932l-28.663937 -13.0217285l6.3294487 -7.0148087z" fill-rule="evenodd"/><path fill="#000000" fill-opacity="0.0" d="m23.377369 22.02708l28.079372 22.596535l-20.056694 29.933857z" fill-rule="evenodd"/><path stroke="#828282" stroke-width="1.0" stroke-linejoin="round" stroke-linecap="butt" d="m23.377369 22.02708l28.079372 22.596535l-20.056694 29.933857z" fill-rule="evenodd"/><path fill="#000000" fill-opacity="0.0" d="m50.937412 44.596733l13.16283 -2.257637l13.162834 2.257637z" fill-rule="evenodd"/><path stroke="#828282" stroke-width="1.0" stroke-linejoin="round" stroke-linecap="butt" d="m50.937412 44.596733l13.16283 -2.257637l13.162834 2.257637z" fill-rule="evenodd"/><path fill="#000000" fill-opacity="0.0" d="m64.34558 41.942635l-12.979904 2.7716942l-27.859148 -22.888859z" fill-rule="evenodd"/><path stroke="#828282" stroke-width="1.0" stroke-linejoin="round" stroke-linecap="butt" d="m64.34558 41.942635l-12.979904 2.7716942l-27.859148 -22.888859z" fill-rule="evenodd"/><path fill="#e0e0e0" d="m104.63889 22.02708l-28.079369 22.596535l20.056686 29.933857z" fill-rule="evenodd"/><path stroke="#828282" stroke-width="1.0" stroke-linejoin="round" stroke-linecap="butt" d="m104.63889 22.02708l-28.079369 22.596535l20.056686 29.933857z" fill-rule="evenodd"/><path fill="#acacac" d="m74.14223 94.55369l28.905823 -12.658897l-6.611656 -7.3373184z" fill-rule="evenodd"/><path stroke="#828282" stroke-width="1.0" stroke-linejoin="round" stroke-linecap="butt" d="m74.14223 94.55369l28.905823 -12.658897l-6.611656 -7.3373184z" fill-rule="evenodd"/><path fill="#acacac" d="m63.976936 41.942654l12.905418 2.808937l27.611122 -22.764845z" fill-rule="evenodd"/><path stroke="#828282" stroke-width="1.0" stroke-linejoin="round" stroke-linecap="butt" d="m63.976936 41.942654l12.905418 2.808937l27.611122 -22.764845z" fill-rule="evenodd"/><path fill="#000000" fill-opacity="0.0" d="m64.13276 104.02098l-32.541183 -29.587486l19.3985 -29.83677z" fill-rule="evenodd"/><path stroke="#828282" stroke-width="1.0" stroke-linejoin="round" stroke-linecap="butt" d="m64.13276 104.02098l-32.541183 -29.587486l19.3985 -29.83677z" fill-rule="evenodd"/><path fill="#cbcbcb" d="m64.431946 104.23938l32.282738 -29.746628l-19.099747 -29.8792z" fill-rule="evenodd"/><path stroke="#828282" stroke-width="1.0" stroke-linejoin="round" stroke-linecap="butt" d="m64.431946 104.23938l32.282738 -29.746628l-19.099747 -29.8792z" fill-rule="evenodd"/><path fill="#ebebeb" d="m64.207756 44.576576l13.102356 0l-13.102356 59.262993z" fill-rule="evenodd"/><path stroke="#828282" stroke-width="1.0" stroke-linejoin="round" stroke-linecap="butt" d="m64.207756 44.576576l13.102356 0l-13.102356 59.262993z" fill-rule="evenodd"/><path fill="#000000" fill-opacity="0.0" d="m64.22119 44.576576l-13.102364 0l13.102364 59.262993z" fill-rule="evenodd"/><path stroke="#828282" stroke-width="1.0" stroke-linejoin="round" stroke-linecap="butt" d="m64.22119 44.576576l-13.102364 0l13.102364 59.262993z" fill-rule="evenodd"/><path fill="#000000" fill-opacity="0.0" d="m31.364388 74.55643l32.856697 6.369766" fill-rule="evenodd"/><path stroke="#828282" stroke-width="1.0" stroke-linejoin="round" stroke-linecap="butt" d="m31.364388 74.55643l32.856697 6.369766" fill-rule="evenodd"/><path fill="#000000" fill-opacity="0.0" d="m96.96019 74.55643l-32.856697 6.369766" fill-rule="evenodd"/><path stroke="#828282" stroke-width="1.0" stroke-linejoin="round" stroke-linecap="butt" d="m96.96019 74.55643l-32.856697 6.369766" fill-rule="evenodd"/></g></svg>