<svg version="1.1" viewBox="0.0 0.0 512.0 512.0" fill="none" stroke="none" stroke-linecap="square" stroke-miterlimit="10" xmlns:xlink="http://www.w3.org/1999/xlink" xmlns="http://www.w3.org/2000/svg"><clipPath id="p.0"><path d="m0 0l512.0 0l0 512.0l-512.0 0l0 -512.0z" clip-rule="nonzero"/></clipPath><g clip-path="url(#p.0)"><path fill="#000000" fill-opacity="0.0" d="m0 0l512.0 0l0 512.0l-512.0 0z" fill-rule="evenodd"/><path fill="#000000" fill-opacity="0.0" d="m213.686 377.67728l-114.65575 -52.086914l25.317795 -28.059235z" fill-rule="evenodd"/><path stroke="#828282" stroke-width="3.0" stroke-linejoin="round" stroke-linecap="butt" d="m213.686 377.67728l-114.65575 -52.086914l25.317795 -28.059235z" fill-rule="evenodd"/><path fill="#000000" fill-opacity="0.0" d="m93.509476 88.10832l112.31749 90.38614l-80.226776 119.73543z" fill-rule="evenodd"/><path stroke="#828282" stroke-width="3.0" stroke-linejoin="round" stroke-linecap="butt" d="m93.509476 88.10832l112.31749 90.38614l-80.226776 119.73543z" fill-rule="evenodd"/><path fill="#000000" fill-opacity="0.0" d="m203.74965 178.38693l52.65132 -9.030548l52.651337 9.030548z" fill-rule="evenodd"/><path stroke="#828282" stroke-width="3.0" stroke-linejoin="round" stroke-linecap="butt" d="m203.74965 178.38693l52.65132 -9.030548l52.651337 9.030548z" fill-rule="evenodd"/><path fill="#000000" fill-opacity="0.0" d="m257.38232 167.77054l-51.919617 11.086777l-111.43659 -91.555435z" fill-rule="evenodd"/><path stroke="#828282" stroke-width="3.0" stroke-linejoin="round" stroke-linecap="butt" d="m257.38232 167.77054l-51.919617 11.086777l-111.43659 -91.555435z" fill-rule="evenodd"/><path fill="#e0e0e0" d="m418.55557 88.10832l-112.317474 90.38614l80.226746 119.73543z" fill-rule="evenodd"/><path stroke="#828282" stroke-width="3.0" stroke-linejoin="round" stroke-linecap="butt" d="m418.55557 88.10832l-112.317474 90.38614l80.226746 119.73543z" fill-rule="evenodd"/><path fill="#acacac" d="m296.5689 378.21475l115.62329 -50.63559l-26.446625 -29.349274z" fill-rule="evenodd"/><path stroke="#828282" stroke-width="3.0" stroke-linejoin="round" stroke-linecap="butt" d="m296.5689 378.21475l115.62329 -50.63559l-26.446625 -29.349274z" fill-rule="evenodd"/><path fill="#acacac" d="m255.90775 167.77061l51.621674 11.235748l110.44449 -91.05938z" fill-rule="evenodd"/><path stroke="#828282" stroke-width="3.0" stroke-linejoin="round" stroke-linecap="butt" d="m255.90775 167.77061l51.621674 11.235748l110.44449 -91.05938z" fill-rule="evenodd"/><path fill="#000000" fill-opacity="0.0" d="m256.53104 416.08392l-130.16473 -118.349945l77.594 -119.34708z" fill-rule="evenodd"/><path stroke="#828282" stroke-width="3.0" stroke-linejoin="round" stroke-linecap="butt" d="m256.53104 416.08392l-130.16473 -118.349945l77.594 -119.34708z" fill-rule="evenodd"/><path fill="#cbcbcb" d="m257.72778 416.95752l129.13095 -118.98651l-76.39899 -119.5168z" fill-rule="evenodd"/><path stroke="#828282" stroke-width="3.0" stroke-linejoin="round" stroke-linecap="butt" d="m257.72778 416.95752l129.13095 -118.98651l-76.39899 -119.5168z" fill-rule="evenodd"/><path fill="#ebebeb" d="m256.83102 178.3063l52.409424 0l-52.409424 237.05197z" fill-rule="evenodd"/><path stroke="#828282" stroke-width="3.0" stroke-linejoin="round" stroke-linecap="butt" d="m256.83102 178.3063l52.409424 0l-52.409424 237.05197z" fill-rule="evenodd"/><path fill="#000000" fill-opacity="0.0" d="m256.88477 178.3063l-52.409454 0l52.409454 237.05197z" fill-rule="evenodd"/><path stroke="#828282" stroke-width="3.0" stroke-linejoin="round" stroke-linecap="butt" d="m256.88477 178.3063l-52.409454 0l52.409454 237.05197z" fill-rule="evenodd"/><path fill="#000000" fill-opacity="0.0" d="m125.45755 298.2257l131.42679 25.479065" fill-rule="evenodd"/><path stroke="#828282" stroke-width="3.0" stroke-linejoin="round" stroke-linecap="butt" d="m125.45755 298.2257l131.42679 25.479065" fill-rule="evenodd"/><path fill="#000000" fill-opacity="0.0" d="m387.84076 298.2257l-131.42679 25.479065" fill-rule="evenodd"/><path stroke="#828282" stroke-width="3.0" stroke-linejoin="round" stroke-linecap="butt" d="m387.84076 298.2257l-131.42679 25.479065" fill-rule="evenodd"/></g></svg>