<svg version="1.1" viewBox="0.0 0.0 32.0 32.0" fill="none" stroke="none" stroke-linecap="square" stroke-miterlimit="10" xmlns:xlink="http://www.w3.org/1999/xlink" xmlns="http://www.w3.org/2000/svg"><clipPath id="p.0"><path d="m0 0l32.0 0l0 32.0l-32.0 0l0 -32.0z" clip-rule="nonzero"/></clipPath><g clip-path="url(#p.0)"><path fill="#000000" fill-opacity="0.0" d="m0 0l32.0 0l0 32.0l-32.0 0z" fill-rule="evenodd"/><path fill="#000000" fill-opacity="0.0" d="m13.355375 23.60483l-7.165984 -3.2554321l1.5823622 -1.7537022z" fill-rule="evenodd"/><path stroke="#828282" stroke-width="1.0" stroke-linejoin="round" stroke-linecap="butt" d="m13.355375 23.60483l-7.165984 -3.2554321l1.5823622 -1.7537022z" fill-rule="evenodd"/><path fill="#000000" fill-opacity="0.0" d="m5.844342 5.50677l7.019843 5.6491337l-5.0141735 7.4834642z" fill-rule="evenodd"/><path stroke="#828282" stroke-width="1.0" stroke-linejoin="round" stroke-linecap="butt" d="m5.844342 5.50677l7.019843 5.6491337l-5.0141735 7.4834642z" fill-rule="evenodd"/><path fill="#000000" fill-opacity="0.0" d="m12.734353 11.149183l3.2907076 -0.56440926l3.2907085 0.56440926z" fill-rule="evenodd"/><path stroke="#828282" stroke-width="1.0" stroke-linejoin="round" stroke-linecap="butt" d="m12.734353 11.149183l3.2907076 -0.56440926l3.2907085 0.56440926z" fill-rule="evenodd"/><path fill="#000000" fill-opacity="0.0" d="m16.086395 10.485659l-3.244976 0.69292355l-6.964787 -5.7222147z" fill-rule="evenodd"/><path stroke="#828282" stroke-width="1.0" stroke-linejoin="round" stroke-linecap="butt" d="m16.086395 10.485659l-3.244976 0.69292355l-6.964787 -5.7222147z" fill-rule="evenodd"/><path fill="#e0e0e0" d="m26.159723 5.50677l-7.019842 5.6491337l5.0141716 7.4834642z" fill-rule="evenodd"/><path stroke="#828282" stroke-width="1.0" stroke-linejoin="round" stroke-linecap="butt" d="m26.159723 5.50677l-7.019842 5.6491337l5.0141716 7.4834642z" fill-rule="evenodd"/><path fill="#acacac" d="m18.535557 23.638422l7.2264557 -3.1647243l-1.652914 -1.8343296z" fill-rule="evenodd"/><path stroke="#828282" stroke-width="1.0" stroke-linejoin="round" stroke-linecap="butt" d="m18.535557 23.638422l7.2264557 -3.1647243l-1.652914 -1.8343296z" fill-rule="evenodd"/><path fill="#acacac" d="m15.994234 10.485663l3.2263546 0.70223427l6.9027805 -5.691211z" fill-rule="evenodd"/><path stroke="#828282" stroke-width="1.0" stroke-linejoin="round" stroke-linecap="butt" d="m15.994234 10.485663l3.2263546 0.70223427l6.9027805 -5.691211z" fill-rule="evenodd"/><path fill="#000000" fill-opacity="0.0" d="m16.03319 26.005245l-8.135296 -7.3968716l4.849625 -7.4591923z" fill-rule="evenodd"/><path stroke="#828282" stroke-width="1.0" stroke-linejoin="round" stroke-linecap="butt" d="m16.03319 26.005245l-8.135296 -7.3968716l4.849625 -7.4591923z" fill-rule="evenodd"/><path fill="#cbcbcb" d="m16.107986 26.059845l8.070684 -7.436657l-4.7749367 -7.4698z" fill-rule="evenodd"/><path stroke="#828282" stroke-width="1.0" stroke-linejoin="round" stroke-linecap="butt" d="m16.107986 26.059845l8.070684 -7.436657l-4.7749367 -7.4698z" fill-rule="evenodd"/><path fill="#ebebeb" d="m16.051939 11.144144l3.275589 0l-3.275589 14.815748z" fill-rule="evenodd"/><path stroke="#828282" stroke-width="1.0" stroke-linejoin="round" stroke-linecap="butt" d="m16.051939 11.144144l3.275589 0l-3.275589 14.815748z" fill-rule="evenodd"/><path fill="#000000" fill-opacity="0.0" d="m16.055298 11.144144l-3.275591 0l3.275591 14.815748z" fill-rule="evenodd"/><path stroke="#828282" stroke-width="1.0" stroke-linejoin="round" stroke-linecap="butt" d="m16.055298 11.144144l-3.275591 0l3.275591 14.815748z" fill-rule="evenodd"/><path fill="#000000" fill-opacity="0.0" d="m7.841097 18.639107l8.214174 1.5924416" fill-rule="evenodd"/><path stroke="#828282" stroke-width="1.0" stroke-linejoin="round" stroke-linecap="butt" d="m7.841097 18.639107l8.214174 1.5924416" fill-rule="evenodd"/><path fill="#000000" fill-opacity="0.0" d="m24.240047 18.639107l-8.214174 1.5924416" fill-rule="evenodd"/><path stroke="#828282" stroke-width="1.0" stroke-linejoin="round" stroke-linecap="butt" d="m24.240047 18.639107l-8.214174 1.5924416" fill-rule="evenodd"/></g></svg>